<?xml version="1.0" encoding="UTF-8"?>
<svg id="Layer_1" data-name="Layer 1" xmlns="http://www.w3.org/2000/svg" viewBox="0 0 2217 210">
  <defs>
    <style>
      .cls-1 {
        stroke-width: .92px;
      }

      .cls-1, .cls-2, .cls-3 {
        stroke: #000;
        stroke-miterlimit: 10;
      }

      .cls-4 {
        fill: #f7e786;
      }

      .cls-4, .cls-5, .cls-6, .cls-7, .cls-8, .cls-9 {
        stroke-width: 0px;
      }

      .cls-5 {
        fill: #c49a6a;
      }

      .cls-7 {
        fill: #f77ca5;
      }

      .cls-8 {
        fill: #202020;
      }

      .cls-10 {
        font-family: InkFree, 'Ink Free';
        font-size: 29.92px;
      }

      .cls-2 {
        fill: #aeff8a;
        stroke-width: 3px;
      }

      .cls-3 {
        fill: #fff;
        stroke-width: .42px;
      }

      .cls-9 {
        fill: #c098d5;
      }
    </style>
  </defs>
  <rect class="cls-9" x="-4" y="-2" width="2229" height="215"/>
  <path class="cls-6" d="M-10.68,141.12c23.42-39.6,57.67-51.81,100.27-33.87,29.36,11.97,52.17,33.82,80.03,48.02,40.33,20.55,86.1,27.32,131.01,27.32,16.59-.3,33.36-.96,49.84-2.98,4.72-.67,9.49-.9,14.24-1.28,8.05-.96,20.45-2.03,28.47-3.21,5.33-.75,16.08-2.25,21.34-2.95-9.3,2.24-18.6,4.62-27.98,6.64-5.09.97-16.39,3.22-21.21,4.13-7.1,1.29-14.29,1.91-21.45,2.7-56.09,5.06-114.68,2.23-166.8-21-5.07-2.41-11.37-5.36-16.22-8.16-16.87-9.12-31.88-21.43-48.23-31.31-19.73-12.05-42.14-22.61-65.73-20.44-24.66,2.76-43.06,16.9-57.58,36.38h0Z"/>
  <g>
    <polyline class="cls-5" points="428.52 134.52 419.21 160.39 425.79 167 452.23 157.84"/>
    <path class="cls-4" d="M427.67,135.36s72.16-74.45,98.81-98.88l23.55,23.55c-32.9,32.9-65.8,65.8-98.7,98.7-2.47-.05-5.2-.5-6.35-2.26-1.13-1.74-1.09-4.89-1.09-4.89,0,0-4.63-.12-6.55-1.99-1.93-1.88-1.99-6.55-1.99-6.55,0,0-4.79.52-6.5-1.19-.49-.49-1.8-3.32-1.19-6.5Z"/>
    <polygon class="cls-1" points="425.79 167 415.55 170.55 419.21 160.39 425.79 167"/>
    <rect class="cls-7" x="528.49" y="31.69" width="33.23" height="19.4" transform="translate(188.93 -373.33) rotate(45)"/>
  </g>
  <g>
    <path class="cls-2" d="M641.46,93.27v27.13c0,.8.57,1.37,1.26,1.37h27.24c1.6,0,1.72-2.4,0-2.4h-14.99c-15.68,0-15.68-25.18,0-25.18h14.99c1.26,0,2.29,0,3.32.23,5.61.69,10.64,2.75,15.34,7.55,10.3,10.3,10.3,26.9,0,37.2-5.04,5.04-11.56,7.67-18.66,7.67h-27.24c-7.1,0-13.62-2.63-18.66-7.67s-7.78-12.02-7.78-18.77v-27.24c0-6.75,2.98-13.96,7.78-18.66,4.69-4.69,9.73-6.75,15.34-7.55,1.03-.11,2.06-.23,3.32-.23h42.01c15.57,0,15.57,25.18,0,25.18h-41.89c-.8,0-1.37.57-1.37,1.37Z"/>
    <path class="cls-2" d="M757.4,119.14h-1.26v.11c-.34,0-.69.11-.92.34-.57.46-.57,1.26,0,1.83.23.23.57.34.92.34h15.91c15.57,0,15.57,25.18,0,25.18h-15.91c-6.98,0-13.73-2.86-18.66-7.78-5.15-5.15-6.98-12.25-6.98-19,0-2.06-2.63-2.06-2.63.11v14.88c0,15.68-25.18,15.68-25.18,0v-56.77c0-7.78,6.18-11.67,12.48-11.67h41.66c14.42,0,26.78,11.56,26.78,26.44s-11.79,25.75-26.21,25.98ZM727.87,91.79v2.63h29.07c.8,0,1.6-.46,1.49-1.37,0-.8-.69-1.26-1.37-1.26h-29.19Z"/>
    <path class="cls-2" d="M845.08,66.72c1.26,0,2.29.11,3.32.23,5.61.8,10.64,2.75,15.34,7.55,4.69,4.69,7.78,11.9,7.78,18.66v27.24c0,6.75-3.09,13.96-7.78,18.66-4.69,4.81-9.73,6.87-15.34,7.55-1.03.23-2.06.23-3.32.23h-28.5c-1.26,0-2.29,0-3.32-.23-5.61-.69-10.64-2.75-15.34-7.55-4.81-4.69-7.78-11.9-7.78-18.66v-27.24c0-6.75,2.98-13.96,7.78-18.66,4.69-4.81,9.73-6.75,15.34-7.55,1.03-.11,2.06-.23,3.32-.23h28.5ZM844.97,121.66c.8,0,1.37-.57,1.37-1.26v-27.13c0-.8-.57-1.49-1.37-1.49h-28.39c-.69,0-1.26.69-1.26,1.49v27.13c0,.69.57,1.26,1.26,1.26h28.39Z"/>
    <path class="cls-2" d="M903.34,93.27v27.13c0,.8.57,1.37,1.37,1.37h41.89c15.68,0,15.68,25.07,0,25.07h-42.01c-1.14,0-2.29,0-3.32-.23-5.61-.69-10.64-2.75-15.34-7.44-4.69-4.81-7.78-12.02-7.78-18.77v-27.24c0-6.75,3.09-13.96,7.78-18.66s9.73-6.75,15.34-7.55c1.03-.11,2.17-.23,3.32-.23h42.01c15.68,0,15.68,25.18,0,25.18h-41.89c-.8,0-1.37.57-1.37,1.37Z"/>
    <path class="cls-2" d="M990.79,121.89h42c15.57,0,15.57,24.95,0,24.95h-42.12c-1.26,0-2.17,0-3.2-.23-5.61-.69-11.1-3.2-15.22-7.55-5.04-4.92-7.67-11.67-7.67-18.2-.11-4.92,1.72-10.19,6.64-14.08-4.69-3.32-6.64-8.93-6.64-13.73,0-6.75,2.52-13.51,7.67-18.54,4.12-4.35,9.61-6.75,15.22-7.55,1.03-.23,1.95-.23,3.2-.23h42.12c15.57,0,15.57,24.95,0,24.95h-42c-1.83,0-1.83,2.63,0,2.63h42.81c.57,0,1.14.11,1.95.23.23.11.46.11.69.23.23,0,.34.11.46.11.23.11.46.23.57.23.23.11.46.23.57.23.23.11.34.23.57.34.11.11.34.11.46.23.23.11.34.23.57.34.11.11.23.23.46.34.11.11.23.23.46.34.11.23.23.34.34.46.23.11.34.23.46.34.11.23.23.34.34.46.11.11.23.34.34.46s.23.34.34.46c.11.23.23.34.34.46.12.23.23.34.23.57.11.11.23.34.34.46.34.69.57,1.49.8,2.17,0,.23.11.34.11.57.11.23.11.34.11.57.11.23.11.34.11.57s.12.46.12.57v.57c0,.23.11.46.11.57v1.14c0,.11-.11.34-.11.57v.57c0,.23-.12.34-.12.57s0,.34-.11.57c0,.23,0,.34-.11.57,0,.23-.11.34-.11.57-1.37,4.69-5.04,8.47-11.1,8.47h-42c-1.83,0-1.83,2.63,0,2.63Z"/>
    <path class="cls-2" d="M1105.6,119.14h-1.26v.11c-.34,0-.69.11-.92.34-.57.46-.57,1.26,0,1.83.23.23.57.34.92.34h15.91c15.57,0,15.57,25.18,0,25.18h-15.91c-6.98,0-13.73-2.86-18.66-7.78-5.15-5.15-6.98-12.25-6.98-19,0-2.06-2.63-2.06-2.63.11v14.88c0,15.68-25.18,15.68-25.18,0v-56.77c0-7.78,6.18-11.67,12.48-11.67h41.66c14.42,0,26.78,11.56,26.78,26.44s-11.79,25.75-26.21,25.98ZM1076.07,91.79v2.63h29.07c.8,0,1.6-.46,1.49-1.37,0-.8-.69-1.26-1.37-1.26h-29.19Z"/>
    <path class="cls-2" d="M1140.85,87.55c-11.33-11.33,6.87-29.64,18.2-18.31l19.34,19.34,19.34-19.34c11.45-11.33,29.64,6.98,18.31,18.31l-24.72,24.61v23.81c0,16.02-25.75,16.02-25.75,0v-23.81l-24.72-24.61Z"/>
    <path class="cls-2" d="M1270.65,139.17c-4.69-4.81-6.75-9.84-7.44-15.45-.23-1.03-.23-2.06-.23-3.32v-41.89c0-15.68,25.07-15.68,25.07,0v41.89c0,.69.57,1.37,1.37,1.37h39.49c15.68,0,15.68,25.07,0,25.07h-39.49c-6.75,0-13.96-2.98-18.77-7.67Z"/>
    <path class="cls-2" d="M1358.67,91.9c-15.57,0-15.57-25.18,0-25.18h56.66c15.57,0,15.57,25.18,0,25.18h-15.79v29.87h15.79c15.57,0,15.57,25.07,0,25.07h-56.66c-15.57,0-15.57-25.07,0-25.07h15.79v-29.87h-15.79Z"/>
    <path class="cls-2" d="M1487.21,146.84h-41.55c-15.68,0-15.68-24.95,0-24.95h41.78c.8,0,1.37-.46,1.49-1.26,0-.8-.8-1.26-1.6-1.26l-28.04-.11c-6.98,0-13.39-2.75-18.31-7.78-10.3-10.19-10.3-26.78,0-36.97,4.35-4.35,9.73-6.87,15.34-7.55,1.14-.23,2.17-.23,3.43-.23h42.23c15.57,0,15.57,24.95,0,24.95h-42.23c-.34,0-.69.11-.92.34-.57.57-.57,1.37,0,1.83.23.23.57.46.92.46h28.04c14.42.11,26.21,12.02,26.21,26.32s-12.25,26.21-26.78,26.21Z"/>
    <path class="cls-2" d="M1588.96,91.9h-14.54c-.8,0-1.26.57-1.26,1.37v42.23c0,7.78-6.29,11.67-12.59,11.67s-12.59-3.89-12.59-11.67v-42.23c0-.8-.46-1.37-1.26-1.37h-14.54c-15.57,0-15.57-25.07,0-25.07h56.77c15.68,0,15.68,25.07,0,25.07Z"/>
  </g>
  <g>
    <rect class="cls-3" x="1736.87" y="16.81" width="303.72" height="339.04" transform="translate(208.83 -696.82) rotate(22.1)"/>
    <g>
      <path class="cls-8" d="M2057.11,113.51c.14.02.1-.09-.25-.21l-.29.03.54.18Z"/>
      <path class="cls-8" d="M2054.91,112.34c-.43-.1-.93-.18-.72.04.45.04.52.13,1.01.16.35.12.58.28.5.31.13.02.52.24.74.24-.4-.28-.97-.51-1.59-.67-.11-.08.02-.06.06-.07Z"/>
      <path class="cls-8" d="M2021.64,98.6l.21.1c-.06-.03-.13-.07-.21-.1Z"/>
      <path class="cls-8" d="M2001,90.14c.16.06.23.07.24.07-.15-.05-.27-.09-.24-.07Z"/>
      <path class="cls-8" d="M1997.53,88.57c.07.03.14.06.2.09-.07-.04-.15-.08-.2-.09Z"/>
      <path class="cls-8" d="M2021.64,98.6l-.54-.26c-.06.03.27.15.54.26Z"/>
      <path class="cls-8" d="M2050.19,110.78c.12.04.22.07.31.09-.1-.03-.19-.07-.29-.1,0,0-.01,0-.03.01Z"/>
      <path class="cls-8" d="M2030.79,102.2l.17.07c.06,0,.11,0,.16,0l-.33-.07Z"/>
      <path class="cls-8" d="M2037.79,105.02c-.16-.07-.26.02-.33.04.11,0,.23.02.38.07.01-.02,0-.05-.04-.11Z"/>
      <path class="cls-8" d="M2048.8,109.71l.2.07c-.05-.02-.14-.05-.2-.07Z"/>
      <path class="cls-8" d="M2025.79,100.14s-.02-.05-.05-.06c0,.01.01.04.05.06Z"/>
      <path class="cls-8" d="M1829.9,21.56s0-.01,0-.02c-.05,0-.06,0,0,.02Z"/>
      <path class="cls-8" d="M1822.01,17.73l.11.04s.04-.03.05-.05h-.16Z"/>
      <path class="cls-8" d="M1991.12,85.81s.02,0,.03.01c.17.06.08.02-.03-.01Z"/>
      <path class="cls-8" d="M1931.81,61.82c.63.37-1.14-.32-.18.2-.08-.08.99.2.18-.2Z"/>
      <path class="cls-8" d="M2050.01,110.7c-.09-.04-.19-.08-.29-.12.13.06.22.09.29.12Z"/>
      <path class="cls-8" d="M1931.63,62.02s0,0,0,0l.1.05s-.06-.03-.1-.05Z"/>
      <path class="cls-8" d="M1976.22,79.83s.08.07.13.11c0-.01-.03-.04-.13-.11Z"/>
      <path class="cls-8" d="M1987.24,84.49l-.27-.13c.1.05.19.09.27.13Z"/>
      <path class="cls-8" d="M1970.4,77.65c-.15-.07-.19-.1-.4-.17.02.01.03.02.06.04.08.02.18.05.34.13Z"/>
      <path class="cls-8" d="M1964.41,75.22s.07.04.1.07c.06.02.13.05.19.07l-.29-.14Z"/>
      <path class="cls-8" d="M1848.13,28.9c-.12-.08-.19-.15-.24-.21.06.11-.83-.22.24.21Z"/>
      <path class="cls-8" d="M2050.21,110.72s-.1,0-.2-.03c.07.03.14.05.2.08.02,0,.03-.02,0-.05Z"/>
      <path class="cls-8" d="M1969.81,78.4l-.95-.4c.26.12.61.26.95.4Z"/>
      <path class="cls-8" d="M1891.11,46.33l-.22-.08c.08.04.16.06.22.08Z"/>
      <path class="cls-8" d="M1966.03,76.87c-.15-.11-.33-.2-.51-.29-.04,0-.09-.02-.12-.02l.63.31Z"/>
      <path class="cls-8" d="M1847.89,28.68s0,0,0,0c0,0,0,0,0,0Z"/>
      <path class="cls-8" d="M1841.51,26.4c.91.37.48.03.71.03,1.1.4.46.31.8.53.69.24,1.26.32,1.76.53.03.04.12.09,0,.07.76.18,2.12.86,3.01,1.05.06.04.08.06.09.08-.11-.13-.1-.21-.05-.25.41.16.79.22.91.37-.25-.1-.28-.07-.41-.09l.44.13c.33.29-.6-.19-.64-.09.85.29,1.86.58,2.48.87.08.18-1.51-.56-.7-.1l-.96-.45c.67.51-.59-.26,0,.24,1.28.56,1.48.52,2.75,1.09.32.05-.05-.15.27-.1,1.89.62,1.31.92,2.73,1.29.39.05.59-.06,1.51.42h-.39c1.25.54.8.09,2.08.73-.26-.04-1.01-.35-.82-.26.8.46.64.16,1.29.43l.08.19c1.34.52,2.85,1.02,4.34,1.6-.1,0-.37-.06-.04.12,1.89.69,3.98,1.63,5.75,2.44l.73.17c.16.07.28.17.09.12.68.33.07-.06.42.04.4.15.5.28.23.21,1.28.41,3.61,1.23,4.87,1.88l-.27-.07c1,.46,1.24.23,2.14.72l-.19-.05c2.18.94,4.66,1.83,6.28,2.68.39-.03,2.15.96,2.39.79,1.21.62.84.52,2.58,1.31.47.2.76.14,1.36.36l-.03.12.85.2.37.31.56.19c-.22-.1-.44-.24-.4-.26.88.29,2.06.93,2.05,1l2.07.72c-.06.03-.41-.09-.69-.17,1.13.32.15.2,1.18.5-.12-.08.1-.04.13-.06.47.27,1.59.73,2.44,1.04l-.19.02c1.5.63,3.19,1.25,4.88,1.94-.59-.28-.39-.37.11-.18l.15.21c.35.05-.5-.26.2-.09.63.27.37.31-.01.21l.78.27c.03.06-.16,0-.22.03.35.05,1.27.66,1.78.71l.03.05c1.69.69,2.47.95,3.85,1.51.07-.1.6.15,1.04.22,1,.44,2.08.99,3.31,1.47.88.29.29,0,.7.1.02.12,1.24.61.58.42,1.47.58,1.87.74,3.76,1.41-.18-.12-.4-.23-.27-.22.34.12.75.35.68.38l-.09-.03c2.14.69,4.67,2.23,6.41,2.7l-.1-.03,1.76.59c.78.34-.5-.12.06.18,1.92.59,2.91,1.21,4.48,1.72,1.06.77,4.19,1.68,5.7,2.51l-.06-.11c.44.1.48.24.78.38-.02-.07-.42-.24-.15-.18,3.52,1.33,7.15,3.02,10.69,4.53,1.3.55.88-.05,2.46.78l-.52-.06c2.7.92,5.39,2.19,8.02,3.11-.17-.03-.19,0-.44-.1.51.31,2.01.82,2.05.75.4.17.07.11.3.24.52.28,1.42.44,1.67.65.04.03-.17-.03-.27-.07.37.1,1.65.69,1.36.44.95.44,1.87.7,2.62,1.08.55.09,1.63.73,1.86.63-.14.15,1.64.83,2.29,1-.23-.03.51.27.24.25.7.28,1.35.51,1.27.37,1.2.73,2.65.88,3.27,1.44,2.11.75,4.06,1.47,5.94,2.18-.14.15-2.07-.82-2.06-.61,1.8.65,2.88.91,4.62,1.67.45.21-.29-.03-.45-.06,1.8.65,3.41,1.4,5.03,1.95-.01.01-.19-.04-.35-.09.31.12.71.32.71.23l-.31-.1c-.45-.32,1.33.26,1.41.22-.62.01,1.53.69.58.63.21.07.48.13.46.06.3.14.38.21.05.14,1.13.41.77.16,1.77.57-.02.04-.23-.03-.35-.03.54.13,1.08.27,1.92.64-.06,0,.03.07-.23-.03,1.47.58,2.57.81,4.14,1.54-.54-.03.52.28.55.45l.88.31-.32-.21c.75.31,1.46.48,2.09.79l-.59-.17,1.43.55-.78-.38c.79.24,0-.22.98.23-.21-.07.75.31,1.11.55,0,0,0,0,0,0,.39.11.8.21,1.34.48.13.1-.18.11-.1.18.42.03,1.78.68,2.3.75-.17-.03-.21.04-.16.08l.35.03c.34.17.38.21.3.25,1.04.44-.26-.32.96.27-.1-.03-.06,0-.27-.07,1.24.55,2.45.92,3.58,1.44.28.28-1.02-.37-.68-.09,1.67.65,3.51,1.22,5.1,1.91l-.29-.14c.31-.11,1.16.59,2.01.82-.21-.07-.31,0-.24,0,1.09.48,2.27.86,3.97,1.48l-.23-.03c.63.31,1.7.72,2.39,1.03.23.03.63.2.41.03,2.04,1.18,4.19,1.51,6,2.54-.23-.09-.57-.18-.38-.1l1.65.61c-.09-.14-.19-.14-.51-.35.23.03.71.18,1.11.34-.76-.24-.05.15.25.32-.04-.05.08-.03.06-.07.79.5.22-.12,1.34.46l-.08.02c.45.15.87.25,1.34.46.15.18-.48-.14-.55-.07.66.26,1.38.33,1.94.68-.29-.09-.7-.25-.99-.33.6.39.69.39,1.17.6l-.05-.02,1.1.51-.27-.15c.94.07,1.7.63,2.89.91-1.15-.27-.22.02-.35.11.27.15.69.36.55.34.56.12.85.43,1.65.59.02.05.56.23.4.28.7.25-.14-.13-.06-.15,1.11.3,2.42,1.16,4,1.6,1.34.46,1.63.43,2.87.86.39.23-.39,0-.39,0,.64.32,1.14.52,1.78.73-.14-.02-.02.06.15.18.5.19.39,0,1.03.32-.13,0-.3,0-.56-.05.6.2,1.21.37,1.84.58.14.13-.41-.05-.64-.09.7.25,1.8.66,2.05.64l-.42-.22c.25.1.09.14-.1.09-.62-.16-.83-.38-.85-.43l.44.15c-.36-.4-1.76-.67-2.63-1.04h.43s-.95-.24-.95-.24c-.17-.12-.27-.26.17-.11-.59-.33-.58-.17-1.08-.48-.05-.04-.02-.03.03-.02l-.63-.2c.13.02-.06-.15.31.02-1.06-.54-1.82-.6-2.19-.89l.1.03c-1.55-.56-.2.06-1.39-.27l-.65-.6-.2.06c-.16-.07-.46-.2-.39-.23-.62-.16.08.09-.29.03-.71-.41-2.11-.8-2.2-1.05-.31-.02.7.36-.14.1-.15-.3-.95-.34-1.6-.72.25-.02.89.3.23-.07-.49,0-1.33-.59-1.93-.79-.08.13-1.29-.46-2.29-.81.08-.02-1.81-.82-2.7-1.25h.04c-.23.06-1.16-.35-1.86-.6.06-.07.2-.06.58.06l-.64-.26c-.17-.02-.38-.07-.8-.23l.2-.04c-.86-.34-1.77-.58-2.85-1.09-.1.07.76.63-.43.22-.02-.07-.03-.18.29-.08-.1-.03-.37-.1-.57-.2l.5.1c-.49-.24-.29-.03-.69-.2.04-.07-.27-.17-.19-.21.11.03.34.17.5.21-.45-.2-.97-.46-1.13-.6.02.06-.04.1-.38-.02-.86-.34-.26-.21-.74-.45-.23-.03-.75-.31-.81-.2-.25-.1-.28-.17-.36-.24-.46-.13-2.07-.83-1.62-.5l.11.05s-.05-.02-.07-.02h0s0,0,0,0c-1.5-.48-2.99-1.29-4.45-1.82l.02-.04c-.88-.31-1.92-.75-2.57-.92-.25-.1-.57-.31-.44-.31-.67-.24-.76-.23-1.68-.67.69.2-.2-.15.7.23-.84-.38-1.01-.52-1.97-.79.35.03-.59-.38-1.01-.52l.57.31c-.46-.17-.86-.34-1.26-.51l.27-.04c-1.68-.87-3.26-1.01-4.48-1.82-.5-.1.92.45.47.39-.8-.34-1.56-.87-1.81-.97-1.07-.52-1.1-.23-2.24-.75.13.11.22.28-.66-.02-.8-.34-.91-.59-.39-.42.19.07.28.13.27.14.27.09.62.21.32.03h-.12c-.38-.21-1.49-.65-1.2-.62-.63-.2-.29-.03.15.18-1-.49-1.61-.66-2.66-1.13.16.09.29.21.12.14-1.53-.69-.72-.19-1.78-.6-.57-.31.28-.08-.8-.45-.63-.31-.09-.18.18-.11-1-.3-1.79-.79-2.33-1.03l.52.17c-.31-.1-.56-.2-.82-.31l.25.21c-.29-.14-.55-.24-.53-.28-.33-.07.17.25-.47.08-.38-.21-1.24-.44-1.32-.62,1.24.55-.09-.18.98.23-.21-.07-.46-.17-.75-.31-.04-.03.05,0,.14.02-1.16-.6-.61-.09-1.85-.6.19,0-.24-.25-.45-.31.5.21.19.21-.29.08-.78-.38-.88-.31-1.3-.49l.47.22c-.19,0-.58-.17-1.15-.37-.03-.07.52.17.33.06-.67-.13-1.35-.69-2.24-.96-.38-.21.01-.14-.32-.32-1-.3-1.01-.52-2.05-.86.26.21.32.21-.44,0l1.69.61-1.12-.3c.5.21,1.09.37,1.38.51-.54-.13-.48-.13-.27.04-.63-.42-1.4-.47-2.16-.89l.12-.22c-1.16-.59-2.17-.75-3.71-1.44l.48.24c-.25,0-.97-.38-1.48-.54.08-.06-.23-.21-.42-.35,0,.07-1.14-.47-1.34-.37l-.65-.38c-1.24-.55-1.52-.37-2.72-.88.4.06-.13-.21.7.06-.4-.16-.76-.33-.79-.28-.22-.14-1.16-.35-1.5-.57-.18-.04-.27.02-.72-.17-.04-.04.02-.04.02-.04-.02.04-.73-.24-.37,0-1.14-.74-3.48-1.39-4.47-2.03-.89-.33-1.96-.74-2.76-1.06.06,0,.02-.04.17.03-1.07-.52-.77-.06-1.99-.64-.59-.38.69.2.31,0-.07-.32-1.53-.58-2.31-1.07l.21.07c-.61-.35-1.61-.54-2.66-.99,0,0,.06,0,.02-.04-.77-.16-2.15-.68-3.18-1.05.35.03.48.14.33-.04-.46-.17.07.21-.85-.13-.27-.17-.91-.49-.95-.63l.86.34c-.38-.32-1.11-.44-1.55-.65l.08-.04c-1.32-.51-1.4-.37-2.8-.95l.13.1c-.83-.16-.61-.35-1.42-.55l-.17-.25c-.52-.17-1.84-.58-2.76-.92.56.1,1.65.47,2.34.67-.5-.21-1.72-.68-2.01-.71.21.07.48.13.67.24-.67-.13-1.5-.4-2.5-.81.3-.22-2.58-1.14-3.22-1.66-1.82-.61-3.5-1.48-5.58-2.3.64.53-.61-.24-.57.05-.49-.18-.67-.26-.71-.29l-1.4-.73c-.32-.21.48.13.46.06-1.05-.45-.4-.28-1.07-.63.11.14-.42-.03-1-.3l.8.45c-1.52-.47-1.19-.71-2.73-1.19l.5.12c-.78-.27-2.81-1.14-3.63-1.26-.12-.08-.28-.22.07-.1-1.81-.77-4.14-1.44-5.5-2.14h.16c-.35-.12-.64-.13-1.04-.36.03-.01.16,0,0-.07-.19-.05-.94-.27-1.38-.48l.41.09c-1.75-.8-2.79-.95-4.3-1.51.07-.17-1.3-.79-1.99-1.1h.03c-2.06-.87-3.57-1.3-5.51-2.01-1.11-.67-4-1.71-5.87-2.59.28.15-.1.11-.45,0-.43-.22-1.29-.39-1.15-.51l.16.07c-.28-.29-1.21-.62-1.93-.92l-.2.16c-1.76-1.06-4.98-1.89-5.9-2.58-.47-.13-1.04-.36-1.51-.49l.07-.1c-1.25-.54-1.87-.81-3.44-1.41l.35.05c-.87-.36-1.24-.14-2.05-.46l-.18-.26c-1.53-.62-3.02-1.39-4.6-1.86.03-.01.1-.04.35.05-.72-.3-2.74-1.24-2.57-.91.04-.15-1.57-.66-2.43-.93l.17-.06c-.75-.15-.79-.12-1.78-.48-.23-.11-.17-.17.13-.02-.75-.37-.64-.14-1.55-.58l.38.07c-.79-.33-.74-.27-1.21-.36-.52-.16-1.49-.64-1.57-.78-.13.02-.6-.08-1.05-.3-.05-.06.13-.02.22,0-1.29-.61-2.02-.67-2.89-1.15,0-.04-.06-.09-.13-.13,1.05.43,1.9.78,1.81.76.04-.1-.8-.46-.07-.32-.71-.2-1.94-.51-2.75-.9-.04-.03-.07-.05-.1-.08l.09.02c-.19-.09-.36-.15-.53-.2-.26-.12-.42-.2-.67-.31-.06-.12-.96-.44-1.38-.62,0,.12-.56-.12-.07.18-.06-.04.09.02.37.13.07.02.14.05.19.06,0,0-.02,0-.03,0,.28.11.64.25,1.06.42-.36-.08-.73-.18-1.17-.43-.25-.02-.51-.04-.66-.07-.52-.39-1.6-.92-1.72-1.08-1.32-.46-3.06-1.2-3.96-1.32-.38-.12-.4-.23-.52-.32.22.07.47.17.6.19-.76-.25-2.19-.86-2.42-.79-.9-.44.57.08-.71-.41l.19.03c-2.41-1.24-4.22-1.29-6.88-2.71.19.1.28.14.31.18-3.11-1.41-6.58-2.53-9.62-4-.87-.4-1-.35-1.57-.5l-.15-.19-.98-.24c-1.35-.44-2.16-1.21-3.9-1.7l.18.17c-.59-.26-1.91-.72-1.78-.77-.07-.01-.23,0-.45-.13v-.07s-1.5-.49-1.5-.49c-1.12-.51.28-.17-1.38-.86-.63-.23-1.83-.54-1.61-.4.25.1.62.3.61.36l-.58-.2c-.18.14-.68.14.65.83l1.01.28.28.21-.82-.32c.43.27.75.32,1.1.4.06.08.18.17.37.26l1.02.21c.09.12-.48-.03.14.26.48.1-.36-.33.39-.08.43.27.27.28.84.43.06.08-.07.06-.29,0,.51.14,1.29.5,1.57.5.44.3,1.64.64,1.52.79.17.02.9.21,1.35.38-.89-.13,1.65.69,1.35.82.67.06,2.2.8,3.3,1.13-.07,0-.19-.03-.28-.07.59.26.74.38,1.11.57.14-.12,1.08.22,1.62.33.67.44-.52,0-.34.23.01-.14,1.32.39,1.11.19.52.32.46.24.7.48.17-.15.53.18,1.05.25.77.42.14.26,1.05.57.4.23-.42-.03-.42-.03ZM1862.83,34.67s0,0,0,0c-.18-.07-.34-.13-.44-.17.09.04.22.08.44.17ZM1864.61,35.39c-.21-.09-.48-.2-.77-.32-.05-.06.04-.07.21,0-.11-.01.3.18.56.32ZM1861.15,33.11c.29.1.37.16.4.2-.13-.05-.29-.11-.5-.19,0,0-.03,0-.04,0,.04,0,.07-.02.13,0Z"/>
      <path class="cls-8" d="M1860.58,33.05s-.07-.02-.12-.04c.05.03.11.06.16.09.04,0,.08,0,.11,0-.05-.02-.1-.04-.15-.06Z"/>
      <path class="cls-8" d="M2021.88,98.72l-.04-.02s.06.03.07.05c-.02-.02-.02-.02-.04-.03Z"/>
      <polygon class="cls-8" points="1889.11 45.58 1889.11 45.55 1888.95 45.51 1889.11 45.58"/>
      <path class="cls-8" d="M2031.54,103.07s.05.04.12.08c0,0-.05-.04-.12-.08Z"/>
      <path class="cls-8" d="M2035.76,104.82l.58.28c-.25-.13-.43-.21-.58-.28Z"/>
      <path class="cls-8" d="M2038.99,106.19s.07-.01.08-.02c0,0,0,0,0,0l-.08.02Z"/>
      <path class="cls-8" d="M1987.17,85.3s-.09-.03-.13-.05c-.3-.1-.1-.03.13.05Z"/>
      <path class="cls-8" d="M2002.68,91.3c-.17-.05-.34-.09-.52-.15.27.12.48.21.52.15Z"/>
      <path class="cls-8" d="M1969.91,78.45s0,0,0,0c-.04-.01-.07-.03-.11-.04l.1.04Z"/>
      <path class="cls-8" d="M2001.45,90.86c.27.13.5.22.72.29-.22-.1-.48-.22-.72-.29Z"/>
      <path class="cls-8" d="M2053.09,111.97l.16.07s.01-.01.03,0l-.18-.06Z"/>
      <path class="cls-8" d="M2053.27,112.03l.18.06c-.08-.03-.15-.06-.18-.06Z"/>
      <path class="cls-8" d="M2053.83,112.21l-.38-.12c.13.05.28.12.38.12Z"/>
      <path class="cls-8" d="M2048.8,110.17l-.07.02s.05,0,.07-.02Z"/>
      <path class="cls-8" d="M2047.48,109.65c.31.14.75.4,1.2.55h.05c-.23-.04-.93-.5-1.25-.55Z"/>
      <path class="cls-8" d="M2042.21,106.95l1.08.48c-.17-.12-.4-.28.1-.09-1.33-.69.25.21-1.18-.39Z"/>
      <path class="cls-8" d="M2038.83,105.5c.6.22.02-.06.06-.07-.39-.11-.48-.14-.06.07Z"/>
      <path class="cls-8" d="M2014.24,95.52l.1-.07c-.46-.17-.02.04-.1.07Z"/>
      <polygon class="cls-8" points="2009.33 94.12 2009.75 94.36 2009.99 94.35 2009.33 94.12"/>
      <polygon class="cls-8" points="2006.84 92.29 2007.04 92.36 2006.27 92.08 2006.84 92.29"/>
      <path class="cls-8" d="M1965.51,75.55l.09.18c.32.1.44,0-.09-.18Z"/>
      <path class="cls-8" d="M1947.63,68.44c-.17-.14-.66-.38-.99-.45.4.17.78.38.99.45Z"/>
      <polygon class="cls-8" points="1894.23 46.53 1894.6 46.63 1893.92 46.39 1894.23 46.53"/>
    </g>
    <g>
      <path class="cls-8" d="M2043.91,146.04c.14.02.1-.09-.25-.21l-.29.03.54.18Z"/>
      <path class="cls-8" d="M2041.71,144.87c-.43-.1-.93-.18-.72.04.45.04.52.13,1.01.16.35.12.58.28.5.31.13.02.52.24.74.24-.4-.28-.97-.51-1.59-.67-.11-.08.02-.06.06-.07Z"/>
      <path class="cls-8" d="M2008.43,131.13l.21.1c-.06-.03-.13-.07-.21-.1Z"/>
      <path class="cls-8" d="M1987.79,122.67c.16.06.23.07.24.07-.15-.05-.27-.09-.24-.07Z"/>
      <path class="cls-8" d="M1984.32,121.1c.07.03.14.06.2.09-.07-.04-.15-.08-.2-.09Z"/>
      <path class="cls-8" d="M2008.43,131.13l-.54-.26c-.06.03.27.15.54.26Z"/>
      <path class="cls-8" d="M2036.98,143.31c.12.04.22.07.31.09-.1-.03-.19-.07-.29-.1,0,0-.01,0-.03.01Z"/>
      <path class="cls-8" d="M2017.58,134.73l.17.07c.06,0,.11,0,.16,0l-.33-.07Z"/>
      <path class="cls-8" d="M2024.58,137.55c-.16-.07-.26.02-.33.04.11,0,.23.02.38.07.01-.02,0-.05-.04-.11Z"/>
      <path class="cls-8" d="M2035.59,142.24l.2.07c-.05-.02-.14-.05-.2-.07Z"/>
      <path class="cls-8" d="M2012.59,132.67s-.02-.05-.05-.06c0,.01.01.04.05.06Z"/>
      <path class="cls-8" d="M1816.69,54.09s0-.01,0-.02c-.05,0-.06,0,0,.02Z"/>
      <path class="cls-8" d="M1808.8,50.26l.11.04s.04-.03.05-.05h-.16Z"/>
      <path class="cls-8" d="M1977.92,118.34s.02,0,.03.01c.17.06.08.02-.03-.01Z"/>
      <path class="cls-8" d="M1918.6,94.35c.63.37-1.14-.32-.18.2-.08-.08.99.2.18-.2Z"/>
      <path class="cls-8" d="M2036.81,143.23c-.09-.04-.19-.08-.29-.12.13.06.22.09.29.12Z"/>
      <path class="cls-8" d="M1918.42,94.55s0,0,0,0l.1.05s-.06-.03-.1-.05Z"/>
      <path class="cls-8" d="M1963.01,112.36s.08.07.13.11c0-.01-.03-.04-.13-.11Z"/>
      <path class="cls-8" d="M1974.03,117.02l-.27-.13c.1.05.19.09.27.13Z"/>
      <path class="cls-8" d="M1957.19,110.18c-.15-.07-.19-.1-.4-.17.02.01.03.02.06.04.08.02.18.05.34.13Z"/>
      <path class="cls-8" d="M1951.2,107.75s.07.04.1.07c.06.02.13.05.19.07l-.29-.14Z"/>
      <path class="cls-8" d="M1834.92,61.43c-.12-.08-.19-.15-.24-.21.06.11-.83-.22.24.21Z"/>
      <path class="cls-8" d="M2037,143.25s-.1,0-.2-.03c.07.03.14.05.2.08.02,0,.03-.02,0-.05Z"/>
      <path class="cls-8" d="M1956.6,110.93l-.95-.4c.26.12.61.26.95.4Z"/>
      <path class="cls-8" d="M1877.9,78.86l-.22-.08c.08.04.16.06.22.08Z"/>
      <path class="cls-8" d="M1952.83,109.4c-.15-.11-.33-.2-.51-.29-.04,0-.09-.02-.12-.02l.63.31Z"/>
      <path class="cls-8" d="M1834.68,61.21s0,0,0,0c0,0,0,0,0,0Z"/>
      <path class="cls-8" d="M1828.31,58.93c.91.37.48.03.71.03,1.1.4.46.31.8.53.69.24,1.26.32,1.76.53.03.04.12.09,0,.07.76.18,2.12.86,3.01,1.05.06.04.08.06.09.08-.11-.13-.1-.21-.05-.25.41.16.79.22.91.37-.25-.1-.28-.07-.41-.09l.44.13c.33.29-.6-.19-.64-.09.85.29,1.86.58,2.48.87.08.18-1.51-.56-.7-.1l-.96-.45c.67.51-.59-.26,0,.24,1.28.56,1.48.52,2.75,1.09.32.05-.05-.15.27-.1,1.89.62,1.31.92,2.73,1.29.39.05.59-.06,1.51.42h-.39c1.25.54.8.09,2.08.73-.26-.04-1.01-.35-.82-.26.8.46.64.16,1.29.43l.08.19c1.34.52,2.85,1.02,4.34,1.6-.1,0-.37-.06-.04.12,1.89.69,3.98,1.63,5.75,2.44l.73.17c.16.07.28.17.09.12.68.33.07-.06.42.04.4.15.5.28.23.21,1.28.41,3.61,1.23,4.87,1.88l-.27-.07c1,.46,1.24.23,2.14.72l-.19-.05c2.18.94,4.66,1.83,6.28,2.68.39-.03,2.15.96,2.39.79,1.21.62.84.52,2.58,1.31.47.2.76.14,1.36.36l-.03.12.85.2.37.31.56.19c-.22-.1-.44-.24-.4-.26.88.29,2.06.93,2.05,1l2.07.72c-.06.03-.41-.09-.69-.17,1.13.32.15.2,1.18.5-.12-.08.1-.04.13-.06.47.27,1.59.73,2.44,1.04l-.19.02c1.5.63,3.19,1.25,4.88,1.94-.59-.28-.39-.37.11-.18l.15.21c.35.05-.5-.26.2-.09.62.27.37.31-.01.21l.78.27c.03.06-.16,0-.22.03.35.05,1.27.66,1.78.71l.03.05c1.69.69,2.47.95,3.85,1.51.07-.1.6.15,1.04.22,1,.44,2.08.99,3.31,1.47.88.29.29,0,.7.1.02.12,1.24.61.58.42,1.47.58,1.87.74,3.76,1.41-.18-.12-.4-.23-.27-.22.34.12.75.35.68.38l-.09-.03c2.14.69,4.67,2.23,6.41,2.7l-.1-.03,1.76.59c.78.34-.5-.12.06.18,1.92.59,2.91,1.21,4.48,1.72,1.06.77,4.19,1.68,5.7,2.51l-.06-.11c.44.1.48.24.78.38-.02-.07-.42-.24-.15-.18,3.52,1.33,7.15,3.02,10.69,4.53,1.3.55.88-.05,2.46.78l-.52-.06c2.7.92,5.39,2.19,8.02,3.11-.17-.03-.19,0-.44-.1.51.31,2.01.82,2.05.75.4.17.07.11.3.24.52.28,1.42.44,1.67.65.04.03-.17-.03-.27-.07.37.1,1.65.69,1.36.44.95.44,1.87.7,2.62,1.08.55.09,1.63.73,1.86.63-.14.15,1.64.83,2.29,1-.23-.03.51.27.24.25.7.28,1.35.51,1.27.37,1.2.73,2.65.88,3.27,1.44,2.11.75,4.06,1.47,5.94,2.18-.14.15-2.07-.82-2.06-.61,1.8.65,2.88.91,4.62,1.67.44.21-.29-.03-.45-.06,1.8.65,3.41,1.4,5.03,1.95-.01.01-.19-.04-.35-.09.31.12.71.32.71.23l-.31-.1c-.45-.32,1.33.26,1.41.22-.62.01,1.53.69.58.63.21.07.48.13.46.06.3.14.38.21.05.14,1.13.41.77.16,1.77.57-.02.04-.23-.03-.35-.03.54.13,1.08.27,1.92.64-.06,0,.03.07-.23-.03,1.47.58,2.57.81,4.14,1.54-.54-.03.52.28.55.45l.88.31-.32-.21c.75.31,1.46.48,2.09.79l-.59-.17,1.43.55-.78-.38c.79.24,0-.22.98.23-.21-.07.75.31,1.11.55,0,0,0,0,0,0,.39.11.8.21,1.34.48.13.1-.18.11-.1.18.42.03,1.78.68,2.3.75-.17-.03-.21.04-.16.08l.35.03c.34.17.38.21.3.25,1.04.44-.26-.32.96.27-.1-.03-.06,0-.27-.07,1.24.55,2.45.92,3.58,1.44.28.28-1.02-.37-.68-.09,1.67.65,3.51,1.22,5.1,1.91l-.29-.14c.31-.11,1.16.59,2.01.82-.21-.07-.31,0-.24,0,1.09.48,2.27.86,3.97,1.48l-.23-.03c.63.31,1.7.72,2.39,1.03.23.03.63.2.41.03,2.04,1.18,4.19,1.51,6,2.54-.23-.09-.57-.18-.38-.1l1.65.61c-.09-.14-.19-.14-.51-.35.23.03.71.18,1.11.34-.76-.24-.05.15.25.32-.04-.05.08-.03.06-.07.79.5.22-.12,1.34.46l-.08.02c.45.15.87.25,1.34.46.15.18-.48-.14-.55-.07.66.26,1.38.33,1.94.68-.29-.09-.7-.25-.99-.33.6.39.69.39,1.17.6l-.05-.02,1.1.51-.27-.15c.94.07,1.7.63,2.89.91-1.15-.27-.22.02-.35.11.27.15.69.36.55.34.56.12.85.43,1.65.59.02.05.56.23.4.28.7.25-.14-.13-.06-.15,1.11.3,2.42,1.16,4,1.6,1.34.46,1.63.43,2.87.86.39.23-.39,0-.39,0,.64.32,1.14.52,1.78.73-.14-.02-.02.06.15.18.5.19.39,0,1.03.32-.13,0-.3,0-.56-.05.6.2,1.21.37,1.84.58.14.13-.41-.05-.64-.09.7.25,1.8.66,2.05.64l-.42-.22c.25.1.09.14-.1.09-.62-.16-.83-.38-.85-.43l.44.15c-.36-.4-1.76-.67-2.63-1.04h.43s-.95-.24-.95-.24c-.17-.12-.27-.26.17-.11-.59-.33-.58-.17-1.08-.48-.05-.04-.02-.03.03-.02l-.63-.2c.13.02-.06-.15.31.02-1.06-.54-1.82-.6-2.19-.89l.1.03c-1.55-.56-.2.06-1.39-.27l-.65-.6-.2.06c-.16-.07-.46-.2-.39-.23-.62-.16.08.09-.29.03-.71-.41-2.11-.8-2.2-1.05-.31-.02.7.36-.14.1-.15-.3-.95-.34-1.6-.72.25-.02.89.3.23-.07-.49,0-1.33-.59-1.93-.79-.08.13-1.29-.46-2.29-.81.08-.02-1.81-.82-2.7-1.25h.04c-.23.06-1.16-.35-1.86-.6.06-.07.2-.06.58.06l-.64-.26c-.17-.02-.38-.07-.8-.23l.2-.04c-.86-.34-1.77-.58-2.85-1.09-.1.07.76.63-.43.22-.02-.07-.03-.18.29-.08-.1-.03-.37-.1-.57-.2l.5.1c-.49-.24-.29-.03-.69-.2.04-.07-.27-.17-.19-.21.11.03.34.17.5.21-.45-.2-.97-.46-1.13-.6.02.06-.04.1-.38-.02-.86-.34-.26-.21-.74-.45-.23-.03-.75-.31-.81-.2-.25-.1-.28-.17-.36-.24-.46-.13-2.07-.83-1.62-.5l.11.05s-.05-.02-.07-.02h0s0,0,0,0c-1.5-.48-2.99-1.29-4.45-1.82l.02-.04c-.88-.31-1.92-.75-2.57-.92-.25-.1-.57-.31-.44-.31-.67-.24-.76-.23-1.68-.67.69.2-.2-.15.7.23-.84-.38-1.01-.52-1.97-.79.35.03-.59-.38-1.01-.52l.57.31c-.46-.17-.86-.34-1.26-.51l.27-.04c-1.68-.87-3.26-1.01-4.48-1.82-.5-.1.92.45.47.39-.8-.34-1.56-.87-1.81-.97-1.07-.52-1.1-.23-2.24-.75.13.11.22.28-.66-.02-.8-.34-.91-.59-.39-.42.19.07.28.13.27.14.27.09.62.21.32.03h-.12c-.38-.21-1.49-.65-1.2-.62-.63-.2-.29-.03.15.18-1.01-.49-1.61-.66-2.66-1.13.16.09.29.21.12.14-1.53-.69-.72-.19-1.78-.6-.57-.31.28-.08-.8-.45-.63-.31-.09-.18.18-.11-1-.3-1.79-.79-2.33-1.03l.52.17c-.31-.1-.56-.2-.82-.31l.25.21c-.29-.14-.55-.24-.53-.28-.33-.07.17.25-.47.08-.38-.21-1.24-.44-1.32-.62,1.24.55-.09-.18.98.23-.21-.07-.46-.17-.75-.31-.04-.03.05,0,.14.02-1.16-.6-.61-.09-1.85-.6.19,0-.24-.25-.45-.31.5.21.19.21-.29.08-.78-.38-.88-.31-1.3-.49l.47.22c-.19,0-.58-.17-1.15-.37-.03-.07.52.17.33.06-.67-.13-1.35-.69-2.24-.96-.38-.21.01-.14-.32-.32-1-.3-1.01-.52-2.05-.86.26.21.32.21-.44,0l1.69.61-1.12-.3c.5.21,1.09.37,1.38.51-.54-.13-.48-.13-.27.04-.63-.42-1.4-.47-2.16-.89l.12-.22c-1.16-.59-2.17-.75-3.71-1.44l.48.24c-.25,0-.97-.38-1.48-.54.08-.06-.23-.21-.42-.35,0,.07-1.14-.47-1.34-.37l-.65-.38c-1.24-.55-1.52-.37-2.72-.88.4.06-.13-.21.7.06-.4-.16-.76-.33-.79-.28-.22-.14-1.16-.35-1.5-.57-.18-.04-.27.02-.72-.17-.04-.04.02-.04.02-.04-.02.04-.73-.24-.37,0-1.14-.74-3.48-1.39-4.47-2.03-.89-.33-1.96-.74-2.76-1.06.06,0,.02-.04.17.03-1.07-.52-.77-.06-1.99-.64-.59-.38.69.2.31,0-.07-.32-1.53-.58-2.31-1.07l.21.07c-.61-.35-1.61-.54-2.66-.99,0,0,.06,0,.02-.04-.77-.16-2.15-.68-3.18-1.05.35.03.48.14.33-.04-.46-.17.07.21-.85-.13-.27-.17-.91-.49-.95-.63l.86.34c-.38-.32-1.11-.44-1.55-.65l.08-.04c-1.32-.51-1.4-.37-2.8-.95l.13.1c-.83-.16-.61-.35-1.42-.55l-.17-.25c-.52-.17-1.84-.58-2.76-.92.56.1,1.65.47,2.34.67-.5-.21-1.72-.68-2.01-.71.21.07.48.13.67.24-.67-.13-1.5-.4-2.5-.81.3-.22-2.58-1.14-3.22-1.66-1.82-.61-3.5-1.48-5.58-2.3.64.53-.61-.24-.57.05-.49-.18-.67-.26-.71-.29l-1.4-.73c-.32-.21.48.13.46.06-1.05-.45-.4-.28-1.07-.63.11.14-.42-.03-1-.3l.8.45c-1.52-.47-1.19-.71-2.73-1.19l.5.12c-.78-.27-2.81-1.14-3.63-1.26-.12-.08-.28-.22.07-.1-1.81-.77-4.14-1.44-5.5-2.14h.16c-.35-.12-.64-.13-1.04-.36.03-.01.16,0,0-.07-.19-.05-.94-.27-1.38-.48l.41.09c-1.75-.8-2.79-.95-4.3-1.51.07-.17-1.3-.79-1.99-1.1h.03c-2.06-.87-3.57-1.3-5.51-2.01-1.11-.67-4-1.71-5.87-2.59.28.15-.1.11-.45,0-.43-.22-1.29-.39-1.15-.51l.16.07c-.28-.29-1.21-.62-1.93-.92l-.2.16c-1.76-1.06-4.98-1.89-5.9-2.58-.47-.13-1.04-.36-1.51-.49l.07-.1c-1.25-.54-1.87-.81-3.44-1.41l.35.05c-.87-.36-1.24-.14-2.05-.46l-.18-.26c-1.53-.62-3.02-1.39-4.6-1.86.03-.01.1-.04.35.05-.72-.3-2.74-1.24-2.57-.91.04-.15-1.57-.66-2.43-.93l.17-.06c-.75-.15-.79-.12-1.78-.48-.23-.11-.17-.17.13-.02-.75-.37-.64-.14-1.55-.58l.38.07c-.79-.33-.74-.27-1.21-.36-.52-.16-1.49-.64-1.57-.78-.13.02-.6-.08-1.05-.3-.05-.06.13-.02.22,0-1.29-.61-2.02-.67-2.89-1.15,0-.04-.06-.09-.13-.13,1.05.43,1.9.78,1.81.76.04-.1-.8-.46-.07-.32-.71-.2-1.94-.51-2.75-.9-.04-.03-.07-.05-.1-.08l.09.02c-.19-.09-.36-.15-.53-.2-.26-.12-.42-.2-.67-.31-.06-.12-.96-.44-1.38-.62,0,.12-.56-.12-.07.18-.06-.04.09.02.37.13.06.02.14.05.19.06,0,0-.02,0-.03,0,.28.11.64.25,1.06.42-.36-.08-.73-.18-1.17-.43-.25-.02-.51-.04-.66-.07-.52-.39-1.6-.92-1.72-1.08-1.32-.46-3.06-1.2-3.96-1.32-.38-.12-.4-.23-.52-.32.22.07.47.17.6.19-.76-.25-2.19-.86-2.42-.79-.9-.44.57.08-.71-.41l.19.03c-2.41-1.24-4.22-1.29-6.88-2.71.19.1.28.14.31.18-3.11-1.41-6.58-2.53-9.62-4-.87-.4-1-.35-1.57-.5l-.15-.19-.98-.24c-1.35-.44-2.16-1.21-3.9-1.7l.18.17c-.59-.26-1.91-.72-1.78-.77-.07-.01-.23,0-.45-.13v-.07s-1.5-.49-1.5-.49c-1.12-.51.28-.17-1.38-.86-.63-.23-1.83-.54-1.61-.4.25.1.62.3.62.36l-.58-.2c-.18.14-.68.14.65.83l1.01.28.28.21-.82-.32c.43.27.75.32,1.1.4.06.08.18.17.37.26l1.02.21c.09.12-.48-.03.14.26.48.1-.36-.33.39-.08.43.27.27.28.84.43.06.08-.07.06-.29,0,.51.14,1.29.5,1.57.5.44.3,1.64.64,1.52.79.17.02.9.21,1.35.38-.89-.13,1.65.69,1.35.82.67.06,2.2.8,3.3,1.13-.07,0-.19-.03-.28-.07.59.26.74.38,1.11.57.14-.12,1.08.22,1.62.33.67.44-.52,0-.34.23.01-.14,1.32.39,1.11.19.52.32.47.24.7.48.17-.15.53.18,1.05.25.77.42.14.26,1.05.57.4.23-.42-.03-.42-.03ZM1849.62,67.2s0,0,0,0c-.18-.07-.34-.13-.44-.17.09.04.22.08.44.17ZM1851.4,67.92c-.21-.09-.48-.2-.77-.32-.05-.06.04-.07.21,0-.11-.01.3.18.56.32ZM1847.94,65.64c.29.1.37.16.4.2-.13-.05-.29-.11-.5-.19,0,0-.03,0-.04,0,.04,0,.07-.02.13,0Z"/>
      <path class="cls-8" d="M1847.38,65.58s-.07-.02-.12-.04c.05.03.11.06.16.09.04,0,.08,0,.11,0-.05-.02-.1-.04-.15-.06Z"/>
      <path class="cls-8" d="M2008.67,131.25l-.04-.02s.06.03.07.05c-.02-.02-.02-.02-.04-.03Z"/>
      <polygon class="cls-8" points="1875.9 78.11 1875.91 78.08 1875.74 78.04 1875.9 78.11"/>
      <path class="cls-8" d="M2018.33,135.6s.05.04.12.08c0,0-.05-.04-.12-.08Z"/>
      <path class="cls-8" d="M2022.55,137.35l.58.28c-.25-.13-.43-.21-.58-.28Z"/>
      <path class="cls-8" d="M2025.79,138.72s.07-.01.08-.02c0,0,0,0,0,0l-.08.02Z"/>
      <path class="cls-8" d="M1973.96,117.83s-.09-.03-.13-.05c-.3-.1-.1-.03.13.05Z"/>
      <path class="cls-8" d="M1989.47,123.83c-.17-.05-.34-.09-.52-.15.27.12.48.21.52.15Z"/>
      <path class="cls-8" d="M1956.71,110.98s0,0,0,0c-.04-.01-.07-.03-.11-.04l.1.04Z"/>
      <path class="cls-8" d="M1988.24,123.39c.27.13.5.22.72.29-.22-.1-.48-.22-.72-.29Z"/>
      <path class="cls-8" d="M2039.88,144.5l.16.07s.01-.01.03,0l-.18-.06Z"/>
      <path class="cls-8" d="M2040.06,144.56l.18.06c-.08-.03-.15-.06-.18-.06Z"/>
      <path class="cls-8" d="M2040.62,144.74l-.38-.12c.13.05.28.12.38.12Z"/>
      <path class="cls-8" d="M2035.59,142.7l-.07.02s.05,0,.07-.02Z"/>
      <path class="cls-8" d="M2034.28,142.18c.31.14.75.4,1.2.55h.05c-.23-.04-.93-.5-1.25-.55Z"/>
      <path class="cls-8" d="M2029.01,139.48l1.08.48c-.17-.12-.4-.28.1-.09-1.33-.69.25.21-1.18-.39Z"/>
      <path class="cls-8" d="M2025.63,138.03c.6.22.02-.06.06-.07-.39-.11-.48-.14-.06.07Z"/>
      <path class="cls-8" d="M2001.03,128.05l.1-.07c-.46-.17-.02.04-.1.07Z"/>
      <polygon class="cls-8" points="1996.12 126.65 1996.54 126.89 1996.79 126.88 1996.12 126.65"/>
      <polygon class="cls-8" points="1993.63 124.82 1993.83 124.89 1993.06 124.61 1993.63 124.82"/>
      <path class="cls-8" d="M1952.31,108.08l.09.18c.32.1.44,0-.09-.18Z"/>
      <path class="cls-8" d="M1934.42,100.97c-.17-.14-.66-.38-.99-.45.4.17.78.38.99.45Z"/>
      <polygon class="cls-8" points="1881.02 79.06 1881.4 79.16 1880.71 78.92 1881.02 79.06"/>
    </g>
    <g>
      <path class="cls-8" d="M2030.7,178.57c.14.02.1-.09-.25-.21l-.29.03.54.18Z"/>
      <path class="cls-8" d="M2028.5,177.4c-.43-.1-.93-.18-.72.04.45.04.52.13,1.01.16.35.12.58.28.5.31.13.02.52.24.74.24-.4-.28-.97-.51-1.59-.67-.11-.08.02-.06.06-.07Z"/>
      <path class="cls-8" d="M1995.22,163.66l.21.1c-.06-.03-.13-.07-.21-.1Z"/>
      <path class="cls-8" d="M1974.58,155.2c.16.06.23.07.24.07-.15-.05-.27-.09-.24-.07Z"/>
      <path class="cls-8" d="M1971.11,153.63c.07.03.14.06.2.09-.07-.04-.15-.08-.2-.09Z"/>
      <path class="cls-8" d="M1995.22,163.66l-.54-.26c-.06.03.27.15.54.26Z"/>
      <path class="cls-8" d="M2023.77,175.84c.12.04.22.07.31.09-.1-.03-.19-.07-.29-.1,0,0-.01,0-.03.01Z"/>
      <path class="cls-8" d="M2004.38,167.26l.17.07c.06,0,.11,0,.16,0l-.33-.07Z"/>
      <path class="cls-8" d="M2011.37,170.08c-.16-.07-.26.02-.33.04.11,0,.23.02.38.07.01-.02,0-.05-.04-.11Z"/>
      <path class="cls-8" d="M2022.38,174.77l.2.07c-.05-.02-.14-.05-.2-.07Z"/>
      <path class="cls-8" d="M1999.38,165.2s-.02-.05-.05-.06c0,.01.01.04.05.06Z"/>
      <path class="cls-8" d="M1803.48,86.62s0-.01,0-.02c-.05,0-.06,0,0,.02Z"/>
      <path class="cls-8" d="M1795.6,82.79l.11.04s.04-.03.05-.05h-.16Z"/>
      <path class="cls-8" d="M1964.71,150.87s.02,0,.03.01c.17.06.08.02-.03-.01Z"/>
      <path class="cls-8" d="M1905.39,126.88c.63.37-1.14-.32-.18.2-.08-.08.99.2.18-.2Z"/>
      <path class="cls-8" d="M2023.6,175.76c-.09-.04-.19-.08-.29-.12.13.06.22.09.29.12Z"/>
      <path class="cls-8" d="M1905.22,127.08s0,0,0,0l.1.05s-.06-.03-.1-.05Z"/>
      <path class="cls-8" d="M1949.8,144.89s.08.07.13.11c0-.01-.03-.04-.13-.11Z"/>
      <path class="cls-8" d="M1960.83,149.55l-.27-.13c.1.05.19.09.27.13Z"/>
      <path class="cls-8" d="M1943.99,142.71c-.15-.07-.19-.1-.4-.17.02.01.03.02.06.04.08.02.18.05.34.13Z"/>
      <path class="cls-8" d="M1938,140.28s.07.04.1.07c.06.02.13.05.19.07l-.29-.14Z"/>
      <path class="cls-8" d="M1821.71,93.96c-.12-.08-.19-.15-.24-.21.06.11-.83-.22.24.21Z"/>
      <path class="cls-8" d="M2023.8,175.78s-.1,0-.2-.03c.07.03.14.05.2.08.02,0,.03-.02,0-.05Z"/>
      <path class="cls-8" d="M1943.4,143.46l-.95-.4c.26.12.61.26.95.4Z"/>
      <path class="cls-8" d="M1864.69,111.39l-.22-.08c.08.04.16.06.22.08Z"/>
      <path class="cls-8" d="M1939.62,141.93c-.15-.11-.33-.2-.51-.29-.04,0-.09-.02-.12-.02l.63.31Z"/>
      <path class="cls-8" d="M1821.47,93.74s0,0,0,0c0,0,0,0,0,0Z"/>
      <path class="cls-8" d="M1815.1,91.46c.91.37.48.03.71.03,1.1.4.46.31.8.53.69.24,1.26.32,1.76.53.03.04.12.09,0,.07.76.18,2.12.86,3.01,1.05.06.04.08.06.09.08-.11-.13-.1-.21-.05-.25.41.16.79.22.91.37-.25-.1-.28-.07-.41-.09l.44.13c.33.29-.6-.19-.64-.09.85.29,1.86.58,2.48.87.08.18-1.51-.56-.7-.1l-.96-.45c.67.51-.59-.26,0,.24,1.28.56,1.48.52,2.75,1.09.32.05-.05-.15.27-.1,1.89.62,1.31.92,2.73,1.29.39.05.59-.06,1.51.42h-.39c1.25.54.8.09,2.08.73-.26-.04-1.01-.35-.82-.26.8.46.64.16,1.29.43l.08.19c1.34.52,2.85,1.02,4.34,1.6-.1,0-.37-.06-.04.12,1.89.69,3.98,1.63,5.75,2.44l.73.17c.16.07.28.17.09.12.68.33.07-.06.42.04.4.15.5.28.23.21,1.28.41,3.61,1.23,4.87,1.88l-.27-.07c1,.46,1.24.23,2.14.72l-.19-.05c2.18.94,4.66,1.83,6.28,2.68.39-.03,2.15.96,2.39.79,1.21.62.84.52,2.58,1.31.47.2.76.14,1.36.36l-.03.12.85.2.37.31.56.19c-.22-.1-.44-.24-.4-.26.88.29,2.06.93,2.05,1l2.07.72c-.06.03-.41-.09-.69-.17,1.13.32.15.2,1.18.5-.12-.08.1-.04.13-.06.47.27,1.59.73,2.44,1.04l-.19.02c1.5.63,3.19,1.25,4.88,1.94-.59-.28-.39-.37.11-.18l.15.21c.35.05-.5-.26.2-.09.62.27.37.31-.01.21l.78.27c.03.06-.16,0-.22.03.35.05,1.27.66,1.78.71l.03.05c1.69.69,2.47.95,3.85,1.51.07-.1.6.15,1.04.22,1,.44,2.08.99,3.31,1.47.88.29.29,0,.7.1.02.12,1.24.61.58.42,1.47.58,1.88.74,3.76,1.41-.18-.12-.4-.23-.27-.22.34.12.75.35.68.38l-.09-.03c2.13.69,4.67,2.23,6.41,2.7l-.1-.03,1.76.59c.78.34-.5-.12.06.18,1.92.59,2.91,1.21,4.48,1.72,1.06.77,4.19,1.68,5.7,2.51l-.06-.11c.44.1.48.24.78.38-.02-.07-.42-.24-.15-.18,3.52,1.33,7.15,3.02,10.69,4.53,1.3.55.88-.05,2.46.78l-.52-.06c2.7.92,5.39,2.19,8.02,3.11-.17-.03-.19,0-.44-.1.51.31,2.01.82,2.05.75.4.17.07.11.3.24.52.28,1.42.44,1.67.65.04.03-.17-.03-.27-.07.37.1,1.65.69,1.36.44.95.44,1.87.7,2.62,1.08.55.09,1.63.73,1.86.63-.14.15,1.64.83,2.29,1-.23-.03.51.27.24.25.7.28,1.35.51,1.27.37,1.2.73,2.65.88,3.27,1.44,2.11.75,4.06,1.47,5.94,2.18-.14.15-2.07-.82-2.06-.61,1.8.65,2.88.91,4.62,1.67.44.21-.29-.03-.45-.06,1.8.65,3.41,1.4,5.03,1.95-.01.01-.19-.04-.35-.09.31.12.71.32.71.23l-.31-.1c-.45-.32,1.33.26,1.41.22-.62.01,1.53.69.58.63.21.07.48.13.46.06.3.14.38.21.05.14,1.13.41.77.16,1.77.57-.02.04-.23-.03-.35-.03.54.13,1.08.27,1.92.64-.06,0,.03.07-.23-.03,1.47.58,2.57.81,4.14,1.54-.54-.03.52.28.55.45l.88.31-.32-.21c.75.31,1.46.48,2.09.79l-.59-.17,1.43.55-.78-.38c.79.24,0-.22.98.23-.21-.07.75.31,1.11.55,0,0,0,0,0,0,.39.11.8.21,1.34.48.13.1-.18.11-.1.18.42.03,1.78.68,2.3.75-.17-.03-.21.04-.16.08l.35.03c.34.17.38.21.3.25,1.04.44-.26-.32.96.27-.1-.03-.06,0-.27-.07,1.24.55,2.45.92,3.58,1.44.28.28-1.02-.37-.68-.09,1.67.65,3.51,1.22,5.1,1.91l-.29-.14c.31-.11,1.16.59,2.01.82-.21-.07-.31,0-.24,0,1.09.48,2.27.86,3.97,1.48l-.23-.03c.63.31,1.7.72,2.39,1.03.23.03.63.2.41.03,2.04,1.18,4.19,1.51,6,2.54-.23-.09-.57-.18-.38-.1l1.65.61c-.09-.14-.19-.14-.51-.35.23.03.71.18,1.11.34-.76-.24-.05.15.25.32-.04-.05.08-.03.06-.07.79.5.22-.12,1.34.46l-.08.02c.45.15.87.25,1.34.46.15.18-.48-.14-.55-.07.66.26,1.38.33,1.94.68-.29-.09-.7-.25-.99-.33.6.39.69.39,1.17.6l-.05-.02,1.1.51-.27-.15c.94.07,1.7.63,2.89.91-1.15-.27-.22.02-.35.11.27.15.69.36.55.34.56.12.85.43,1.65.59.02.05.56.23.4.28.7.25-.14-.13-.06-.15,1.11.3,2.42,1.16,4,1.6,1.34.46,1.63.43,2.87.86.39.23-.39,0-.39,0,.64.32,1.14.52,1.78.73-.14-.02-.02.06.15.18.5.19.39,0,1.03.32-.13,0-.3,0-.56-.05.6.2,1.21.37,1.84.58.14.13-.41-.05-.64-.09.7.25,1.8.66,2.05.64l-.42-.22c.25.1.09.14-.1.09-.62-.16-.83-.38-.85-.43l.44.15c-.36-.4-1.76-.67-2.63-1.04h.43s-.95-.24-.95-.24c-.17-.12-.27-.26.17-.11-.59-.33-.58-.17-1.08-.48-.05-.04-.02-.03.03-.02l-.63-.2c.13.02-.06-.15.31.02-1.06-.54-1.82-.6-2.19-.89l.1.03c-1.55-.56-.2.06-1.39-.27l-.65-.6-.2.06c-.16-.07-.46-.2-.39-.23-.62-.16.08.09-.29.03-.71-.41-2.11-.8-2.2-1.05-.31-.02.7.36-.14.1-.15-.29-.95-.34-1.6-.72.25-.02.89.3.23-.07-.49,0-1.33-.59-1.93-.79-.08.13-1.29-.46-2.29-.81.08-.02-1.81-.82-2.7-1.25h.04c-.23.06-1.16-.35-1.86-.6.06-.07.2-.06.58.06l-.64-.26c-.17-.02-.38-.07-.8-.23l.2-.04c-.86-.34-1.77-.58-2.85-1.09-.1.07.76.63-.43.22-.02-.07-.03-.18.29-.08-.1-.03-.37-.1-.57-.2l.5.1c-.49-.24-.29-.03-.69-.2.04-.07-.27-.17-.19-.21.11.03.34.17.5.21-.45-.2-.97-.46-1.13-.6.02.06-.04.1-.38-.02-.86-.34-.26-.21-.74-.45-.23-.03-.75-.31-.81-.2-.25-.1-.28-.17-.36-.24-.46-.13-2.07-.83-1.62-.5l.11.05s-.05-.02-.07-.02h0s0,0,0,0c-1.5-.48-2.99-1.29-4.45-1.82l.02-.04c-.88-.31-1.92-.75-2.57-.92-.25-.1-.57-.31-.44-.31-.67-.24-.76-.23-1.68-.67.69.2-.2-.15.7.23-.84-.38-1.01-.52-1.97-.79.35.03-.59-.38-1.01-.52l.57.31c-.46-.17-.86-.34-1.26-.51l.27-.04c-1.68-.87-3.26-1.01-4.48-1.82-.5-.1.92.45.47.39-.8-.34-1.56-.87-1.81-.97-1.07-.52-1.1-.23-2.24-.75.13.11.22.28-.66-.02-.8-.34-.91-.59-.39-.42.19.07.28.13.27.14.27.09.62.21.32.03h-.12c-.38-.21-1.49-.65-1.2-.62-.63-.2-.29-.03.15.18-1.01-.49-1.61-.66-2.66-1.13.16.09.29.21.12.14-1.53-.69-.72-.19-1.78-.6-.57-.31.28-.08-.8-.45-.63-.31-.09-.18.18-.11-1-.3-1.79-.79-2.33-1.03l.52.17c-.31-.1-.56-.2-.82-.31l.25.21c-.29-.14-.55-.24-.53-.28-.33-.07.17.25-.47.08-.38-.21-1.24-.44-1.32-.62,1.24.55-.09-.18.98.23-.21-.07-.46-.17-.75-.31-.04-.03.05,0,.14.02-1.16-.6-.61-.09-1.85-.6.19,0-.24-.25-.44-.31.5.21.19.21-.29.08-.78-.38-.88-.31-1.3-.49l.47.22c-.19,0-.58-.17-1.15-.37-.03-.07.52.17.33.06-.67-.13-1.35-.69-2.24-.96-.38-.21.01-.14-.32-.32-1-.3-1.01-.52-2.05-.86.26.21.32.21-.44,0l1.69.61-1.12-.3c.5.21,1.09.37,1.38.51-.54-.13-.48-.13-.27.04-.63-.42-1.4-.47-2.16-.89l.12-.22c-1.16-.59-2.17-.75-3.71-1.44l.48.24c-.25,0-.96-.38-1.48-.54.08-.06-.23-.21-.42-.35,0,.07-1.14-.47-1.34-.37l-.65-.38c-1.24-.55-1.52-.37-2.72-.88.4.06-.13-.21.7.06-.4-.16-.76-.33-.79-.28-.22-.14-1.16-.35-1.5-.57-.18-.04-.27.02-.72-.17-.04-.04.02-.04.02-.04-.02.04-.73-.24-.37,0-1.14-.74-3.48-1.39-4.47-2.03-.89-.33-1.96-.74-2.76-1.06.06,0,.02-.04.17.03-1.07-.52-.77-.06-1.99-.64-.59-.38.69.2.31,0-.07-.32-1.53-.58-2.31-1.07l.21.07c-.61-.35-1.61-.54-2.66-.99,0,0,.06,0,.02-.04-.77-.16-2.15-.68-3.18-1.05.35.03.48.14.33-.04-.46-.17.07.21-.85-.13-.27-.17-.91-.49-.95-.63l.86.34c-.38-.32-1.11-.44-1.55-.65l.08-.04c-1.32-.51-1.4-.37-2.8-.95l.13.1c-.83-.16-.61-.35-1.42-.55l-.17-.25c-.52-.17-1.84-.58-2.76-.92.56.1,1.65.47,2.34.67-.5-.21-1.72-.68-2.01-.71.21.07.48.13.67.24-.67-.13-1.5-.4-2.5-.81.3-.22-2.58-1.14-3.22-1.66-1.82-.61-3.5-1.48-5.58-2.3.64.53-.61-.24-.57.05-.49-.18-.67-.26-.71-.29l-1.4-.73c-.32-.21.48.13.46.06-1.05-.45-.4-.28-1.07-.63.11.14-.42-.03-1-.3l.8.45c-1.52-.47-1.19-.71-2.73-1.19l.5.12c-.78-.27-2.81-1.14-3.63-1.26-.12-.08-.28-.22.07-.1-1.81-.77-4.14-1.44-5.5-2.14h.16c-.35-.12-.64-.13-1.04-.36.03-.01.16,0,0-.07-.19-.05-.94-.27-1.38-.48l.41.09c-1.75-.8-2.79-.95-4.3-1.51.07-.17-1.3-.79-1.99-1.1h.03c-2.06-.87-3.57-1.3-5.51-2.01-1.11-.67-4-1.71-5.87-2.59.28.15-.1.11-.45,0-.43-.22-1.29-.39-1.15-.51l.16.07c-.28-.29-1.21-.62-1.93-.92l-.2.16c-1.76-1.06-4.98-1.89-5.9-2.58-.47-.13-1.04-.36-1.51-.49l.07-.1c-1.25-.54-1.87-.81-3.44-1.41l.35.05c-.87-.36-1.24-.14-2.05-.46l-.18-.26c-1.53-.62-3.02-1.39-4.6-1.86.03-.01.1-.04.35.05-.72-.3-2.74-1.24-2.57-.91.04-.15-1.57-.66-2.43-.93l.17-.06c-.75-.15-.79-.12-1.78-.48-.23-.11-.17-.17.13-.02-.75-.37-.64-.14-1.55-.58l.38.07c-.79-.33-.74-.27-1.21-.36-.52-.16-1.49-.64-1.57-.78-.13.02-.6-.08-1.05-.3-.05-.06.13-.02.22,0-1.29-.61-2.02-.67-2.89-1.15,0-.04-.06-.09-.13-.13,1.05.43,1.9.78,1.81.76.04-.1-.8-.46-.07-.32-.71-.2-1.94-.51-2.75-.9-.04-.03-.07-.05-.1-.08l.09.02c-.19-.09-.36-.15-.53-.2-.26-.12-.42-.2-.67-.31-.06-.12-.96-.44-1.38-.62,0,.12-.56-.12-.07.18-.06-.04.09.02.37.13.06.02.14.05.19.06,0,0-.02,0-.03,0,.28.11.64.25,1.06.42-.36-.08-.73-.18-1.17-.43-.25-.02-.51-.04-.66-.07-.52-.39-1.6-.92-1.72-1.08-1.32-.46-3.06-1.2-3.96-1.32-.38-.12-.4-.23-.52-.32.22.07.47.17.6.19-.76-.25-2.19-.86-2.42-.79-.9-.44.57.08-.71-.41l.19.03c-2.41-1.24-4.22-1.29-6.88-2.71.19.1.28.14.31.18-3.11-1.41-6.58-2.53-9.62-4-.87-.4-1-.35-1.57-.5l-.15-.19-.98-.24c-1.35-.44-2.16-1.21-3.9-1.7l.18.17c-.59-.26-1.91-.72-1.78-.77-.07-.01-.23,0-.45-.13v-.07s-1.5-.49-1.5-.49c-1.12-.51.28-.17-1.38-.86-.63-.23-1.83-.54-1.61-.4.25.1.62.3.62.36l-.58-.2c-.18.14-.68.14.65.83l1.01.28.28.21-.82-.32c.43.27.75.32,1.1.4.06.08.18.17.37.26l1.02.21c.09.12-.48-.03.14.26.48.1-.36-.33.39-.08.43.27.27.28.84.43.06.08-.07.06-.29,0,.51.14,1.29.5,1.57.5.44.3,1.64.64,1.52.79.17.02.9.21,1.35.38-.89-.13,1.65.69,1.35.82.67.06,2.2.8,3.3,1.13-.07,0-.19-.03-.28-.07.59.26.74.38,1.11.57.14-.12,1.08.22,1.62.33.67.44-.52,0-.34.23.01-.14,1.32.39,1.11.19.52.32.47.24.7.48.17-.15.53.18,1.05.25.77.42.14.26,1.05.57.4.23-.42-.03-.42-.03ZM1836.41,99.73s0,0,0,0c-.18-.07-.34-.13-.44-.17.09.04.22.08.44.17ZM1838.19,100.45c-.21-.09-.48-.2-.77-.32-.05-.06.04-.07.21,0-.11-.01.3.18.56.32ZM1834.73,98.17c.29.1.37.16.4.2-.13-.05-.29-.11-.5-.19,0,0-.03,0-.04,0,.04,0,.07-.02.13,0Z"/>
      <path class="cls-8" d="M1834.17,98.11s-.07-.02-.12-.04c.05.03.11.06.16.09.04,0,.08,0,.11,0-.05-.02-.1-.04-.15-.06Z"/>
      <path class="cls-8" d="M1995.47,163.78l-.04-.02s.06.03.07.05c-.02-.02-.02-.02-.04-.03Z"/>
      <polygon class="cls-8" points="1862.69 110.64 1862.7 110.61 1862.53 110.57 1862.69 110.64"/>
      <path class="cls-8" d="M2005.12,168.13s.05.04.12.08c0,0-.05-.04-.12-.08Z"/>
      <path class="cls-8" d="M2009.35,169.88l.58.28c-.25-.13-.43-.21-.58-.28Z"/>
      <path class="cls-8" d="M2012.58,171.25s.07-.01.08-.02c0,0,0,0,0,0l-.08.02Z"/>
      <path class="cls-8" d="M1960.76,150.36s-.09-.03-.13-.05c-.3-.1-.1-.03.13.05Z"/>
      <path class="cls-8" d="M1976.27,156.36c-.17-.05-.34-.09-.52-.15.27.12.48.21.52.15Z"/>
      <path class="cls-8" d="M1943.5,143.51s0,0,0,0c-.04-.01-.07-.03-.11-.04l.1.04Z"/>
      <path class="cls-8" d="M1975.03,155.92c.27.13.5.22.72.29-.22-.1-.48-.22-.72-.29Z"/>
      <path class="cls-8" d="M2026.67,177.03l.16.07s.01-.01.03,0l-.18-.06Z"/>
      <path class="cls-8" d="M2026.85,177.09l.18.06c-.08-.03-.15-.06-.18-.06Z"/>
      <path class="cls-8" d="M2027.41,177.27l-.38-.12c.13.05.28.12.38.12Z"/>
      <path class="cls-8" d="M2022.38,175.23l-.07.02s.05,0,.07-.02Z"/>
      <path class="cls-8" d="M2021.07,174.71c.31.14.75.4,1.2.55h.05c-.23-.04-.93-.5-1.25-.55Z"/>
      <path class="cls-8" d="M2015.8,172.01l1.08.48c-.17-.12-.4-.28.1-.09-1.33-.69.25.21-1.18-.39Z"/>
      <path class="cls-8" d="M2012.42,170.56c.6.22.02-.06.06-.07-.39-.11-.48-.14-.06.07Z"/>
      <path class="cls-8" d="M1987.82,160.58l.1-.07c-.46-.17-.02.04-.1.07Z"/>
      <polygon class="cls-8" points="1982.92 159.18 1983.33 159.42 1983.58 159.41 1982.92 159.18"/>
      <polygon class="cls-8" points="1980.42 157.35 1980.63 157.42 1979.85 157.14 1980.42 157.35"/>
      <path class="cls-8" d="M1939.1,140.61l.09.18c.32.1.44,0-.09-.18Z"/>
      <path class="cls-8" d="M1921.22,133.5c-.17-.14-.66-.38-.99-.45.4.17.78.38.99.45Z"/>
      <polygon class="cls-8" points="1867.82 111.58 1868.19 111.69 1867.5 111.45 1867.82 111.58"/>
    </g>
    <g>
      <path class="cls-8" d="M2015.29,209.93c-.43-.1-.93-.18-.72.04.45.04.52.13,1.01.16.35.12.58.28.5.31.13.02.52.24.74.24-.4-.28-.97-.51-1.59-.67-.11-.08.02-.06.06-.07Z"/>
      <path class="cls-8" d="M1982.02,196.19l.21.1c-.06-.03-.13-.07-.21-.1Z"/>
      <path class="cls-8" d="M1961.38,187.73c.16.06.23.07.24.07-.15-.05-.27-.09-.24-.07Z"/>
      <path class="cls-8" d="M1957.9,186.16c.07.03.14.06.2.09-.07-.04-.15-.08-.2-.09Z"/>
      <path class="cls-8" d="M1982.02,196.19l-.54-.26c-.06.03.27.15.54.26Z"/>
      <path class="cls-8" d="M2010.57,208.37c.12.04.22.07.31.09-.1-.03-.19-.07-.29-.1,0,0-.01,0-.03.01Z"/>
      <path class="cls-8" d="M1991.17,199.79l.17.07c.06,0,.11,0,.16,0l-.33-.07Z"/>
      <path class="cls-8" d="M1998.17,202.61c-.16-.07-.26.02-.33.04.11,0,.23.02.38.07.01-.02,0-.05-.04-.11Z"/>
      <path class="cls-8" d="M2009.18,207.3l.2.07c-.05-.02-.14-.05-.2-.07Z"/>
      <path class="cls-8" d="M1986.17,197.73s-.02-.05-.05-.06c0,.01.01.04.05.06Z"/>
      <path class="cls-8" d="M1790.28,119.15s0-.01,0-.02c-.05,0-.06,0,0,.02Z"/>
      <path class="cls-8" d="M1782.39,115.32l.11.04s.04-.03.05-.05h-.16Z"/>
      <path class="cls-8" d="M1951.5,183.4s.02,0,.03.01c.17.06.08.02-.03-.01Z"/>
      <path class="cls-8" d="M1892.19,159.41c.63.37-1.14-.32-.18.2-.08-.08.99.2.18-.2Z"/>
      <path class="cls-8" d="M2010.39,208.29c-.09-.04-.19-.08-.29-.12.13.06.22.09.29.12Z"/>
      <path class="cls-8" d="M1892.01,159.61s0,0,0,0l.1.05s-.06-.03-.1-.05Z"/>
      <path class="cls-8" d="M1936.6,177.42s.08.07.13.11c0-.01-.03-.04-.13-.11Z"/>
      <path class="cls-8" d="M1947.62,182.08l-.27-.13c.1.05.19.09.27.13Z"/>
      <path class="cls-8" d="M1930.78,175.24c-.15-.07-.19-.1-.4-.17.02.01.03.02.06.04.08.02.18.05.34.13Z"/>
      <path class="cls-8" d="M1924.79,172.81s.07.04.1.07c.06.02.13.05.19.07l-.29-.14Z"/>
      <path class="cls-8" d="M1808.5,126.49c-.12-.08-.19-.15-.24-.21.06.11-.83-.22.24.21Z"/>
      <path class="cls-8" d="M2010.59,208.31s-.1,0-.2-.03c.07.03.14.05.2.08.02,0,.03-.02,0-.05Z"/>
      <path class="cls-8" d="M1930.19,175.99l-.95-.4c.26.12.61.26.95.4Z"/>
      <path class="cls-8" d="M1851.49,143.92l-.22-.08c.08.04.16.06.22.08Z"/>
      <path class="cls-8" d="M1926.41,174.46c-.15-.11-.33-.2-.51-.29-.04,0-.09-.02-.12-.02l.63.31Z"/>
      <path class="cls-8" d="M1808.27,126.27s0,0,0,0c0,0,0,0,0,0Z"/>
      <path class="cls-8" d="M1801.89,123.99c.91.37.48.03.71.03,1.1.4.46.31.8.53.69.24,1.26.32,1.76.53.03.04.12.09,0,.07.76.18,2.12.86,3.01,1.05.06.04.08.06.09.08-.11-.13-.1-.21-.05-.25.41.16.79.22.91.37-.25-.1-.28-.07-.41-.09l.44.13c.33.29-.6-.19-.64-.09.85.29,1.86.58,2.48.87.08.18-1.51-.56-.7-.1l-.96-.45c.67.51-.59-.26,0,.24,1.28.56,1.48.52,2.75,1.09.32.05-.05-.15.27-.1,1.89.62,1.31.92,2.73,1.29.39.05.59-.06,1.51.42h-.39c1.25.54.8.09,2.08.73-.26-.04-1.01-.35-.82-.26.8.46.64.16,1.29.43l.08.19c1.34.52,2.85,1.02,4.34,1.6-.1,0-.37-.06-.04.12,1.89.69,3.98,1.63,5.75,2.44l.73.17c.16.07.28.17.09.12.68.33.07-.06.42.04.4.15.5.28.23.21,1.28.41,3.61,1.23,4.87,1.88l-.27-.07c1,.46,1.24.23,2.14.72l-.19-.05c2.18.94,4.66,1.83,6.28,2.68.39-.03,2.15.96,2.39.79,1.21.62.84.52,2.58,1.31.47.2.76.14,1.36.36l-.03.12.85.2.37.31.56.19c-.22-.1-.44-.24-.4-.26.88.29,2.06.93,2.05,1l2.07.72c-.06.03-.41-.09-.69-.17,1.13.32.15.2,1.18.5-.12-.08.1-.04.13-.06.47.27,1.59.73,2.44,1.04l-.19.02c1.5.63,3.19,1.25,4.88,1.94-.59-.28-.39-.37.11-.18l.15.21c.35.05-.5-.26.2-.09.62.27.37.31-.01.21l.78.27c.03.06-.16,0-.22.03.35.05,1.27.66,1.78.71l.03.05c1.69.69,2.47.95,3.85,1.51.07-.1.6.15,1.04.22,1,.44,2.08.99,3.31,1.47.88.29.29,0,.7.1.02.12,1.24.61.58.42,1.47.58,1.87.74,3.76,1.41-.18-.12-.4-.23-.27-.22.34.12.75.35.68.38l-.09-.03c2.13.69,4.67,2.23,6.41,2.7l-.1-.03,1.76.59c.78.34-.5-.12.06.18,1.92.59,2.91,1.21,4.48,1.72,1.06.77,4.19,1.68,5.7,2.51l-.06-.11c.44.1.48.24.78.38-.02-.07-.42-.24-.15-.18,3.52,1.33,7.15,3.02,10.69,4.53,1.3.55.88-.05,2.46.78l-.52-.06c2.7.92,5.39,2.19,8.02,3.11-.17-.03-.19,0-.44-.1.51.31,2.01.82,2.05.75.4.17.07.11.3.24.52.28,1.42.44,1.67.65.04.03-.17-.03-.27-.07.37.1,1.65.69,1.36.44.95.44,1.87.7,2.62,1.08.55.09,1.63.73,1.86.63-.14.15,1.64.83,2.29,1-.23-.03.51.27.24.25.7.28,1.35.51,1.27.37,1.2.73,2.65.88,3.27,1.44,2.11.75,4.06,1.47,5.94,2.18-.14.15-2.07-.82-2.06-.61,1.8.65,2.88.91,4.62,1.67.44.21-.29-.03-.45-.06,1.8.65,3.41,1.4,5.03,1.95-.01.01-.19-.04-.35-.09.31.12.71.32.71.23l-.31-.1c-.45-.32,1.33.26,1.41.22-.62.01,1.53.69.58.63.21.07.48.13.46.06.3.14.38.21.05.14,1.13.41.77.16,1.77.57-.02.04-.23-.03-.35-.03.54.13,1.08.27,1.92.64-.06,0,.03.07-.23-.03,1.47.58,2.57.81,4.14,1.54-.54-.03.52.28.55.45l.88.31-.32-.21c.75.31,1.46.48,2.09.79l-.59-.17,1.43.55-.78-.38c.79.24,0-.22.98.23-.21-.07.75.31,1.11.55,0,0,0,0,0,0,.39.11.8.21,1.34.48.13.1-.18.11-.1.18.42.03,1.78.68,2.3.75-.17-.03-.21.04-.16.08l.35.03c.34.17.38.21.3.25,1.04.44-.26-.32.96.27-.1-.03-.06,0-.27-.07,1.24.55,2.45.92,3.58,1.44.28.28-1.02-.37-.68-.09,1.67.65,3.51,1.22,5.1,1.91l-.29-.14c.31-.11,1.16.59,2.01.82-.21-.07-.31,0-.24,0,1.09.48,2.27.86,3.97,1.48l-.23-.03c.63.31,1.7.72,2.39,1.03.23.03.63.2.41.03,2.04,1.18,4.19,1.51,6,2.54-.23-.09-.57-.18-.38-.1l1.65.61c-.09-.14-.19-.14-.51-.35.23.03.71.18,1.11.34-.76-.24-.05.15.25.32-.04-.05.08-.03.06-.07.79.5.22-.12,1.34.46l-.08.02c.45.15.87.25,1.34.46.15.18-.48-.14-.55-.07.66.26,1.38.33,1.94.68-.29-.09-.7-.25-.99-.33.6.39.69.39,1.17.6l-.05-.02,1.1.51-.27-.15c.94.07,1.7.63,2.89.91-1.15-.27-.22.02-.35.11.27.15.69.36.55.34.56.12.85.43,1.65.59.02.05.56.23.4.28.7.25-.14-.13-.06-.15,1.11.3,2.42,1.16,4,1.6,1.34.46,1.63.43,2.87.86.39.23-.39,0-.39,0,.64.32,1.14.52,1.78.73-.14-.02-.02.06.15.18.5.19.39,0,1.03.32-.13,0-.3,0-.56-.05.6.2,1.21.37,1.84.58.14.13-.41-.05-.64-.09.7.25,1.8.66,2.05.64l-.42-.22c.25.1.09.14-.1.09-.62-.16-.83-.38-.85-.43l.44.15c-.36-.4-1.76-.67-2.63-1.04h.43s-.95-.24-.95-.24c-.17-.12-.27-.26.17-.11-.59-.33-.58-.17-1.08-.48-.05-.04-.02-.03.03-.02l-.63-.2c.13.02-.06-.15.31.02-1.06-.54-1.82-.6-2.19-.89l.1.03c-1.55-.56-.2.06-1.39-.27l-.65-.6-.2.06c-.16-.07-.46-.2-.39-.23-.62-.16.08.09-.29.03-.71-.41-2.11-.8-2.2-1.05-.31-.02.7.36-.14.1-.15-.29-.95-.34-1.6-.72.25-.02.89.3.23-.07-.49,0-1.33-.59-1.93-.79-.08.13-1.29-.46-2.29-.81.08-.02-1.81-.82-2.7-1.25h.04c-.23.06-1.16-.35-1.86-.6.06-.07.2-.06.58.06l-.64-.26c-.17-.02-.38-.07-.8-.23l.2-.04c-.86-.34-1.77-.58-2.85-1.09-.1.07.76.63-.43.22-.02-.07-.03-.18.29-.08-.1-.03-.37-.1-.57-.2l.5.1c-.49-.24-.29-.03-.69-.2.04-.07-.27-.17-.19-.21.11.03.34.17.5.21-.45-.2-.97-.46-1.13-.6.02.06-.04.1-.38-.02-.86-.34-.26-.21-.74-.45-.23-.03-.75-.31-.81-.2-.25-.1-.28-.17-.36-.24-.46-.13-2.07-.83-1.62-.5l.11.05s-.05-.02-.07-.02h0s0,0,0,0c-1.5-.48-2.99-1.29-4.45-1.82l.02-.04c-.88-.31-1.92-.75-2.57-.92-.25-.1-.57-.31-.44-.31-.67-.24-.76-.23-1.68-.67.69.2-.2-.15.7.23-.84-.38-1.01-.52-1.97-.79.35.03-.59-.38-1.01-.52l.57.31c-.46-.17-.86-.34-1.26-.51l.27-.04c-1.68-.87-3.26-1.01-4.48-1.82-.5-.1.92.45.47.39-.8-.34-1.56-.87-1.81-.97-1.07-.52-1.1-.23-2.24-.75.13.11.22.28-.66-.02-.8-.34-.91-.59-.39-.42.19.07.28.13.27.14.27.09.62.21.32.03h-.12c-.38-.21-1.49-.65-1.2-.62-.63-.2-.29-.03.15.18-1-.49-1.61-.66-2.66-1.13.16.09.29.21.12.14-1.53-.69-.72-.19-1.78-.6-.57-.31.28-.08-.8-.45-.63-.31-.09-.18.18-.11-1-.3-1.79-.79-2.33-1.03l.52.17c-.31-.1-.56-.2-.82-.31l.25.21c-.29-.14-.55-.24-.53-.28-.33-.07.17.25-.47.08-.38-.21-1.24-.44-1.32-.62,1.24.55-.09-.18.98.23-.21-.07-.46-.17-.75-.31-.04-.03.05,0,.14.02-1.16-.6-.61-.09-1.85-.6.19,0-.24-.25-.45-.31.5.21.19.21-.29.08-.78-.38-.88-.31-1.3-.49l.47.22c-.19,0-.58-.17-1.15-.37-.03-.07.52.17.33.06-.67-.13-1.35-.69-2.24-.96-.38-.21.01-.14-.32-.32-1-.3-1.01-.52-2.05-.86.26.21.32.21-.44,0l1.69.61-1.12-.3c.5.21,1.09.37,1.38.51-.54-.13-.48-.13-.27.04-.63-.42-1.4-.47-2.16-.89l.12-.22c-1.16-.59-2.17-.75-3.71-1.44l.48.24c-.25,0-.97-.38-1.48-.54.08-.06-.23-.21-.42-.35,0,.07-1.14-.47-1.34-.37l-.65-.38c-1.24-.55-1.52-.37-2.72-.88.4.06-.13-.21.7.06-.4-.16-.76-.33-.79-.28-.22-.14-1.16-.35-1.5-.57-.18-.04-.27.02-.72-.17-.04-.04.02-.04.02-.04-.02.04-.73-.24-.37,0-1.14-.74-3.48-1.39-4.47-2.03-.89-.33-1.96-.74-2.76-1.06.06,0,.02-.04.17.03-1.07-.52-.77-.06-1.99-.64-.59-.38.69.2.31,0-.07-.32-1.53-.58-2.31-1.07l.21.07c-.61-.35-1.61-.54-2.66-.99,0,0,.06,0,.02-.04-.77-.16-2.15-.68-3.18-1.05.35.03.48.14.33-.04-.46-.17.07.21-.85-.13-.27-.17-.91-.49-.95-.63l.86.34c-.38-.32-1.11-.44-1.55-.65l.08-.04c-1.32-.51-1.4-.37-2.8-.95l.13.1c-.83-.16-.61-.35-1.42-.55l-.17-.25c-.52-.17-1.84-.58-2.76-.92.56.1,1.65.47,2.34.67-.5-.21-1.72-.68-2.01-.71.21.07.48.13.67.24-.67-.13-1.5-.4-2.5-.81.3-.22-2.58-1.14-3.22-1.66-1.82-.61-3.5-1.48-5.58-2.3.64.53-.61-.24-.57.05-.49-.18-.67-.26-.71-.29l-1.4-.73c-.32-.21.48.13.46.06-1.05-.45-.4-.28-1.07-.63.11.14-.42-.03-1-.3l.8.45c-1.52-.47-1.19-.71-2.73-1.19l.5.12c-.78-.27-2.81-1.14-3.63-1.26-.12-.08-.28-.22.07-.1-1.81-.77-4.14-1.44-5.5-2.14h.16c-.35-.12-.64-.13-1.04-.36.03-.01.16,0,0-.07-.19-.05-.94-.27-1.38-.48l.41.09c-1.75-.8-2.79-.95-4.3-1.51.07-.17-1.3-.79-1.99-1.1h.03c-2.06-.87-3.57-1.3-5.51-2.01-1.11-.67-4-1.71-5.87-2.59.28.15-.1.11-.45,0-.43-.22-1.29-.39-1.15-.51l.16.07c-.28-.29-1.21-.62-1.93-.92l-.2.16c-1.76-1.06-4.98-1.89-5.9-2.58-.47-.13-1.04-.36-1.51-.49l.07-.1c-1.25-.54-1.87-.81-3.44-1.41l.35.05c-.87-.36-1.24-.14-2.05-.46l-.18-.26c-1.53-.62-3.02-1.39-4.6-1.86.03-.01.1-.04.35.05-.72-.3-2.74-1.24-2.57-.91.04-.15-1.57-.66-2.43-.93l.17-.05c-.75-.15-.79-.12-1.78-.48-.23-.11-.17-.17.13-.02-.75-.37-.64-.14-1.55-.58l.38.07c-.79-.33-.74-.27-1.21-.36-.52-.16-1.49-.64-1.57-.78-.13.02-.6-.08-1.05-.3-.05-.06.13-.02.22,0-1.29-.61-2.02-.67-2.89-1.15,0-.04-.06-.09-.13-.13,1.05.43,1.9.78,1.81.76.04-.1-.8-.46-.07-.32-.71-.2-1.94-.51-2.75-.9-.04-.03-.07-.05-.1-.08l.09.02c-.19-.09-.36-.15-.53-.2-.26-.12-.42-.2-.67-.31-.06-.12-.96-.44-1.38-.62,0,.12-.56-.12-.07.18-.06-.04.09.02.37.13.07.02.14.05.19.06,0,0-.02,0-.03,0,.28.11.64.25,1.06.42-.36-.08-.73-.18-1.17-.43-.25-.02-.51-.04-.66-.07-.52-.39-1.6-.92-1.72-1.08-1.32-.46-3.06-1.2-3.96-1.32-.38-.12-.4-.23-.52-.32.22.07.47.17.6.19-.76-.25-2.19-.86-2.42-.79-.9-.44.57.08-.71-.41l.19.03c-2.41-1.24-4.22-1.29-6.88-2.71.19.1.28.14.31.18-3.11-1.41-6.58-2.53-9.62-4-.87-.4-1-.35-1.57-.5l-.15-.19-.98-.24c-1.35-.44-2.16-1.21-3.9-1.7l.18.17c-.59-.26-1.91-.72-1.78-.77-.07-.01-.23,0-.45-.13v-.07s-1.5-.49-1.5-.49c-1.12-.51.28-.17-1.38-.86-.63-.23-1.83-.54-1.61-.4.25.1.62.3.61.36l-.58-.2c-.18.14-.68.14.65.83l1.01.28.28.21-.82-.32c.43.27.75.32,1.1.4.06.08.18.17.37.26l1.02.21c.09.12-.48-.03.14.26.48.1-.36-.33.39-.08.43.27.27.28.84.43.06.08-.07.06-.29,0,.51.14,1.29.5,1.57.5.44.3,1.64.64,1.52.79.17.02.9.21,1.35.38-.89-.13,1.65.69,1.35.82.67.06,2.2.8,3.3,1.13-.07,0-.19-.03-.28-.07.59.26.74.38,1.11.57.14-.12,1.08.22,1.62.33.67.44-.52,0-.34.23.01-.14,1.32.39,1.11.19.52.32.46.24.7.48.17-.15.53.18,1.05.25.77.42.14.26,1.05.57.4.23-.42-.03-.42-.03ZM1823.21,132.26s0,0,0,0c-.18-.07-.34-.13-.44-.17.09.04.22.08.44.17ZM1824.99,132.98c-.21-.09-.48-.2-.77-.32-.05-.06.04-.07.21,0-.11-.01.3.18.56.32ZM1821.53,130.7c.29.1.37.16.4.2-.13-.05-.29-.11-.5-.19,0,0-.03,0-.04,0,.04,0,.07-.02.13,0Z"/>
      <path class="cls-8" d="M1820.96,130.64s-.07-.02-.12-.04c.05.03.11.06.16.09.04,0,.08,0,.11,0-.05-.02-.1-.04-.15-.06Z"/>
      <path class="cls-8" d="M1982.26,196.31l-.04-.02s.06.03.07.05c-.02-.02-.02-.02-.04-.03Z"/>
      <polygon class="cls-8" points="1849.48 143.17 1849.49 143.14 1849.33 143.1 1849.48 143.17"/>
      <path class="cls-8" d="M1991.91,200.66s.05.04.12.08c0,0-.05-.04-.12-.08Z"/>
      <path class="cls-8" d="M1996.14,202.41l.58.28c-.25-.13-.43-.21-.58-.28Z"/>
      <path class="cls-8" d="M1999.37,203.78s.07-.01.08-.02c0,0,0,0,0,0l-.08.02Z"/>
      <path class="cls-8" d="M1947.55,182.89s-.09-.03-.13-.05c-.3-.1-.1-.03.13.05Z"/>
      <path class="cls-8" d="M1963.06,188.89c-.17-.05-.34-.09-.52-.15.27.12.48.21.52.15Z"/>
      <path class="cls-8" d="M1930.29,176.04s0,0,0,0c-.04-.01-.07-.03-.11-.04l.1.04Z"/>
      <path class="cls-8" d="M1961.83,188.45c.27.13.5.22.72.29-.22-.1-.48-.22-.72-.29Z"/>
      <path class="cls-8" d="M2013.47,209.56l.16.07s.01-.01.03,0l-.18-.06Z"/>
      <path class="cls-8" d="M2013.65,209.62l.18.06c-.08-.03-.15-.06-.18-.06Z"/>
      <path class="cls-8" d="M2014.2,209.8l-.38-.12c.13.05.28.12.38.12Z"/>
      <path class="cls-8" d="M2009.18,207.76l-.07.02s.05,0,.07-.02Z"/>
      <path class="cls-8" d="M2007.86,207.24c.31.14.75.4,1.2.55h.05c-.23-.04-.93-.5-1.25-.55Z"/>
      <path class="cls-8" d="M2002.59,204.54l1.08.48c-.17-.12-.4-.28.1-.09-1.33-.69.25.21-1.18-.39Z"/>
      <path class="cls-8" d="M1999.21,203.09c.6.22.02-.06.06-.07-.39-.11-.48-.14-.06.07Z"/>
      <path class="cls-8" d="M1974.62,193.11l.1-.07c-.46-.17-.02.04-.1.07Z"/>
      <polygon class="cls-8" points="1969.71 191.71 1970.13 191.95 1970.37 191.94 1969.71 191.71"/>
      <polygon class="cls-8" points="1967.22 189.88 1967.42 189.95 1966.65 189.67 1967.22 189.88"/>
      <path class="cls-8" d="M1925.89,173.14l.09.18c.32.1.44,0-.09-.18Z"/>
      <path class="cls-8" d="M1908.01,166.03c-.17-.14-.66-.38-.99-.45.4.17.78.38.99.45Z"/>
      <polygon class="cls-8" points="1854.61 144.11 1854.98 144.22 1854.29 143.98 1854.61 144.11"/>
    </g>
    <g>
      <path class="cls-8" d="M1777.07,151.68s0-.01,0-.02c-.05,0-.06,0,0,.02Z"/>
      <path class="cls-8" d="M1769.18,147.85l.11.04s.04-.03.05-.05h-.16Z"/>
      <path class="cls-8" d="M1878.98,191.94c.63.37-1.14-.32-.18.2-.08-.08.99.2.18-.2Z"/>
      <path class="cls-8" d="M1878.8,192.14s0,0,0,0l.1.05s-.06-.03-.1-.05Z"/>
      <path class="cls-8" d="M1923.39,209.95s.08.07.13.11c0-.01-.03-.04-.13-.11Z"/>
      <path class="cls-8" d="M1917.57,207.77c-.15-.07-.19-.1-.4-.17.02.01.03.02.06.04.08.02.18.05.34.13Z"/>
      <path class="cls-8" d="M1911.58,205.34s.07.04.1.07c.06.02.13.05.19.07l-.29-.14Z"/>
      <path class="cls-8" d="M1795.3,159.02c-.12-.08-.19-.15-.24-.21.06.11-.83-.22.24.21Z"/>
      <path class="cls-8" d="M1916.98,208.52l-.95-.4c.26.12.61.26.95.4Z"/>
      <path class="cls-8" d="M1838.28,176.45l-.22-.08c.08.04.16.06.22.08Z"/>
      <path class="cls-8" d="M1913.21,206.99c-.15-.11-.33-.2-.51-.29-.04,0-.09-.02-.12-.02l.63.31Z"/>
      <path class="cls-8" d="M1795.06,158.8s0,0,0,0c0,0,0,0,0,0Z"/>
      <path class="cls-8" d="M1788.68,156.52c.91.37.48.03.71.03,1.1.4.46.31.8.53.69.24,1.26.32,1.76.53.03.04.12.09,0,.07.76.18,2.12.86,3.01,1.05.06.04.08.06.09.08-.11-.13-.1-.21-.05-.25.41.16.79.22.91.37-.25-.1-.28-.07-.41-.09l.44.13c.33.29-.6-.19-.64-.09.85.29,1.86.58,2.48.87.08.18-1.51-.56-.7-.1l-.96-.45c.67.51-.59-.26,0,.24,1.28.56,1.48.52,2.75,1.09.32.05-.05-.15.27-.1,1.89.62,1.31.92,2.73,1.29.39.05.59-.06,1.51.42h-.39c1.25.54.8.09,2.08.73-.26-.04-1.01-.35-.82-.26.8.46.64.16,1.29.43l.08.19c1.34.52,2.85,1.02,4.34,1.6-.1,0-.37-.06-.04.12,1.89.69,3.98,1.63,5.75,2.44l.73.17c.16.07.28.17.09.12.68.33.07-.06.42.04.4.15.5.28.23.21,1.28.41,3.61,1.23,4.87,1.88l-.27-.07c1,.46,1.24.23,2.14.72l-.19-.05c2.18.94,4.66,1.83,6.28,2.68.39-.03,2.15.96,2.39.79,1.21.62.84.52,2.58,1.31.47.2.76.14,1.36.36l-.03.12.85.2.37.31.56.19c-.22-.1-.44-.24-.4-.26.88.29,2.06.93,2.05,1l2.07.72c-.06.03-.41-.09-.69-.17,1.13.32.15.2,1.18.5-.12-.08.1-.04.13-.06.47.27,1.59.73,2.44,1.04l-.19.02c1.5.63,3.19,1.25,4.88,1.94-.59-.28-.39-.37.11-.18l.15.21c.35.05-.5-.26.2-.09.63.27.37.31-.01.21l.78.27c.03.06-.16,0-.22.03.35.05,1.27.66,1.78.71l.03.05c1.69.69,2.47.95,3.85,1.51.07-.1.6.15,1.04.22,1,.44,2.08.99,3.31,1.47.88.29.29,0,.7.1.02.12,1.24.61.58.42,1.47.58,1.87.74,3.76,1.41-.18-.12-.4-.23-.27-.22.34.12.75.35.68.38l-.09-.03c2.14.69,4.67,2.23,6.41,2.7l-.1-.03,1.76.59c.78.34-.5-.12.06.18,1.92.59,2.91,1.21,4.48,1.72,1.06.77,4.19,1.68,5.7,2.51l-.06-.11c.44.1.48.24.78.38-.02-.07-.42-.24-.15-.18,3.52,1.33,7.15,3.02,10.69,4.53,1.3.55.88-.05,2.46.78l-.52-.06c2.7.92,5.39,2.19,8.02,3.11-.17-.03-.19,0-.44-.1.51.31,2.01.82,2.05.75.4.17.07.11.3.24.52.28,1.42.44,1.67.65.04.03-.17-.03-.27-.07.37.1,1.65.69,1.36.44.95.44,1.87.7,2.62,1.08.55.09,1.63.73,1.86.63-.14.15,1.64.83,2.29,1-.23-.03.51.27.24.25.7.28,1.35.51,1.27.37,1.2.73,2.65.88,3.27,1.44,2.11.75,4.06,1.47,5.94,2.18-.14.15-2.07-.82-2.06-.61,1.8.65,2.88.91,4.62,1.67.44.21-.29-.03-.45-.06,1.8.65,3.41,1.4,5.03,1.95-.01.01-.19-.04-.35-.09.31.12.71.32.71.23l-.31-.1c-.45-.32,1.33.26,1.41.22-.62.01,1.53.69.58.63.21.07.48.13.46.06.3.14.38.21.05.14,1.13.41.77.16,1.77.57-.02.04-.23-.03-.35-.03.54.13,1.08.27,1.92.64-.06,0,.03.07-.23-.03,1.47.58,2.57.81,4.14,1.54-.54-.03.52.28.55.45l.88.31-.32-.21c.75.31,1.46.48,2.09.79l-.59-.17,1.43.55-.78-.38c.79.24,0-.22.98.23-.21-.07.75.31,1.11.55,0,0,0,0,0,0,.39.11.8.21,1.34.48.13.1-.18.11-.1.18.42.03,1.78.68,2.3.75-.17-.03-.21.04-.16.08l.35.03c.34.17.38.21.3.25,1.04.44-.26-.32.96.27-.1-.03-.06,0-.27-.07,1.24.55,2.45.92,3.58,1.44.28.28-1.02-.37-.68-.09,1.67.65,3.51,1.22,5.1,1.91l-.29-.14c.31-.11,1.16.59,2.01.82-.21-.07-.31,0-.24,0,1.09.48,2.27.86,3.97,1.48l-.23-.03c.63.31,1.7.72,2.39,1.03.23.03.63.2.41.03,2.04,1.18,4.19,1.51,6,2.54-.23-.09-.57-.18-.38-.1l1.65.61c-.09-.14-.19-.14-.51-.35.23.03.71.18,1.11.34-.76-.24-.05.15.25.32-.04-.05.08-.03.06-.07.79.5.22-.12,1.34.46l-.08.02c.45.15.87.25,1.34.46.15.18-.48-.14-.55-.07.66.26,1.38.33,1.94.68-.29-.09-.7-.25-.99-.33.6.39.69.39,1.17.6l-.05-.02,1.1.51-.27-.15c.94.07,1.7.63,2.89.91-1.15-.27-.22.02-.35.11.27.15.69.36.55.34.56.12.85.43,1.65.59.02.05.56.23.4.28.7.25-.14-.13-.06-.15,1.11.3,2.42,1.16,4,1.6,1.34.46,1.63.43,2.87.86.39.23-.39,0-.39,0,.64.32,1.14.52,1.78.73-.14-.02-.02.06.15.18.5.19.39,0,1.03.32-.13,0-.3,0-.56-.05.6.2,1.21.37,1.84.58.14.13-.41-.05-.64-.09.7.25,1.8.66,2.05.64l-.42-.22c.25.1.09.14-.1.09-.62-.16-.83-.38-.85-.43l.44.15c-.36-.4-1.76-.67-2.63-1.04h.43s-.95-.24-.95-.24c-.17-.12-.27-.26.17-.11-.59-.33-.58-.17-1.08-.48-.05-.04-.02-.03.03-.02l-.63-.2c.13.02-.06-.15.31.02-1.06-.54-1.82-.6-2.19-.89l.1.03c-1.55-.56-.2.06-1.39-.27l-.65-.6-.2.06c-.16-.07-.46-.2-.39-.23-.62-.16.08.09-.29.03-.71-.41-2.11-.8-2.2-1.05-.31-.02.7.36-.14.1-.15-.29-.95-.34-1.6-.72.25-.02.89.3.23-.07-.49,0-1.33-.59-1.93-.79-.08.13-1.29-.46-2.29-.81.08-.02-1.81-.82-2.7-1.25h.04c-.23.06-1.16-.35-1.86-.6.06-.07.2-.06.58.06l-.64-.26c-.17-.02-.38-.07-.8-.23l.2-.04c-.86-.34-1.77-.58-2.85-1.09-.1.07.76.63-.43.22-.02-.07-.03-.18.29-.08-.1-.03-.37-.1-.57-.2l.5.1c-.49-.24-.29-.03-.69-.2.04-.07-.27-.17-.19-.21.11.03.34.17.5.21-.45-.2-.97-.46-1.13-.6.02.06-.04.1-.38-.02-.86-.34-.26-.21-.74-.45-.23-.03-.75-.31-.81-.2-.25-.1-.28-.17-.36-.24-.46-.13-2.07-.83-1.62-.5l.11.05s-.05-.02-.07-.02h0s0,0,0,0c-1.5-.48-2.99-1.29-4.45-1.82l.02-.04c-.88-.31-1.92-.75-2.57-.92-.25-.1-.57-.31-.44-.31-.67-.24-.76-.23-1.68-.67.69.2-.2-.15.7.23-.84-.38-1.01-.52-1.97-.79.35.03-.59-.38-1.01-.52l.57.31c-.46-.17-.86-.34-1.26-.51l.27-.04c-1.68-.87-3.26-1.01-4.48-1.82-.5-.1.92.45.47.39-.8-.34-1.56-.87-1.81-.97-1.07-.52-1.1-.23-2.24-.75.13.11.22.28-.66-.02-.8-.34-.91-.59-.39-.42.19.07.28.13.27.14.27.09.62.21.32.03h-.12c-.38-.21-1.49-.65-1.2-.62-.63-.2-.29-.03.15.18-1.01-.49-1.61-.66-2.66-1.13.16.09.29.21.12.14-1.53-.69-.72-.19-1.78-.6-.57-.31.28-.08-.8-.45-.63-.31-.09-.18.18-.11-1-.3-1.79-.79-2.33-1.03l.52.17c-.31-.1-.56-.2-.82-.31l.25.21c-.29-.14-.55-.24-.53-.28-.33-.07.17.25-.47.08-.38-.21-1.24-.44-1.32-.62,1.24.55-.09-.18.98.23-.21-.07-.46-.17-.75-.31-.04-.03.05,0,.14.02-1.16-.6-.61-.09-1.85-.6.19,0-.24-.25-.45-.31.5.21.19.21-.29.08-.78-.38-.88-.31-1.3-.49l.47.22c-.19,0-.58-.17-1.15-.37-.03-.07.52.17.33.06-.67-.13-1.35-.69-2.24-.96-.38-.21.01-.14-.32-.32-1-.3-1.01-.52-2.05-.86.26.21.32.21-.44,0l1.69.61-1.12-.3c.5.21,1.09.37,1.38.51-.54-.13-.48-.13-.27.04-.63-.42-1.4-.47-2.16-.89l.12-.22c-1.16-.59-2.17-.75-3.71-1.44l.48.24c-.25,0-.97-.38-1.48-.54.08-.06-.23-.21-.42-.35,0,.07-1.14-.47-1.34-.37l-.65-.38c-1.24-.55-1.52-.37-2.72-.88.4.06-.13-.21.7.06-.4-.16-.76-.33-.79-.28-.22-.14-1.16-.35-1.5-.57-.18-.04-.27.02-.72-.17-.04-.04.02-.04.02-.04-.02.04-.73-.24-.37,0-1.14-.74-3.48-1.39-4.47-2.03-.89-.33-1.96-.74-2.76-1.06.06,0,.02-.04.17.03-1.07-.52-.77-.06-1.99-.64-.59-.38.69.2.31,0-.07-.32-1.53-.58-2.31-1.07l.21.07c-.61-.35-1.61-.54-2.66-.99,0,0,.06,0,.02-.04-.77-.16-2.15-.68-3.18-1.05.35.03.48.14.33-.04-.46-.17.07.21-.85-.13-.27-.17-.91-.49-.95-.63l.86.34c-.38-.32-1.11-.44-1.55-.65l.08-.04c-1.32-.51-1.4-.37-2.8-.95l.13.1c-.83-.16-.61-.35-1.42-.55l-.17-.25c-.52-.17-1.84-.58-2.76-.92.56.1,1.65.47,2.34.67-.5-.21-1.72-.68-2.01-.71.21.07.48.13.67.24-.67-.13-1.5-.4-2.5-.81.3-.22-2.58-1.14-3.22-1.66-1.82-.61-3.5-1.48-5.58-2.3.64.53-.61-.24-.57.05-.49-.18-.67-.26-.71-.29l-1.4-.73c-.32-.21.48.13.46.06-1.05-.45-.4-.28-1.07-.63.11.14-.42-.03-1-.3l.8.45c-1.52-.47-1.19-.71-2.73-1.19l.5.12c-.78-.27-2.81-1.14-3.63-1.26-.12-.08-.28-.22.07-.1-1.81-.77-4.14-1.44-5.5-2.14h.16c-.35-.12-.64-.13-1.04-.36.03-.01.16,0,0-.07-.19-.05-.94-.27-1.38-.48l.41.09c-1.75-.8-2.79-.95-4.3-1.51.07-.17-1.3-.79-1.99-1.1h.03c-2.06-.87-3.57-1.3-5.51-2.01-1.11-.67-4-1.71-5.87-2.59.28.15-.1.11-.45,0-.43-.22-1.29-.39-1.15-.51l.16.07c-.28-.29-1.21-.62-1.93-.92l-.2.16c-1.76-1.06-4.98-1.89-5.9-2.58-.47-.13-1.04-.36-1.51-.49l.07-.1c-1.25-.54-1.87-.81-3.44-1.41l.35.05c-.87-.36-1.24-.14-2.05-.46l-.18-.26c-1.53-.62-3.02-1.39-4.6-1.86.03-.01.1-.04.35.05-.72-.3-2.74-1.24-2.57-.91.04-.15-1.57-.66-2.43-.93l.17-.05c-.75-.15-.79-.12-1.78-.48-.23-.11-.17-.17.13-.02-.75-.37-.64-.14-1.55-.58l.38.07c-.79-.33-.74-.27-1.21-.36-.52-.16-1.49-.64-1.57-.78-.13.02-.6-.08-1.05-.3-.05-.06.13-.02.22,0-1.29-.61-2.02-.67-2.89-1.15,0-.04-.06-.09-.13-.13,1.05.43,1.9.78,1.81.76.04-.1-.8-.46-.07-.32-.71-.2-1.94-.51-2.75-.9-.04-.03-.07-.05-.1-.08l.09.02c-.19-.09-.36-.15-.53-.2-.26-.12-.42-.2-.67-.31-.06-.12-.96-.44-1.38-.62,0,.12-.56-.12-.07.18-.06-.04.09.02.37.13.07.02.14.05.19.06,0,0-.02,0-.03,0,.28.11.64.25,1.06.42-.36-.08-.73-.18-1.17-.43-.25-.02-.51-.04-.66-.07-.52-.39-1.6-.92-1.72-1.08-1.32-.46-3.06-1.2-3.96-1.32-.38-.12-.4-.23-.52-.32.22.07.47.17.6.19-.76-.25-2.19-.86-2.42-.79-.9-.44.57.08-.71-.41l.19.03c-2.41-1.24-4.22-1.29-6.88-2.71.19.1.28.14.31.18-3.11-1.41-6.57-2.53-9.62-4-.87-.4-1-.35-1.57-.5l-.15-.19-.98-.24c-1.35-.44-2.16-1.21-3.9-1.7l.18.17c-.59-.26-1.91-.72-1.78-.77-.07-.01-.23,0-.45-.13v-.07s-1.5-.49-1.5-.49c-1.12-.51.28-.17-1.38-.86-.63-.23-1.83-.54-1.61-.4.25.1.62.3.62.36l-.58-.2c-.18.14-.68.14.65.83l1.01.28.28.21-.81-.32c.43.27.75.32,1.1.4.06.08.18.17.37.26l1.02.21c.09.12-.48-.03.14.26.48.1-.36-.33.39-.08.43.27.27.28.84.43.06.08-.07.06-.29,0,.51.14,1.29.5,1.57.5.44.3,1.64.64,1.52.79.17.02.9.21,1.35.38-.89-.13,1.65.69,1.35.82.67.06,2.2.8,3.3,1.13-.07,0-.19-.03-.28-.07.59.26.74.38,1.11.57.14-.12,1.08.22,1.62.33.67.44-.52,0-.34.23.01-.14,1.32.39,1.11.19.52.32.47.24.7.48.17-.15.53.18,1.05.25.77.42.14.26,1.05.57.4.23-.42-.03-.42-.03ZM1810,164.79s0,0,0,0c-.18-.07-.34-.13-.44-.17.09.04.22.08.44.17ZM1811.78,165.51c-.21-.09-.48-.2-.77-.32-.05-.06.04-.07.21,0-.11-.01.3.18.56.32ZM1808.32,163.23c.29.1.37.16.4.2-.13-.05-.29-.11-.5-.19,0,0-.03,0-.04,0,.04,0,.07-.02.13,0Z"/>
      <path class="cls-8" d="M1807.76,163.17s-.07-.02-.12-.04c.05.03.11.06.16.09.04,0,.08,0,.11,0-.05-.02-.1-.04-.15-.06Z"/>
      <polygon class="cls-8" points="1836.28 175.7 1836.28 175.67 1836.12 175.63 1836.28 175.7"/>
      <path class="cls-8" d="M1917.09,208.57s0,0,0,0c-.04-.01-.07-.03-.11-.04l.1.04Z"/>
      <path class="cls-8" d="M1912.69,205.67l.09.18c.32.1.44,0-.09-.18Z"/>
      <path class="cls-8" d="M1894.8,198.56c-.17-.14-.66-.38-.99-.45.4.17.78.38.99.45Z"/>
      <polygon class="cls-8" points="1841.4 176.64 1841.78 176.75 1841.09 176.51 1841.4 176.64"/>
    </g>
    <g>
      <path class="cls-8" d="M1763.86,184.21s0-.01,0-.02c-.05,0-.06,0,0,.02Z"/>
      <path class="cls-8" d="M1755.98,180.38l.11.04s.04-.03.05-.05h-.16Z"/>
      <path class="cls-8" d="M1782.09,191.55c-.12-.08-.19-.15-.24-.21.06.11-.83-.22.24.21Z"/>
      <path class="cls-8" d="M1825.07,208.98l-.22-.08c.08.04.16.06.22.08Z"/>
      <path class="cls-8" d="M1781.85,191.33s0,0,0,0c0,0,0,0,0,0Z"/>
      <path class="cls-8" d="M1775.48,189.05c.91.37.48.03.71.03,1.1.4.46.31.8.53.69.24,1.26.32,1.76.53.03.04.12.09,0,.07.76.18,2.12.86,3.01,1.05.06.04.08.06.09.08-.11-.13-.1-.21-.05-.25.41.16.79.22.91.37-.25-.1-.28-.07-.41-.09l.44.13c.33.29-.6-.19-.64-.09.85.29,1.86.58,2.48.87.08.18-1.51-.56-.7-.1l-.96-.45c.67.51-.59-.26,0,.24,1.28.56,1.48.52,2.75,1.09.32.05-.05-.15.27-.1,1.89.62,1.31.92,2.73,1.29.39.05.59-.06,1.51.42h-.39c1.25.54.8.09,2.08.73-.26-.04-1.01-.35-.82-.26.8.46.64.16,1.29.43l.08.19c1.34.52,2.85,1.02,4.34,1.6-.1,0-.37-.06-.04.12,1.89.69,3.98,1.63,5.75,2.44l.73.17c.16.07.28.17.09.12.68.33.07-.06.42.04.4.15.5.28.23.21,1.28.41,3.61,1.23,4.87,1.88l-.27-.07c1,.46,1.24.23,2.14.72l-.19-.05c2.18.94,4.66,1.83,6.28,2.68.39-.03,2.15.96,2.39.79,1.21.62.84.52,2.58,1.31.47.2.76.14,1.36.36l-.03.12.85.2.37.31.56.19c-.22-.1-.44-.24-.4-.26.88.29,2.06.93,2.05,1l2.07.72c-.06.03-.41-.09-.69-.17,1.13.32.15.2,1.18.5-.12-.08.1-.04.13-.06.47.27,1.59.73,2.44,1.04l-.19.02c1.5.63,3.19,1.25,4.88,1.94-.59-.28-.39-.37.11-.18l.15.21c.35.05-.5-.26.2-.09.62.27.37.31-.01.21l.78.27c.03.06-.16,0-.22.03.35.05,1.27.66,1.78.71l.03.05c1.69.69,2.47.95,3.85,1.51.07-.1.6.15,1.04.22,1,.44,2.08.99,3.31,1.47.88.29.29,0,.7.1.02.12,1.24.61.58.42,1.47.58,1.88.74,3.76,1.41-.18-.12-.4-.23-.27-.22.34.12.75.35.68.38l-.09-.03c2.14.69,4.67,2.23,6.41,2.7l-.1-.03,1.76.59c.78.34-.5-.12.06.18,1.92.59,2.91,1.21,4.48,1.72,1.06.77,4.19,1.68,5.7,2.51l-.06-.11c.44.1.48.24.78.38-.02-.07-.42-.24-.15-.18,3.52,1.33,7.15,3.02,10.69,4.53,1.3.55.88-.05,2.46.78l-.52-.06c2.7.92,5.39,2.19,8.02,3.11-.17-.03-.19,0-.44-.1.51.31,2.01.82,2.05.75.4.17.07.11.3.24.52.28,1.42.44,1.67.65.04.03-.17-.03-.27-.07.37.1,1.65.69,1.36.44.95.44,1.87.7,2.62,1.08.55.09,1.63.73,1.86.63-.14.15,1.64.83,2.29,1-.23-.03.51.27.24.25.7.28,1.35.51,1.27.37,1.2.73,2.65.88,3.27,1.44,2.11.75,4.06,1.47,5.94,2.18-.14.15-2.07-.82-2.06-.61,1.8.65,2.88.91,4.62,1.67.44.21-.29-.03-.45-.06,1.8.65,3.41,1.4,5.03,1.95-.01.01-.19-.04-.35-.09.31.12.71.32.71.23l-.31-.1c-.45-.32,1.33.26,1.41.22-.62.01,1.53.69.58.63.21.07.48.13.46.06.3.14.38.21.05.14,1.13.41.77.16,1.77.57-.02.04-.23-.03-.35-.03.54.13,1.08.27,1.92.64-.06,0,.03.07-.23-.03,1.47.58,2.57.81,4.14,1.54-.54-.03.52.28.55.45l.88.31-.32-.21c.75.31,1.46.48,2.09.79l-.59-.17,1.43.55-.78-.38c.79.24,0-.22.98.23-.21-.07.75.31,1.11.55,0,0,0,0,0,0,.39.11.8.21,1.34.48.13.1-.18.11-.1.18.42.03,1.78.68,2.3.75-.17-.03-.21.04-.16.08l.35.03c.34.17.38.21.3.25,1.04.44-.26-.32.96.27-.1-.03-.06,0-.27-.07,1.24.55,2.45.92,3.58,1.44.28.28-1.02-.37-.68-.09,1.67.65,3.51,1.22,5.1,1.91l-.29-.14c.31-.11,1.16.59,2.01.82-.21-.07-.31,0-.24,0,1.09.48,2.27.86,3.97,1.48l-.23-.03c.63.31,1.7.72,2.39,1.03.23.03.63.2.41.03,2.04,1.18,4.19,1.51,6,2.54-.23-.09-.57-.18-.38-.1l1.65.61c-.09-.14-.19-.14-.51-.35.23.03.71.18,1.11.34-.76-.24-.05.15.25.32-.04-.05.08-.03.06-.07.79.5.22-.12,1.34.46l-.08.02c.45.15.87.25,1.34.46.15.18-.48-.14-.55-.07.66.26,1.38.33,1.94.68-.29-.09-.7-.25-.99-.33.6.39.69.39,1.17.6l-.05-.02,1.1.51-.27-.15c.94.07,1.7.63,2.89.91-1.15-.27-.22.02-.35.11.27.15.69.36.55.34.56.12.85.43,1.65.59.02.05.56.23.4.28.7.25-.14-.13-.06-.15,1.11.3,2.42,1.16,4,1.6,1.34.46,1.63.43,2.87.86.39.23-.39,0-.39,0,.64.32,1.14.52,1.78.73-.14-.02-.02.06.15.18.5.19.39,0,1.03.32-.13,0-.3,0-.56-.05.6.2,1.21.37,1.84.58.14.13-.41-.05-.64-.09.7.25,1.8.66,2.05.64l-.42-.22c.25.1.09.14-.1.09-.62-.16-.83-.38-.85-.43l.44.15c-.36-.4-1.76-.67-2.63-1.04h.43s-.95-.24-.95-.24c-.17-.12-.27-.26.17-.11-.59-.33-.58-.17-1.08-.48-.05-.04-.02-.03.03-.02l-.63-.2c.13.02-.06-.15.31.02-1.06-.54-1.82-.6-2.19-.89l.1.03c-1.55-.56-.2.06-1.39-.27l-.65-.6-.2.06c-.16-.07-.46-.2-.39-.23-.62-.16.08.09-.29.03-.71-.41-2.11-.8-2.2-1.05-.31-.02.7.36-.14.1-.15-.3-.95-.34-1.6-.72.25-.02.89.3.23-.07-.49,0-1.33-.59-1.93-.79-.08.13-1.29-.46-2.29-.81.08-.02-1.81-.82-2.7-1.25h.04c-.23.06-1.16-.35-1.86-.6.06-.07.2-.06.58.06l-.64-.26c-.17-.02-.38-.07-.8-.23l.2-.04c-.86-.34-1.77-.58-2.85-1.09-.1.07.76.63-.43.22-.02-.07-.03-.18.29-.08-.1-.03-.37-.1-.57-.2l.5.1c-.49-.24-.29-.03-.69-.2.04-.07-.27-.17-.19-.21.11.03.34.17.5.21-.45-.2-.97-.46-1.13-.6.02.06-.04.1-.38-.02-.86-.34-.26-.21-.74-.45-.23-.03-.75-.31-.81-.2-.25-.1-.28-.17-.36-.24-.46-.13-2.07-.83-1.62-.5l.11.05s-.05-.02-.07-.02h0s0,0,0,0c-1.5-.48-2.99-1.29-4.45-1.82l.02-.04c-.88-.31-1.92-.75-2.57-.92-.25-.1-.57-.31-.44-.31-.67-.24-.76-.23-1.68-.67.69.2-.2-.15.7.23-.84-.38-1.01-.52-1.97-.79.35.03-.59-.38-1.01-.52l.57.31c-.46-.17-.86-.34-1.26-.51l.27-.04c-1.68-.87-3.26-1.01-4.48-1.82-.5-.1.92.45.47.39-.8-.34-1.56-.87-1.81-.97-1.07-.52-1.1-.23-2.24-.75.13.11.22.28-.66-.02-.8-.34-.91-.59-.39-.42.19.07.28.13.27.14.27.09.62.21.32.03h-.12c-.38-.21-1.49-.65-1.2-.62-.63-.2-.29-.03.15.18-1.01-.49-1.61-.66-2.66-1.13.16.09.29.21.12.14-1.53-.69-.72-.19-1.78-.6-.57-.31.28-.08-.8-.45-.63-.31-.09-.18.18-.11-1-.3-1.79-.79-2.33-1.03l.52.17c-.31-.1-.56-.2-.82-.31l.25.21c-.29-.14-.55-.24-.53-.28-.33-.07.17.25-.47.08-.38-.21-1.24-.44-1.32-.62,1.24.55-.09-.18.98.23-.21-.07-.46-.17-.75-.31-.04-.03.05,0,.14.02-1.16-.6-.61-.09-1.85-.6.19,0-.24-.25-.45-.31.5.21.19.21-.29.08-.78-.38-.88-.31-1.3-.49l.47.22c-.19,0-.58-.17-1.15-.37-.03-.07.52.17.33.06-.67-.13-1.35-.69-2.24-.96-.38-.21.01-.14-.32-.32-1-.3-1.01-.52-2.05-.86.26.21.32.21-.44,0l1.69.61-1.12-.3c.5.21,1.09.37,1.38.51-.54-.13-.48-.13-.27.04-.63-.42-1.4-.47-2.16-.89l.12-.22c-1.16-.59-2.17-.75-3.71-1.44l.48.24c-.25,0-.96-.38-1.48-.54.08-.06-.23-.21-.42-.35,0,.07-1.14-.47-1.34-.37l-.65-.38c-1.24-.55-1.52-.37-2.72-.88.4.06-.13-.21.7.06-.4-.16-.76-.33-.79-.28-.22-.14-1.16-.35-1.5-.57-.18-.04-.27.02-.72-.17-.04-.04.02-.04.02-.04-.02.04-.73-.24-.37,0-1.14-.74-3.48-1.39-4.47-2.03-.89-.33-1.96-.74-2.76-1.06.06,0,.02-.04.17.03-1.07-.52-.77-.06-1.99-.64-.59-.38.69.2.31,0-.07-.32-1.53-.58-2.31-1.07l.21.07c-.61-.35-1.61-.54-2.66-.99,0,0,.06,0,.02-.04-.77-.16-2.15-.68-3.18-1.05.35.03.48.14.33-.04-.46-.17.07.21-.85-.13-.27-.17-.91-.49-.95-.63l.86.34c-.38-.32-1.11-.44-1.55-.65l.08-.04c-1.32-.51-1.4-.37-2.8-.95l.13.1c-.83-.16-.61-.35-1.42-.55l-.17-.25c-.52-.17-1.84-.58-2.76-.92.56.1,1.65.47,2.34.67-.5-.21-1.72-.68-2.01-.71.21.07.48.13.67.24-.67-.13-1.5-.4-2.5-.81.3-.22-2.58-1.14-3.22-1.66-1.82-.61-3.5-1.48-5.58-2.3.64.53-.61-.24-.57.05-.49-.18-.67-.26-.71-.29l-1.4-.73c-.32-.21.48.13.46.06-1.05-.45-.4-.28-1.07-.63.11.14-.42-.03-1-.3l.8.45c-1.52-.47-1.19-.71-2.73-1.19l.5.12c-.78-.27-2.81-1.14-3.63-1.26-.12-.08-.28-.22.07-.1-1.81-.77-4.14-1.44-5.5-2.14h.16c-.35-.12-.64-.13-1.04-.36.03-.01.16,0,0-.07-.19-.05-.94-.27-1.38-.48l.41.09c-1.75-.8-2.79-.95-4.3-1.51.07-.17-1.3-.79-1.99-1.1h.03c-2.06-.87-3.57-1.3-5.51-2.01-1.11-.67-4-1.71-5.87-2.59.28.15-.1.11-.45,0-.43-.22-1.29-.39-1.15-.51l.16.07c-.28-.29-1.21-.62-1.93-.92l-.2.16c-1.76-1.06-4.98-1.89-5.9-2.58-.47-.13-1.04-.36-1.51-.49l.07-.1c-1.25-.54-1.87-.81-3.44-1.41l.35.05c-.87-.36-1.24-.14-2.05-.46l-.18-.26c-1.53-.62-3.02-1.39-4.6-1.86.03-.01.1-.04.35.05-.72-.3-2.74-1.24-2.57-.91.04-.15-1.57-.66-2.43-.93l.17-.06c-.75-.15-.79-.12-1.78-.48-.23-.11-.17-.17.13-.02-.75-.37-.64-.14-1.55-.58l.38.07c-.79-.33-.74-.27-1.21-.36-.52-.16-1.49-.64-1.57-.78-.13.02-.6-.08-1.05-.3-.05-.06.13-.02.22,0-1.29-.61-2.02-.67-2.89-1.15,0-.04-.06-.09-.13-.13,1.05.43,1.9.78,1.81.76.04-.1-.8-.46-.07-.32-.71-.2-1.94-.51-2.75-.9-.04-.03-.07-.05-.1-.08l.09.02c-.19-.09-.36-.15-.53-.2-.26-.12-.42-.2-.67-.31-.06-.12-.96-.44-1.38-.62,0,.12-.56-.12-.07.18-.06-.04.09.02.37.13.06.02.14.05.19.06,0,0-.02,0-.03,0,.28.11.64.25,1.06.42-.36-.08-.73-.18-1.17-.43-.25-.02-.51-.04-.66-.07-.52-.39-1.6-.92-1.72-1.08-1.32-.46-3.06-1.2-3.96-1.32-.38-.12-.4-.23-.52-.32.22.07.47.17.6.19-.76-.25-2.19-.86-2.42-.79-.9-.44.57.08-.71-.41l.19.03c-2.41-1.24-4.22-1.29-6.88-2.71.19.1.28.14.31.18-3.11-1.41-6.58-2.53-9.62-4-.87-.4-1-.35-1.57-.5l-.15-.19-.98-.24c-1.35-.44-2.16-1.21-3.9-1.7l.18.17c-.59-.26-1.91-.72-1.78-.77-.07-.01-.23,0-.45-.13v-.07s-1.5-.49-1.5-.49c-1.12-.51.28-.17-1.38-.86-.63-.23-1.83-.54-1.61-.4.25.1.62.3.62.36l-.58-.2c-.18.14-.68.14.65.83l1.01.28.28.21-.82-.32c.43.27.75.32,1.1.4.06.08.18.17.37.26l1.02.21c.09.12-.48-.03.14.26.48.1-.36-.33.39-.08.43.27.27.28.84.43.06.08-.07.06-.29,0,.51.14,1.29.5,1.57.5.44.3,1.64.64,1.52.79.17.02.9.21,1.35.38-.89-.13,1.65.69,1.35.82.67.06,2.2.8,3.3,1.13-.07,0-.19-.03-.28-.07.59.26.74.38,1.11.57.14-.12,1.08.22,1.62.33.67.44-.52,0-.34.23.01-.14,1.32.39,1.11.19.52.32.47.24.7.48.17-.15.53.18,1.05.25.77.42.14.26,1.05.57.4.23-.42-.03-.42-.03ZM1796.79,197.32s0,0,0,0c-.18-.07-.34-.13-.44-.17.09.04.22.08.44.17ZM1798.57,198.04c-.22-.09-.48-.2-.77-.32-.05-.06.04-.07.21,0-.11-.01.3.18.56.32ZM1795.11,195.76c.29.1.37.16.4.2-.13-.05-.29-.11-.5-.19,0,0-.03,0-.04,0,.04,0,.07-.02.13,0Z"/>
      <path class="cls-8" d="M1794.55,195.7s-.07-.02-.12-.04c.05.03.11.06.16.09.04,0,.08,0,.11,0-.05-.02-.1-.04-.15-.06Z"/>
      <polygon class="cls-8" points="1823.07 208.23 1823.08 208.2 1822.91 208.16 1823.07 208.23"/>
      <polygon class="cls-8" points="1828.19 209.17 1828.57 209.28 1827.88 209.04 1828.19 209.17"/>
    </g>
    <text class="cls-10" transform="translate(1870.71 28.04) rotate(22.1)"><tspan x="0" y="0">Grocery List</tspan></text>
    <text class="cls-10" transform="translate(1808.56 42.97) rotate(22.1)"><tspan x="0" y="0">Apples</tspan><tspan x="0" y="35.9">Bread</tspan><tspan x="0" y="71.8">Cheese</tspan><tspan x="0" y="107.69">Milk</tspan><tspan x="0" y="143.59">Eggs</tspan></text>
  </g>
</svg>