<?xml version="1.0" encoding="UTF-8"?>
<svg xmlns="http://www.w3.org/2000/svg" xmlns:xlink="http://www.w3.org/1999/xlink" viewBox="0 0 2217 210">
  <defs>
    <style>
      .cls-1 {
        fill: gray;
      }

      .cls-1, .cls-2, .cls-3, .cls-4, .cls-5, .cls-6, .cls-7, .cls-8, .cls-9, .cls-10, .cls-11, .cls-12, .cls-13, .cls-14, .cls-15, .cls-16, .cls-17, .cls-18, .cls-19, .cls-20, .cls-21, .cls-22, .cls-23, .cls-24, .cls-25 {
        stroke: #000;
      }

      .cls-1, .cls-6 {
        stroke-width: 1.09px;
      }

      .cls-2 {
        fill: url(#radial-gradient-2);
      }

      .cls-2, .cls-11 {
        stroke-width: 2.21px;
      }

      .cls-3 {
        fill: #ddd70e;
      }

      .cls-3, .cls-4, .cls-8, .cls-9, .cls-10, .cls-13, .cls-14, .cls-18, .cls-19, .cls-20, .cls-21, .cls-22, .cls-23, .cls-25 {
        stroke-width: 2px;
      }

      .cls-3, .cls-8, .cls-13, .cls-14, .cls-18, .cls-20, .cls-22, .cls-23, .cls-25 {
        stroke-linecap: round;
        stroke-linejoin: round;
      }

      .cls-4 {
        fill: url(#linear-gradient);
      }

      .cls-5 {
        fill: #e6e6e6;
      }

      .cls-5, .cls-7, .cls-9, .cls-10, .cls-12, .cls-15, .cls-16, .cls-17, .cls-21, .cls-24 {
        stroke-miterlimit: 10;
      }

      .cls-6 {
        fill: #4d4d4d;
      }

      .cls-7 {
        fill: #ccc;
      }

      .cls-8 {
        fill: #2e9938;
      }

      .cls-9 {
        fill: url(#linear-gradient-3);
      }

      .cls-11 {
        fill: url(#radial-gradient);
      }

      .cls-26 {
        fill: #202020;
      }

      .cls-26, .cls-27 {
        stroke-width: 0px;
      }

      .cls-12 {
        fill: #b3b3b3;
      }

      .cls-13, .cls-27 {
        fill: #c098d5;
      }

      .cls-14 {
        fill: #c6abd8;
      }

      .cls-15 {
        fill: #aeff8a;
        stroke-width: 3px;
      }

      .cls-16, .cls-17 {
        fill: #fff;
      }

      .cls-17 {
        stroke-width: .42px;
      }

      .cls-18 {
        fill: #53c15e;
      }

      .cls-19 {
        fill: url(#linear-gradient-2);
      }

      .cls-20 {
        fill: #a67fbf;
      }

      .cls-21 {
        fill: url(#linear-gradient-4);
      }

      .cls-22 {
        fill: #39b54a;
      }

      .cls-23 {
        fill: #ff0;
      }

      .cls-24 {
        fill: #f2f2f2;
      }

      .cls-25 {
        fill: #fffc94;
      }
    </style>
    <linearGradient id="linear-gradient" x1="1814" y1="149.5" x2="1950" y2="149.5" gradientUnits="userSpaceOnUse">
      <stop offset="0" stop-color="#999"/>
      <stop offset="1" stop-color="#b3b3b3"/>
    </linearGradient>
    <linearGradient id="linear-gradient-2" x1="1950" y1="149.57" x2="2086" y2="149.43" gradientUnits="userSpaceOnUse">
      <stop offset="0" stop-color="#b3b3b3"/>
      <stop offset="1" stop-color="#999"/>
    </linearGradient>
    <radialGradient id="radial-gradient" cx="1932" cy="153.5" fx="1932" fy="153.5" r="34.88" gradientTransform="translate(0 -22.73) scale(1 1.22)" gradientUnits="userSpaceOnUse">
      <stop offset="0" stop-color="#b3b3b3"/>
      <stop offset="1" stop-color="#999"/>
    </radialGradient>
    <radialGradient id="radial-gradient-2" cx="1967" cy="153.5" fx="1967" fy="153.5" r="34.88" gradientTransform="translate(0 -22.73) scale(1 1.22)" gradientUnits="userSpaceOnUse">
      <stop offset="0" stop-color="#b3b3b3"/>
      <stop offset="1" stop-color="#999"/>
    </radialGradient>
    <linearGradient id="linear-gradient-3" x1="110" y1="146.5" x2="168" y2="146.5" gradientUnits="userSpaceOnUse">
      <stop offset="0" stop-color="#d8aa2a"/>
      <stop offset=".07" stop-color="#e1b640"/>
      <stop offset=".16" stop-color="#eac358"/>
      <stop offset=".26" stop-color="#f1cd69"/>
      <stop offset=".37" stop-color="#f5d373"/>
      <stop offset=".5" stop-color="#f7d577"/>
      <stop offset=".64" stop-color="#f5d373"/>
      <stop offset=".74" stop-color="#f2ce6a"/>
      <stop offset=".84" stop-color="#ebc559"/>
      <stop offset=".93" stop-color="#e3b842"/>
      <stop offset="1" stop-color="#daac2b"/>
    </linearGradient>
    <linearGradient id="linear-gradient-4" x1="364" y1="145.5" x2="422" y2="145.5" gradientUnits="userSpaceOnUse">
      <stop offset="0" stop-color="#29abe2"/>
      <stop offset=".08" stop-color="#1ac8ec"/>
      <stop offset=".17" stop-color="#0ee0f4"/>
      <stop offset=".27" stop-color="#06f1fa"/>
      <stop offset=".37" stop-color="#01fbfd"/>
      <stop offset=".5" stop-color="aqua"/>
      <stop offset=".63" stop-color="#01fbfd"/>
      <stop offset=".74" stop-color="#06f2fa"/>
      <stop offset=".83" stop-color="#0ee1f4"/>
      <stop offset=".91" stop-color="#19caec"/>
      <stop offset="1" stop-color="#28ace2"/>
      <stop offset="1" stop-color="#29abe2"/>
    </linearGradient>
  </defs>
  <g id="Layer_1" data-name="Layer 1">
    <g>
      <g>
        <rect class="cls-27" x="1719.22" y="-275.53" width="339.04" height="303.72" transform="translate(1292.82 1672.85) rotate(-67.9)"/>
        <g>
          <line class="cls-27" x1="1729.55" y1="-64.53" x2="1964.77" y2="30.96"/>
          <g>
            <path class="cls-27" d="M1964.66,31.22c.14.02.1-.09-.25-.21l-.29.03.54.18Z"/>
            <path class="cls-27" d="M1962.46,30.05c-.43-.1-.93-.18-.72.04.45.04.52.13,1.01.16.35.12.58.28.5.31.13.02.52.24.74.24-.4-.28-.97-.51-1.59-.67-.11-.08.02-.06.06-.07Z"/>
            <path class="cls-27" d="M1929.19,16.31l.21.1c-.06-.03-.13-.07-.21-.1Z"/>
            <path class="cls-27" d="M1908.55,7.85c.16.06.23.07.24.07-.15-.05-.27-.09-.24-.07Z"/>
            <path class="cls-27" d="M1905.08,6.28c.07.03.14.06.2.09-.07-.04-.15-.08-.2-.09Z"/>
            <path class="cls-27" d="M1929.19,16.31l-.54-.26c-.06.03.27.15.54.26Z"/>
            <path class="cls-27" d="M1957.74,28.49c.12.04.22.07.31.09-.1-.03-.19-.07-.29-.1,0,0-.01,0-.03.01Z"/>
            <path class="cls-27" d="M1938.34,19.91l.17.07c.06,0,.11,0,.16,0l-.33-.07Z"/>
            <path class="cls-27" d="M1945.34,22.73c-.16-.07-.26.02-.33.04.11,0,.23.02.38.07.01-.02,0-.05-.04-.11Z"/>
            <path class="cls-27" d="M1956.35,27.42l.2.07c-.05-.02-.14-.05-.2-.07Z"/>
            <path class="cls-27" d="M1933.34,17.85s-.02-.05-.05-.06c0,.01.01.04.05.06Z"/>
            <path class="cls-27" d="M1898.67,3.52s.02,0,.03.01c.17.06.08.02-.03-.01Z"/>
            <path class="cls-27" d="M1957.56,28.41c-.09-.04-.19-.08-.29-.12.13.06.22.09.29.12Z"/>
            <path class="cls-27" d="M1894.79,2.2l-.27-.13c.1.05.19.09.27.13Z"/>
            <path class="cls-27" d="M1957.76,28.43s-.1,0-.2-.03c.07.03.14.05.2.08.02,0,.03-.02,0-.05Z"/>
            <path class="cls-27" d="M1749.06-55.89c.91.37.48.03.71.03,1.1.4.46.31.8.53.69.24,1.26.32,1.76.53.03.04.12.09,0,.07.76.18,2.12.86,3.01,1.05.06.04.08.06.09.08-.11-.13-.1-.21-.05-.25.41.16.79.22.91.37-.25-.1-.28-.07-.41-.09l.44.13c.33.29-.6-.19-.64-.09.85.29,1.86.58,2.48.87.08.18-1.51-.56-.7-.1l-.96-.45c.67.51-.59-.26,0,.24,1.28.56,1.48.52,2.75,1.09.32.05-.05-.15.27-.1,1.89.62,1.31.92,2.73,1.29.39.05.59-.06,1.51.42h-.39c1.25.54.8.09,2.08.73-.26-.04-1.01-.35-.82-.26.8.46.64.16,1.29.43l.08.19c1.34.52,2.85,1.02,4.34,1.6-.1,0-.37-.06-.04.12,1.89.69,3.98,1.63,5.75,2.44l.73.17c.16.07.28.17.09.12.68.33.07-.06.42.04.4.15.5.28.23.21,1.28.41,3.61,1.23,4.87,1.88l-.27-.07c1,.46,1.24.23,2.14.72l-.19-.05c2.18.94,4.66,1.83,6.28,2.68.39-.03,2.15.96,2.39.79,1.21.62.84.52,2.58,1.31.47.2.76.14,1.36.36l-.03.12.85.2.37.31.56.19c-.22-.1-.44-.24-.4-.26.88.29,2.06.93,2.05,1l2.07.72c-.06.03-.41-.09-.69-.17,1.13.32.15.2,1.18.5-.12-.08.1-.04.13-.06.47.27,1.59.73,2.44,1.04l-.19.02c1.5.63,3.19,1.25,4.88,1.94-.59-.28-.39-.37.11-.18l.15.21c.35.05-.5-.26.2-.09.62.27.37.31-.01.21l.78.27c.03.06-.16,0-.22.03.35.05,1.27.66,1.78.71l.03.05c1.69.69,2.47.95,3.85,1.51.07-.1.6.15,1.04.22,1,.44,2.08.99,3.31,1.47.88.29.29,0,.7.1.02.12,1.24.61.58.42,1.47.58,1.87.74,3.76,1.41-.18-.12-.4-.23-.27-.22.34.12.75.35.68.38l-.09-.03c2.13.69,4.67,2.23,6.41,2.7l-.1-.03,1.76.59c.78.34-.5-.12.06.18,1.92.59,2.91,1.21,4.48,1.72,1.06.77,4.19,1.68,5.7,2.51l-.06-.11c.44.1.48.24.78.38-.02-.07-.42-.24-.15-.18,3.52,1.33,7.15,3.02,10.69,4.53,1.3.55.88-.05,2.46.78l-.52-.06c2.7.92,5.39,2.19,8.02,3.11-.17-.03-.19,0-.44-.1.51.31,2.01.82,2.05.75.4.17.07.11.3.24.52.28,1.42.44,1.67.65.04.03-.17-.03-.27-.07.37.1,1.65.69,1.36.44.95.44,1.87.7,2.62,1.08.55.09,1.63.73,1.86.63-.14.15,1.64.83,2.29,1-.23-.03.51.27.24.25.7.28,1.35.51,1.27.37,1.2.73,2.65.88,3.27,1.44,2.11.75,4.06,1.47,5.94,2.18-.14.15-2.07-.82-2.06-.61,1.8.65,2.88.91,4.62,1.67.44.21-.29-.03-.45-.06,1.8.65,3.41,1.4,5.03,1.95-.01.01-.19-.04-.35-.09.31.12.71.32.71.23l-.31-.1c-.45-.32,1.33.26,1.41.22-.62.01,1.53.69.58.63.21.07.48.13.46.06.3.14.38.21.05.14,1.13.41.77.16,1.77.57-.02.04-.23-.03-.35-.03.54.13,1.08.27,1.92.64-.06,0,.03.07-.23-.03,1.47.58,2.57.81,4.14,1.54-.54-.03.52.28.55.45l.88.31-.32-.21c.75.31,1.46.48,2.09.79l-.59-.17,1.43.55-.78-.38c.79.24,0-.22.98.23-.21-.07.75.31,1.11.55,0,0,0,0,0,0,.39.11.8.21,1.34.48.13.1-.18.11-.1.18.42.03,1.78.68,2.3.75-.17-.03-.21.04-.16.08l.35.03c.34.17.38.21.3.25,1.04.44-.26-.32.96.27-.1-.03-.06,0-.27-.07,1.24.55,2.45.92,3.58,1.44.28.28-1.02-.37-.68-.09,1.67.65,3.51,1.22,5.1,1.91l-.29-.14c.31-.11,1.16.59,2.01.82-.21-.07-.31,0-.24,0,1.09.48,2.27.86,3.97,1.48l-.23-.03c.63.31,1.7.72,2.39,1.03.23.03.63.2.41.03,2.04,1.18,4.19,1.51,6,2.54-.23-.09-.57-.18-.38-.1l1.65.61c-.09-.14-.19-.14-.51-.35.23.03.71.18,1.11.34-.76-.24-.05.15.25.32-.04-.05.08-.03.06-.07.79.5.22-.12,1.34.46l-.08.02c.45.15.87.25,1.34.46.15.18-.48-.14-.55-.07.66.26,1.38.33,1.94.68-.29-.09-.7-.25-.99-.33.6.39.69.39,1.17.6l-.05-.02,1.1.51-.27-.15c.94.07,1.7.63,2.89.91-1.15-.27-.22.02-.35.11.27.15.69.36.55.34.56.12.85.43,1.65.59.02.05.56.23.4.28.7.25-.14-.13-.06-.15,1.11.3,2.42,1.16,4,1.6,1.34.46,1.63.43,2.87.86.39.23-.39,0-.39,0,.64.32,1.14.52,1.78.73-.14-.02-.02.06.15.18.5.19.39,0,1.03.32-.13,0-.3,0-.56-.05.6.2,1.21.37,1.84.58.14.13-.41-.05-.64-.09.7.25,1.8.66,2.05.64l-.42-.22c.25.1.09.14-.1.09-.62-.16-.83-.38-.85-.43l.44.15c-.36-.4-1.76-.67-2.63-1.04h.43s-.95-.24-.95-.24c-.17-.12-.27-.26.17-.11-.59-.33-.58-.17-1.08-.48-.05-.04-.02-.03.03-.02l-.63-.2c.13.02-.06-.15.31.02-1.06-.54-1.82-.6-2.19-.89l.1.03c-1.55-.56-.2.06-1.39-.27l-.65-.6-.2.06c-.16-.07-.46-.2-.39-.23-.62-.16.08.09-.29.03-.71-.41-2.11-.8-2.2-1.05-.31-.02.7.36-.14.1-.15-.29-.95-.34-1.6-.72.25-.02.89.3.23-.07-.49,0-1.33-.59-1.93-.79-.08.13-1.29-.46-2.29-.81.08-.02-1.81-.82-2.7-1.24h.04c-.23.06-1.16-.35-1.86-.6.06-.07.2-.06.58.06l-.64-.26c-.17-.02-.38-.07-.8-.23l.2-.04c-.86-.34-1.77-.58-2.85-1.09-.1.07.76.63-.43.22-.02-.07-.03-.18.29-.08-.1-.03-.37-.1-.57-.2l.5.1c-.49-.24-.29-.03-.69-.2.04-.07-.27-.17-.19-.21.11.03.34.17.5.21-.45-.2-.97-.46-1.13-.6.02.06-.04.1-.38-.02-.86-.34-.26-.21-.74-.45-.23-.03-.75-.31-.81-.2-.25-.1-.28-.17-.36-.24-.46-.13-2.07-.83-1.62-.5l.11.05s-.05-.02-.07-.02h0s0,0,0,0c-1.5-.48-2.99-1.29-4.45-1.82l.02-.04c-.88-.31-1.92-.75-2.57-.92-.25-.1-.57-.31-.44-.31-.67-.24-.76-.23-1.68-.67.69.2-.2-.15.7.23-.84-.38-1.01-.52-1.97-.79.35.03-.59-.38-1.01-.52l.57.31c-.46-.17-.86-.34-1.26-.51l.27-.04c-1.68-.87-3.26-1.01-4.48-1.82-.5-.1.92.45.47.39-.8-.34-1.56-.87-1.81-.97-1.07-.52-1.1-.23-2.24-.75.13.11.22.28-.66-.02-.8-.34-.91-.59-.39-.42.19.07.28.13.27.14.27.09.62.21.32.03h-.12c-.38-.21-1.49-.65-1.2-.62-.63-.2-.29-.03.15.18-1-.49-1.61-.66-2.66-1.13.16.09.29.21.12.14-1.53-.69-.72-.19-1.78-.6-.57-.31.28-.08-.8-.45-.63-.31-.09-.18.18-.11-1-.3-1.79-.79-2.33-1.03l.52.17c-.31-.1-.56-.2-.82-.31l.25.21c-.29-.14-.55-.24-.53-.28-.33-.07.17.25-.47.08-.38-.21-1.24-.44-1.32-.62,1.24.55-.09-.18.98.23-.21-.07-.46-.17-.75-.31-.04-.03.05,0,.14.02-1.16-.6-.61-.09-1.85-.6.19,0-.24-.25-.45-.31.5.21.19.21-.29.08-.78-.38-.88-.31-1.3-.49l.47.22c-.19,0-.58-.17-1.15-.37-.03-.07.52.17.33.06-.67-.13-1.35-.69-2.24-.96-.38-.21.01-.14-.32-.32-1-.3-1.01-.52-2.05-.86.26.21.32.21-.44,0l1.69.61-1.12-.3c.5.21,1.09.37,1.38.51-.54-.13-.48-.13-.27.04-.63-.42-1.4-.47-2.16-.89l.12-.22c-1.16-.59-2.17-.75-3.71-1.44l.48.24c-.25,0-.97-.38-1.48-.54.08-.06-.23-.21-.42-.35,0,.07-1.14-.47-1.34-.37l-.65-.38c-1.24-.55-1.52-.37-2.72-.88.4.07-.13-.21.7.06-.4-.16-.76-.33-.79-.28-.22-.14-1.16-.35-1.5-.57-.18-.04-.27.02-.72-.17-.04-.04.02-.04.02-.04-.02.04-.73-.24-.37,0-1.14-.74-3.48-1.39-4.47-2.03-.89-.33-1.96-.74-2.76-1.06.06,0,.02-.04.17.03-1.07-.52-.77-.06-1.99-.64-.59-.38.69.2.31,0-.07-.32-1.53-.58-2.31-1.07l.21.07c-.61-.35-1.61-.54-2.66-.99,0,0,.06,0,.02-.04-.77-.16-2.15-.68-3.18-1.05.35.03.48.14.33-.04-.46-.17.07.21-.85-.13-.27-.17-.91-.49-.95-.63l.86.34c-.38-.32-1.11-.44-1.55-.65l.08-.04c-1.32-.51-1.4-.37-2.8-.95l.13.1c-.83-.16-.61-.35-1.42-.55l-.17-.25c-.52-.17-1.84-.58-2.76-.92.56.1,1.65.47,2.34.67-.5-.21-1.72-.68-2.01-.71.21.07.48.13.67.24-.67-.13-1.5-.4-2.5-.81.3-.22-2.58-1.14-3.22-1.66-1.82-.61-3.5-1.48-5.58-2.3.64.53-.61-.24-.57.05-.49-.18-.67-.26-.71-.29l-1.4-.73c-.32-.21.48.13.46.06-1.05-.45-.4-.28-1.07-.63.11.14-.42-.03-1-.3l.8.45c-1.52-.47-1.19-.71-2.73-1.19l.5.12c-.78-.27-2.81-1.14-3.63-1.26-.12-.08-.28-.22.07-.1-1.81-.77-4.14-1.44-5.5-2.14h.16c-.35-.12-.64-.13-1.04-.36.03-.01.16,0,0-.07-.19-.05-.94-.27-1.38-.48l.41.09c-1.75-.8-2.79-.95-4.3-1.51.07-.17-1.3-.79-1.99-1.1h.03c-2.06-.88-3.57-1.3-5.51-2.01-1.11-.67-4-1.71-5.87-2.59.28.15-.1.11-.45,0-.43-.22-1.29-.39-1.15-.51l.16.07c-.28-.29-1.21-.62-1.93-.92l-.2.16c-1.76-1.06-4.98-1.89-5.9-2.58-.47-.13-1.04-.36-1.51-.49l.07-.1c-1.25-.54-1.87-.81-3.44-1.41l.35.05c-.87-.36-1.24-.14-2.05-.46l-.18-.26c-1.53-.62-3.02-1.39-4.6-1.86.03-.01.1-.04.35.05-.72-.3-2.74-1.24-2.57-.91.04-.15-1.57-.66-2.43-.93l.17-.05c-.75-.15-.79-.12-1.78-.48-.23-.11-.17-.17.13-.02-.75-.37-.64-.14-1.55-.58l.38.07c-.79-.33-.74-.27-1.21-.36-.52-.16-1.49-.64-1.57-.78-.13.02-.6-.08-1.05-.3-.05-.06.13-.02.22,0-1.29-.61-2.02-.67-2.89-1.15,0-.04-.06-.09-.13-.13,1.05.43,1.9.78,1.81.76.04-.1-.8-.46-.07-.32-.71-.2-1.94-.51-2.75-.9-.04-.03-.07-.05-.1-.08l.09.02c-.19-.09-.36-.15-.53-.2-.26-.12-.42-.2-.67-.31-.06-.12-.96-.44-1.38-.62,0,.12-.56-.12-.07.18-.06-.04.09.02.37.13.07.02.14.05.19.06,0,0-.02,0-.03,0,.28.11.64.25,1.06.42-.36-.08-.73-.18-1.17-.43-.25-.02-.51-.04-.66-.07-.52-.39-1.6-.92-1.72-1.08-1.32-.46-3.06-1.2-3.96-1.32-.38-.12-.4-.23-.52-.32.22.07.47.17.6.19-.76-.25-2.19-.86-2.42-.79-.9-.44.57.08-.71-.41l.19.03c-2.41-1.24-4.22-1.29-6.88-2.71.19.1.28.14.31.18-3.11-1.41-6.58-2.53-9.62-4-.87-.4-1-.35-1.57-.5l-.15-.19-.98-.24c-1.35-.44-2.16-1.21-3.9-1.7l.18.17c-.59-.26-1.91-.72-1.78-.77-.07-.01-.23,0-.45-.13v-.07s-1.5-.49-1.5-.49c-1.12-.51.28-.17-1.38-.86-.63-.23-1.83-.54-1.61-.4.25.1.62.3.62.36l-.58-.2c-.18.14-.68.14.65.83l1.01.28.28.21-.82-.32c.43.27.75.32,1.1.4.06.08.18.17.37.26l1.02.21c.09.12-.48-.03.14.26.48.1-.36-.33.39-.08.43.27.27.28.84.43.06.08-.07.06-.29,0,.51.14,1.29.5,1.57.5.44.3,1.64.64,1.52.79.17.02.9.21,1.35.38-.89-.13,1.65.69,1.35.82.67.06,2.2.8,3.3,1.13-.07,0-.19-.03-.28-.07.59.26.74.38,1.11.57.14-.12,1.08.22,1.62.33.67.44-.52,0-.34.23.01-.14,1.32.39,1.11.19.52.32.47.24.7.48.17-.15.53.18,1.05.25.77.42.14.26,1.05.57.4.23-.42-.03-.42-.03ZM1770.38-47.62s0,0,0,0c-.18-.07-.34-.13-.44-.17.09.04.22.08.44.17ZM1772.16-46.9c-.21-.09-.48-.2-.77-.32-.05-.06.04-.07.21,0-.11-.01.3.18.56.32ZM1768.7-49.18c.29.1.37.16.4.2-.13-.05-.29-.11-.5-.19,0,0-.03,0-.04,0,.04,0,.07-.02.13,0Z"/>
            <path class="cls-27" d="M1929.43,16.43l-.04-.02s.06.03.07.05c-.02-.02-.02-.02-.04-.03Z"/>
            <path class="cls-27" d="M1939.08,20.78s.05.04.12.08c0,0-.05-.04-.12-.08Z"/>
            <path class="cls-27" d="M1943.31,22.53l.58.28c-.25-.13-.43-.21-.58-.28Z"/>
            <path class="cls-27" d="M1946.54,23.9s.07-.01.08-.02c0,0,0,0,0,0l-.08.02Z"/>
            <path class="cls-27" d="M1894.72,3.01s-.09-.03-.13-.05c-.3-.1-.1-.03.13.05Z"/>
            <path class="cls-27" d="M1910.23,9.01c-.17-.05-.34-.09-.52-.15.27.12.48.21.52.15Z"/>
            <path class="cls-27" d="M1909,8.57c.27.13.5.22.72.29-.22-.1-.48-.22-.72-.29Z"/>
            <path class="cls-27" d="M1960.64,29.68l.16.07s.01-.01.03,0l-.18-.06Z"/>
            <path class="cls-27" d="M1960.82,29.74l.18.06c-.08-.03-.15-.06-.18-.06Z"/>
            <path class="cls-27" d="M1961.37,29.92l-.38-.12c.13.05.28.12.38.12Z"/>
            <path class="cls-27" d="M1956.35,27.88l-.07.02s.05,0,.07-.02Z"/>
            <path class="cls-27" d="M1955.03,27.36c.31.14.75.4,1.2.55h.05c-.23-.04-.93-.5-1.25-.55Z"/>
            <path class="cls-27" d="M1949.76,24.66l1.08.48c-.17-.12-.4-.28.1-.09-1.33-.69.25.21-1.18-.39Z"/>
            <path class="cls-27" d="M1946.38,23.21c.6.22.02-.06.06-.07-.39-.11-.48-.14-.06.07Z"/>
            <path class="cls-27" d="M1921.79,13.23l.1-.07c-.46-.17-.02.04-.1.07Z"/>
            <polygon class="cls-27" points="1916.88 11.83 1917.3 12.07 1917.54 12.06 1916.88 11.83"/>
            <polygon class="cls-27" points="1914.39 10 1914.59 10.07 1913.82 9.79 1914.39 10"/>
          </g>
        </g>
        <g>
          <line class="cls-27" x1="1716.34" y1="-32" x2="1951.56" y2="63.49"/>
          <g>
            <path class="cls-27" d="M1951.45,63.75c.14.02.1-.09-.25-.21l-.29.03.54.18Z"/>
            <path class="cls-27" d="M1949.26,62.58c-.43-.1-.93-.18-.72.04.45.04.52.13,1.01.16.35.12.58.28.5.31.13.02.52.24.74.24-.4-.28-.97-.51-1.59-.67-.11-.08.02-.06.06-.07Z"/>
            <path class="cls-27" d="M1915.98,48.84l.21.1c-.06-.03-.13-.07-.21-.1Z"/>
            <path class="cls-27" d="M1895.34,40.38c.16.06.23.07.24.07-.15-.05-.27-.09-.24-.07Z"/>
            <path class="cls-27" d="M1891.87,38.81c.07.03.14.06.2.09-.07-.04-.15-.08-.2-.09Z"/>
            <path class="cls-27" d="M1915.98,48.84l-.54-.26c-.06.03.27.15.54.26Z"/>
            <path class="cls-27" d="M1944.53,61.02c.12.04.22.07.31.09-.1-.03-.19-.07-.29-.1,0,0-.01,0-.03.01Z"/>
            <path class="cls-27" d="M1925.13,52.44l.17.07c.06,0,.11,0,.16,0l-.33-.07Z"/>
            <path class="cls-27" d="M1932.13,55.26c-.16-.07-.26.02-.33.04.11,0,.23.02.37.07.01-.02,0-.05-.04-.11Z"/>
            <path class="cls-27" d="M1943.14,59.95l.2.07c-.05-.02-.14-.05-.2-.07Z"/>
            <path class="cls-27" d="M1920.14,50.38s-.02-.05-.05-.06c0,.01.01.04.05.06Z"/>
            <path class="cls-27" d="M1885.47,36.05s.02,0,.03.01c.17.06.08.02-.03-.01Z"/>
            <path class="cls-27" d="M1826.15,12.06c.63.37-1.14-.32-.18.2-.08-.08.99.2.18-.2Z"/>
            <path class="cls-27" d="M1944.36,60.94c-.09-.04-.19-.08-.29-.12.13.06.22.09.29.12Z"/>
            <path class="cls-27" d="M1825.97,12.26h0s.1.05.1.05c-.04-.02-.06-.03-.1-.05Z"/>
            <path class="cls-27" d="M1870.56,30.07s.08.07.13.11c0-.01-.03-.04-.13-.11Z"/>
            <path class="cls-27" d="M1881.58,34.73l-.27-.13c.1.05.19.09.27.13Z"/>
            <path class="cls-27" d="M1864.74,27.89c-.15-.07-.19-.1-.4-.17.02.01.03.02.06.04.08.02.18.05.34.13Z"/>
            <path class="cls-27" d="M1858.75,25.46s.07.04.1.07c.06.02.13.05.19.07l-.29-.14Z"/>
            <path class="cls-27" d="M1944.55,60.96s-.1,0-.2-.03c.07.03.14.05.2.08.02,0,.03-.02,0-.05Z"/>
            <path class="cls-27" d="M1864.15,28.64l-.95-.4c.26.12.61.26.95.4Z"/>
            <path class="cls-27" d="M1860.38,27.11c-.15-.11-.33-.2-.51-.29-.04,0-.09-.02-.12-.02l.63.31Z"/>
            <path class="cls-27" d="M1735.86-23.36c.91.37.48.03.71.03,1.1.4.46.31.8.53.69.24,1.26.32,1.76.53.03.04.12.09,0,.07.76.18,2.12.86,3.01,1.05.06.04.08.06.09.08-.11-.13-.1-.21-.05-.25.41.16.79.22.91.37-.25-.1-.28-.07-.41-.09l.44.13c.33.29-.6-.19-.64-.09.85.29,1.86.58,2.48.87.08.18-1.51-.56-.7-.1l-.96-.45c.67.51-.59-.26,0,.24,1.28.56,1.48.52,2.75,1.09.32.05-.05-.15.27-.1,1.89.62,1.31.92,2.73,1.29.39.05.59-.06,1.51.42h-.39c1.25.54.8.09,2.08.73-.26-.04-1.01-.35-.82-.26.8.46.64.16,1.29.43l.08.19c1.34.52,2.85,1.02,4.34,1.6-.1,0-.37-.06-.04.12,1.89.69,3.98,1.63,5.75,2.44l.73.17c.16.07.28.17.09.12.68.33.07-.06.42.04.4.15.5.28.23.21,1.28.41,3.61,1.23,4.87,1.88l-.27-.07c1,.46,1.24.23,2.14.72l-.19-.05c2.18.94,4.66,1.83,6.28,2.68.39-.03,2.15.96,2.39.79,1.21.62.84.52,2.58,1.31.47.2.76.14,1.36.36l-.03.12.85.2.37.31.56.19c-.22-.1-.44-.24-.4-.26.88.29,2.06.93,2.05,1l2.07.72c-.06.03-.41-.09-.69-.17,1.13.32.15.2,1.18.5-.12-.08.1-.04.13-.06.47.27,1.59.73,2.44,1.04l-.19.02c1.5.63,3.19,1.25,4.88,1.94-.59-.28-.39-.37.11-.18l.15.21c.35.05-.5-.26.2-.09.63.27.37.31-.01.21l.78.27c.03.06-.16,0-.22.03.35.05,1.27.66,1.78.71l.03.05c1.69.69,2.47.95,3.85,1.51.07-.1.6.15,1.04.22,1,.44,2.08.99,3.31,1.47.88.29.29,0,.7.1.02.12,1.24.61.58.42,1.47.58,1.87.74,3.76,1.41-.18-.12-.4-.23-.27-.22.34.12.75.35.68.38l-.09-.03c2.13.69,4.67,2.23,6.41,2.7l-.1-.03,1.76.59c.78.34-.5-.12.06.18,1.92.59,2.91,1.21,4.48,1.72,1.06.77,4.19,1.68,5.7,2.51l-.06-.11c.44.1.48.24.78.38-.02-.07-.42-.24-.15-.18,3.52,1.33,7.15,3.02,10.69,4.53,1.3.55.88-.05,2.46.78l-.52-.06c2.7.92,5.39,2.19,8.02,3.11-.17-.03-.19,0-.44-.1.51.31,2.01.82,2.05.75.4.17.07.11.3.24.52.28,1.42.44,1.67.65.04.03-.17-.03-.27-.07.37.1,1.65.68,1.36.44.95.44,1.87.7,2.62,1.08.55.09,1.63.73,1.86.63-.14.15,1.64.83,2.29,1-.23-.03.51.27.24.25.7.28,1.35.51,1.27.37,1.2.73,2.65.88,3.27,1.44,2.11.75,4.06,1.47,5.94,2.18-.14.15-2.07-.82-2.06-.61,1.8.65,2.88.91,4.62,1.67.45.21-.29-.03-.45-.06,1.8.65,3.41,1.4,5.03,1.95-.01.01-.19-.04-.35-.09.31.12.71.32.71.23l-.31-.1c-.45-.32,1.33.26,1.41.22-.62.01,1.53.69.58.63.21.07.48.13.46.06.3.14.38.21.05.14,1.13.41.77.16,1.77.57-.02.04-.23-.03-.35-.03.54.13,1.08.27,1.92.64-.06,0,.03.07-.23-.03,1.47.58,2.57.81,4.14,1.54-.54-.03.52.28.55.45l.88.31-.32-.21c.75.31,1.46.48,2.09.79l-.59-.17,1.43.55-.78-.38c.79.24,0-.22.98.23-.21-.07.75.31,1.11.55,0,0,0,0,0,0,.39.11.8.21,1.34.48.13.1-.18.11-.1.18.42.03,1.78.68,2.3.75-.17-.03-.21.04-.16.08l.35.03c.34.17.38.21.3.25,1.04.45-.26-.32.96.27-.1-.03-.06,0-.27-.07,1.24.55,2.45.92,3.58,1.44.28.28-1.02-.37-.68-.09,1.67.65,3.51,1.22,5.1,1.91l-.29-.14c.31-.11,1.16.59,2.01.82-.21-.07-.31,0-.24,0,1.09.48,2.27.86,3.97,1.48l-.23-.03c.63.31,1.7.72,2.39,1.03.23.03.63.2.41.03,2.04,1.18,4.19,1.51,6,2.54-.23-.09-.57-.18-.38-.1l1.65.61c-.09-.14-.19-.14-.51-.35.23.03.71.18,1.11.34-.76-.24-.05.15.25.32-.04-.05.08-.03.06-.07.79.5.22-.12,1.34.46l-.08.02c.45.15.87.25,1.34.46.15.18-.48-.14-.55-.07.66.26,1.38.33,1.94.68-.29-.09-.7-.25-.99-.33.6.39.69.39,1.17.6l-.05-.02,1.1.51-.27-.15c.94.07,1.7.63,2.89.91-1.15-.27-.22.02-.35.11.27.15.69.36.55.34.56.12.85.43,1.65.59.02.05.56.23.4.28.7.25-.14-.13-.06-.15,1.11.3,2.42,1.16,4,1.6,1.34.46,1.63.43,2.87.86.39.23-.39,0-.39,0,.64.32,1.14.52,1.78.73-.14-.02-.02.06.15.18.5.19.39,0,1.03.32-.13,0-.3,0-.56-.05.6.2,1.21.37,1.84.58.14.13-.41-.05-.64-.09.7.25,1.8.66,2.05.64l-.42-.22c.25.1.09.14-.1.09-.62-.16-.83-.38-.85-.43l.44.15c-.36-.4-1.76-.67-2.63-1.04h.43s-.95-.24-.95-.24c-.17-.12-.27-.26.17-.11-.59-.33-.58-.17-1.08-.48-.05-.04-.02-.03.03-.02l-.63-.2c.13.02-.06-.15.31.02-1.06-.54-1.82-.6-2.19-.89l.1.03c-1.55-.56-.2.06-1.39-.27l-.65-.6-.2.06c-.16-.07-.46-.2-.39-.23-.62-.16.08.09-.29.03-.71-.41-2.11-.8-2.2-1.05-.31-.02.7.36-.14.1-.15-.29-.95-.34-1.6-.72.25-.02.89.3.23-.07-.49,0-1.33-.59-1.93-.79-.08.13-1.29-.46-2.29-.81.08-.02-1.81-.82-2.7-1.25h.04c-.23.06-1.16-.35-1.86-.6.06-.07.2-.06.58.06l-.64-.26c-.17-.02-.38-.07-.8-.23l.2-.04c-.86-.34-1.77-.58-2.85-1.09-.1.07.76.63-.43.22-.02-.07-.03-.18.29-.08-.1-.03-.37-.1-.57-.2l.5.1c-.49-.24-.29-.03-.69-.2.04-.07-.27-.17-.19-.21.11.03.34.17.5.21-.45-.2-.97-.46-1.13-.6.02.06-.04.1-.38-.02-.86-.34-.26-.21-.74-.45-.23-.03-.75-.31-.81-.2-.25-.1-.28-.17-.36-.24-.46-.13-2.07-.83-1.62-.5l.11.05s-.05-.02-.07-.02h0s0,0,0,0c-1.5-.48-2.99-1.29-4.45-1.82l.02-.04c-.88-.31-1.92-.75-2.57-.92-.25-.1-.57-.31-.44-.31-.67-.24-.76-.23-1.68-.67.69.2-.2-.15.7.23-.84-.38-1.01-.52-1.97-.79.35.03-.59-.38-1.01-.52l.57.31c-.46-.17-.86-.34-1.26-.51l.27-.04c-1.68-.87-3.26-1.01-4.48-1.82-.5-.1.92.45.47.39-.8-.34-1.56-.87-1.81-.97-1.07-.52-1.1-.23-2.24-.75.13.11.22.28-.66-.02-.8-.34-.91-.59-.39-.42.19.07.28.13.27.14.27.09.62.21.32.03h-.12c-.38-.21-1.49-.65-1.2-.62-.63-.2-.29-.03.15.18-1.01-.49-1.61-.66-2.66-1.13.16.09.29.21.12.14-1.53-.69-.72-.19-1.78-.6-.57-.31.28-.08-.8-.45-.63-.31-.09-.18.18-.11-1-.3-1.79-.79-2.33-1.03l.52.17c-.31-.1-.56-.2-.82-.31l.25.21c-.29-.14-.55-.24-.53-.28-.33-.07.17.25-.47.08-.38-.21-1.24-.44-1.32-.62,1.24.55-.09-.18.98.23-.21-.07-.46-.17-.75-.31-.04-.03.05,0,.14.02-1.16-.6-.61-.09-1.85-.6.19,0-.24-.25-.45-.31.5.21.19.21-.29.08-.78-.38-.88-.31-1.3-.49l.47.22c-.19,0-.58-.17-1.15-.37-.03-.07.52.17.33.06-.67-.13-1.35-.69-2.24-.96-.38-.21.01-.14-.32-.32-1-.3-1.01-.52-2.05-.86.26.21.32.21-.44,0l1.69.61-1.12-.3c.5.21,1.09.37,1.38.51-.54-.13-.48-.13-.27.04-.63-.42-1.4-.47-2.16-.89l.12-.22c-1.16-.59-2.17-.75-3.71-1.44l.48.24c-.25,0-.97-.38-1.48-.54.08-.06-.23-.21-.42-.35,0,.07-1.14-.47-1.34-.37l-.65-.38c-1.24-.55-1.52-.37-2.72-.88.4.07-.13-.21.7.06-.4-.16-.76-.33-.79-.28-.22-.14-1.16-.35-1.5-.57-.18-.04-.27.02-.72-.17-.04-.04.02-.04.02-.04-.02.04-.73-.24-.37,0-1.14-.74-3.48-1.39-4.47-2.03-.89-.33-1.96-.74-2.76-1.06.06,0,.02-.04.17.03-1.07-.52-.77-.06-1.99-.64-.59-.38.69.2.31,0-.07-.32-1.53-.58-2.31-1.07l.21.07c-.61-.35-1.61-.54-2.66-.99,0,0,.06,0,.02-.04-.77-.16-2.15-.68-3.18-1.05.35.03.48.14.33-.04-.46-.17.07.21-.85-.13-.27-.17-.91-.49-.95-.63l.86.34c-.38-.32-1.11-.44-1.55-.65l.08-.04c-1.32-.51-1.4-.37-2.8-.95l.13.1c-.83-.16-.61-.35-1.42-.55l-.17-.25c-.52-.17-1.84-.58-2.76-.92.56.1,1.65.47,2.34.67-.5-.21-1.72-.68-2.01-.71.21.07.48.13.67.24-.67-.13-1.5-.4-2.5-.81.3-.22-2.58-1.14-3.22-1.66-1.82-.61-3.5-1.48-5.58-2.3.64.53-.61-.24-.57.05-.49-.18-.67-.26-.71-.29l-1.4-.73c-.32-.21.48.13.46.06-1.05-.45-.4-.28-1.07-.63.11.14-.42-.03-1-.3l.8.45c-1.52-.47-1.19-.71-2.73-1.19l.5.12c-.78-.27-2.81-1.14-3.63-1.26-.12-.08-.28-.22.07-.1-1.81-.77-4.14-1.44-5.5-2.14h.16c-.35-.12-.64-.13-1.04-.36.03-.01.16,0,0-.07-.19-.05-.94-.27-1.38-.48l.41.09c-1.75-.8-2.79-.95-4.3-1.51.07-.17-1.3-.79-1.99-1.1h.03c-2.06-.87-3.57-1.3-5.51-2.01-1.11-.67-4-1.71-5.87-2.59.28.15-.1.11-.45,0-.43-.22-1.29-.39-1.15-.51l.16.07c-.28-.29-1.21-.62-1.93-.92l-.2.16c-1.76-1.06-4.98-1.89-5.9-2.58-.47-.13-1.04-.36-1.51-.49l.07-.1c-1.25-.54-1.87-.81-3.44-1.41l.35.05c-.87-.36-1.24-.14-2.05-.46l-.18-.26c-1.53-.62-3.02-1.39-4.6-1.86.03-.01.1-.04.35.05-.72-.3-2.74-1.24-2.57-.91.04-.15-1.57-.66-2.43-.93l.17-.05c-.75-.15-.79-.12-1.78-.48-.23-.11-.17-.17.13-.02-.75-.37-.64-.14-1.55-.58l.38.07c-.79-.33-.74-.27-1.21-.36-.52-.16-1.49-.64-1.57-.78-.13.02-.6-.08-1.05-.3-.05-.06.13-.02.22,0-1.29-.61-2.02-.67-2.89-1.15,0-.04-.06-.09-.13-.13,1.05.43,1.9.78,1.81.76.04-.1-.8-.46-.07-.32-.71-.2-1.94-.51-2.75-.9-.04-.03-.07-.05-.1-.08l.09.02c-.19-.09-.36-.15-.53-.2-.26-.12-.42-.2-.67-.31-.06-.12-.96-.44-1.38-.62,0,.12-.56-.12-.07.18-.06-.04.09.02.37.13.07.02.14.05.19.06,0,0-.02,0-.03,0,.28.11.64.25,1.06.42-.36-.08-.73-.18-1.17-.43-.25-.02-.51-.04-.66-.07-.52-.39-1.6-.92-1.72-1.08-1.32-.46-3.06-1.2-3.96-1.32-.38-.12-.4-.23-.52-.32.22.07.47.17.6.19-.76-.25-2.19-.86-2.42-.79-.9-.44.57.08-.71-.41l.19.03c-2.41-1.24-4.22-1.29-6.88-2.71.19.1.28.14.31.18-3.11-1.41-6.58-2.53-9.62-4-.87-.4-1-.35-1.57-.5l-.15-.19-.98-.24c-1.35-.44-2.16-1.21-3.9-1.7l.18.17c-.59-.26-1.91-.72-1.78-.77-.07-.01-.23,0-.45-.13v-.07s-1.5-.49-1.5-.49c-1.12-.51.28-.17-1.38-.86-.63-.23-1.83-.54-1.61-.4.25.1.62.3.62.36l-.58-.2c-.18.14-.68.14.65.83l1.01.28.28.21-.82-.32c.43.27.75.32,1.1.4.06.08.18.17.37.26l1.02.21c.09.12-.48-.03.14.26.48.1-.36-.33.39-.08.43.27.27.28.84.43.06.08-.07.06-.29,0,.51.14,1.29.5,1.57.5.44.3,1.64.64,1.52.79.17.02.9.21,1.35.38-.89-.13,1.65.69,1.35.82.67.06,2.2.8,3.3,1.13-.07,0-.19-.03-.28-.07.59.26.74.38,1.11.57.14-.12,1.08.22,1.62.33.67.44-.52,0-.34.23.01-.14,1.32.39,1.11.19.52.32.47.24.7.48.17-.15.53.18,1.05.25.77.42.14.26,1.05.57.4.23-.42-.03-.42-.03ZM1757.17-15.09s0,0,0,0c-.18-.07-.34-.13-.44-.17.09.04.22.08.44.17ZM1758.95-14.37c-.21-.09-.48-.2-.77-.32-.05-.06.04-.07.21,0-.11-.01.3.18.56.32ZM1755.49-16.65c.29.1.37.16.4.2-.13-.05-.29-.11-.5-.19,0,0-.03,0-.04,0,.04,0,.07-.02.13,0Z"/>
            <path class="cls-27" d="M1916.22,48.96l-.04-.02s.06.03.07.05c-.02-.02-.02-.02-.04-.03Z"/>
            <path class="cls-27" d="M1925.88,53.31s.05.04.12.08c0,0-.05-.04-.12-.08Z"/>
            <path class="cls-27" d="M1930.1,55.06l.58.28c-.25-.13-.43-.21-.58-.28Z"/>
            <path class="cls-27" d="M1933.34,56.43s.07-.01.08-.02c0,0,0,0,0,0l-.08.02Z"/>
            <path class="cls-27" d="M1881.51,35.54s-.09-.03-.13-.05c-.3-.1-.1-.03.13.05Z"/>
            <path class="cls-27" d="M1897.02,41.54c-.17-.05-.34-.09-.52-.15.27.12.48.21.52.15Z"/>
            <path class="cls-27" d="M1864.26,28.69s0,0,0,0c-.04-.01-.07-.03-.11-.04l.1.04Z"/>
            <path class="cls-27" d="M1895.79,41.1c.27.13.5.22.72.29-.22-.1-.48-.22-.72-.29Z"/>
            <path class="cls-27" d="M1947.43,62.21l.16.07s.01-.01.03,0l-.18-.06Z"/>
            <path class="cls-27" d="M1947.61,62.27l.18.06c-.08-.03-.15-.06-.18-.06Z"/>
            <path class="cls-27" d="M1948.17,62.45l-.38-.12c.13.05.28.12.38.12Z"/>
            <path class="cls-27" d="M1943.14,60.41l-.07.02s.05,0,.07-.02Z"/>
            <path class="cls-27" d="M1941.83,59.89c.31.14.75.4,1.2.55h.05c-.23-.04-.93-.5-1.25-.55Z"/>
            <path class="cls-27" d="M1936.55,57.19l1.08.48c-.17-.12-.4-.28.1-.09-1.33-.69.25.21-1.18-.39Z"/>
            <path class="cls-27" d="M1933.18,55.74c.6.22.02-.06.06-.07-.39-.11-.48-.14-.06.07Z"/>
            <path class="cls-27" d="M1908.58,45.76l.1-.07c-.46-.17-.02.04-.1.07Z"/>
            <polygon class="cls-27" points="1903.67 44.36 1904.09 44.6 1904.34 44.59 1903.67 44.36"/>
            <polygon class="cls-27" points="1901.18 42.53 1901.38 42.59 1900.61 42.32 1901.18 42.53"/>
            <path class="cls-27" d="M1859.86,25.79l.09.18c.32.1.44,0-.09-.18Z"/>
            <path class="cls-27" d="M1841.97,18.68c-.17-.14-.66-.38-.99-.45.4.17.78.38.99.45Z"/>
          </g>
        </g>
      </g>
      <g>
        <rect class="cls-17" x="1719.22" y="-275.53" width="339.04" height="303.72" transform="translate(1292.82 1672.85) rotate(-67.9)"/>
        <g>
          <path class="cls-26" d="M1964.66,31.22c.14.02.1-.09-.25-.21l-.29.03.54.18Z"/>
          <path class="cls-26" d="M1962.46,30.05c-.43-.1-.93-.18-.72.04.45.04.52.13,1.01.16.35.12.58.28.5.31.13.02.52.24.74.24-.4-.28-.97-.51-1.59-.67-.11-.08.02-.06.06-.07Z"/>
          <path class="cls-26" d="M1929.19,16.31l.21.1c-.06-.03-.13-.07-.21-.1Z"/>
          <path class="cls-26" d="M1908.55,7.85c.16.06.23.07.24.07-.15-.05-.27-.09-.24-.07Z"/>
          <path class="cls-26" d="M1905.08,6.28c.07.03.14.06.2.09-.07-.04-.15-.08-.2-.09Z"/>
          <path class="cls-26" d="M1929.19,16.31l-.54-.26c-.06.03.27.15.54.26Z"/>
          <path class="cls-26" d="M1957.74,28.49c.12.04.22.07.31.09-.1-.03-.19-.07-.29-.1,0,0-.01,0-.03.01Z"/>
          <path class="cls-26" d="M1938.34,19.91l.17.07c.06,0,.11,0,.16,0l-.33-.07Z"/>
          <path class="cls-26" d="M1945.34,22.73c-.16-.07-.26.02-.33.04.11,0,.23.02.38.07.01-.02,0-.05-.04-.11Z"/>
          <path class="cls-26" d="M1956.35,27.42l.2.07c-.05-.02-.14-.05-.2-.07Z"/>
          <path class="cls-26" d="M1933.34,17.85s-.02-.05-.05-.06c0,.01.01.04.05.06Z"/>
          <path class="cls-26" d="M1898.67,3.52s.02,0,.03.01c.17.06.08.02-.03-.01Z"/>
          <path class="cls-26" d="M1957.56,28.41c-.09-.04-.19-.08-.29-.12.13.06.22.09.29.12Z"/>
          <path class="cls-26" d="M1894.79,2.2l-.27-.13c.1.05.19.09.27.13Z"/>
          <path class="cls-26" d="M1957.76,28.43s-.1,0-.2-.03c.07.03.14.05.2.08.02,0,.03-.02,0-.05Z"/>
          <path class="cls-26" d="M1749.06-55.89c.91.37.48.03.71.03,1.1.4.46.31.8.53.69.24,1.26.32,1.76.53.03.04.12.09,0,.07.76.18,2.12.86,3.01,1.05.06.04.08.06.09.08-.11-.13-.1-.21-.05-.25.41.16.79.22.91.37-.25-.1-.28-.07-.41-.09l.44.13c.33.29-.6-.19-.64-.09.85.29,1.86.58,2.48.87.08.18-1.51-.56-.7-.1l-.96-.45c.67.51-.59-.26,0,.24,1.28.56,1.48.52,2.75,1.09.32.05-.05-.15.27-.1,1.89.62,1.31.92,2.73,1.29.39.05.59-.06,1.51.42h-.39c1.25.54.8.09,2.08.73-.26-.04-1.01-.35-.82-.26.8.46.64.16,1.29.43l.08.19c1.34.52,2.85,1.02,4.34,1.6-.1,0-.37-.06-.04.12,1.89.69,3.98,1.63,5.75,2.44l.73.17c.16.07.28.17.09.12.68.33.07-.06.42.04.4.15.5.28.23.21,1.28.41,3.61,1.23,4.87,1.88l-.27-.07c1,.46,1.24.23,2.14.72l-.19-.05c2.18.94,4.66,1.83,6.28,2.68.39-.03,2.15.96,2.39.79,1.21.62.84.52,2.58,1.31.47.2.76.14,1.36.36l-.03.12.85.2.37.31.56.19c-.22-.1-.44-.24-.4-.26.88.29,2.06.93,2.05,1l2.07.72c-.06.03-.41-.09-.69-.17,1.13.32.15.2,1.18.5-.12-.08.1-.04.13-.06.47.27,1.59.73,2.44,1.04l-.19.02c1.5.63,3.19,1.25,4.88,1.94-.59-.28-.39-.37.11-.18l.15.21c.35.05-.5-.26.2-.09.62.27.37.31-.01.21l.78.27c.03.06-.16,0-.22.03.35.05,1.27.66,1.78.71l.03.05c1.69.69,2.47.95,3.85,1.51.07-.1.6.15,1.04.22,1,.44,2.08.99,3.31,1.47.88.29.29,0,.7.1.02.12,1.24.61.58.42,1.47.58,1.87.74,3.76,1.41-.18-.12-.4-.23-.27-.22.34.12.75.35.68.38l-.09-.03c2.13.69,4.67,2.23,6.41,2.7l-.1-.03,1.76.59c.78.34-.5-.12.06.18,1.92.59,2.91,1.21,4.48,1.72,1.06.77,4.19,1.68,5.7,2.51l-.06-.11c.44.1.48.24.78.38-.02-.07-.42-.24-.15-.18,3.52,1.33,7.15,3.02,10.69,4.53,1.3.55.88-.05,2.46.78l-.52-.06c2.7.92,5.39,2.19,8.02,3.11-.17-.03-.19,0-.44-.1.51.31,2.01.82,2.05.75.4.17.07.11.3.24.52.28,1.42.44,1.67.65.04.03-.17-.03-.27-.07.37.1,1.65.69,1.36.44.95.44,1.87.7,2.62,1.08.55.09,1.63.73,1.86.63-.14.15,1.64.83,2.29,1-.23-.03.51.27.24.25.7.28,1.35.51,1.27.37,1.2.73,2.65.88,3.27,1.44,2.11.75,4.06,1.47,5.94,2.18-.14.15-2.07-.82-2.06-.61,1.8.65,2.88.91,4.62,1.67.44.21-.29-.03-.45-.06,1.8.65,3.41,1.4,5.03,1.95-.01.01-.19-.04-.35-.09.31.12.71.32.71.23l-.31-.1c-.45-.32,1.33.26,1.41.22-.62.01,1.53.69.58.63.21.07.48.13.46.06.3.14.38.21.05.14,1.13.41.77.16,1.77.57-.02.04-.23-.03-.35-.03.54.13,1.08.27,1.92.64-.06,0,.03.07-.23-.03,1.47.58,2.57.81,4.14,1.54-.54-.03.52.28.55.45l.88.31-.32-.21c.75.31,1.46.48,2.09.79l-.59-.17,1.43.55-.78-.38c.79.24,0-.22.98.23-.21-.07.75.31,1.11.55,0,0,0,0,0,0,.39.11.8.21,1.34.48.13.1-.18.11-.1.18.42.03,1.78.68,2.3.75-.17-.03-.21.04-.16.08l.35.03c.34.17.38.21.3.25,1.04.44-.26-.32.96.27-.1-.03-.06,0-.27-.07,1.24.55,2.45.92,3.58,1.44.28.28-1.02-.37-.68-.09,1.67.65,3.51,1.22,5.1,1.91l-.29-.14c.31-.11,1.16.59,2.01.82-.21-.07-.31,0-.24,0,1.09.48,2.27.86,3.97,1.48l-.23-.03c.63.31,1.7.72,2.39,1.03.23.03.63.2.41.03,2.04,1.18,4.19,1.51,6,2.54-.23-.09-.57-.18-.38-.1l1.65.61c-.09-.14-.19-.14-.51-.35.23.03.71.18,1.11.34-.76-.24-.05.15.25.32-.04-.05.08-.03.06-.07.79.5.22-.12,1.34.46l-.08.02c.45.15.87.25,1.34.46.15.18-.48-.14-.55-.07.66.26,1.38.33,1.94.68-.29-.09-.7-.25-.99-.33.6.39.69.39,1.17.6l-.05-.02,1.1.51-.27-.15c.94.07,1.7.63,2.89.91-1.15-.27-.22.02-.35.11.27.15.69.36.55.34.56.12.85.43,1.65.59.02.05.56.23.4.28.7.25-.14-.13-.06-.15,1.11.3,2.42,1.16,4,1.6,1.34.46,1.63.43,2.87.86.39.23-.39,0-.39,0,.64.32,1.14.52,1.78.73-.14-.02-.02.06.15.18.5.19.39,0,1.03.32-.13,0-.3,0-.56-.05.6.2,1.21.37,1.84.58.14.13-.41-.05-.64-.09.7.25,1.8.66,2.05.64l-.42-.22c.25.1.09.14-.1.09-.62-.16-.83-.38-.85-.43l.44.15c-.36-.4-1.76-.67-2.63-1.04h.43s-.95-.24-.95-.24c-.17-.12-.27-.26.17-.11-.59-.33-.58-.17-1.08-.48-.05-.04-.02-.03.03-.02l-.63-.2c.13.02-.06-.15.31.02-1.06-.54-1.82-.6-2.19-.89l.1.03c-1.55-.56-.2.06-1.39-.27l-.65-.6-.2.06c-.16-.07-.46-.2-.39-.23-.62-.16.08.09-.29.03-.71-.41-2.11-.8-2.2-1.05-.31-.02.7.36-.14.1-.15-.29-.95-.34-1.6-.72.25-.02.89.3.23-.07-.49,0-1.33-.59-1.93-.79-.08.13-1.29-.46-2.29-.81.08-.02-1.81-.82-2.7-1.24h.04c-.23.06-1.16-.35-1.86-.6.06-.07.2-.06.58.06l-.64-.26c-.17-.02-.38-.07-.8-.23l.2-.04c-.86-.34-1.77-.58-2.85-1.09-.1.07.76.63-.43.22-.02-.07-.03-.18.29-.08-.1-.03-.37-.1-.57-.2l.5.1c-.49-.24-.29-.03-.69-.2.04-.07-.27-.17-.19-.21.11.03.34.17.5.21-.45-.2-.97-.46-1.13-.6.02.06-.04.1-.38-.02-.86-.34-.26-.21-.74-.45-.23-.03-.75-.31-.81-.2-.25-.1-.28-.17-.36-.24-.46-.13-2.07-.83-1.62-.5l.11.05s-.05-.02-.07-.02h0s0,0,0,0c-1.5-.48-2.99-1.29-4.45-1.82l.02-.04c-.88-.31-1.92-.75-2.57-.92-.25-.1-.57-.31-.44-.31-.67-.24-.76-.23-1.68-.67.69.2-.2-.15.7.23-.84-.38-1.01-.52-1.97-.79.35.03-.59-.38-1.01-.52l.57.31c-.46-.17-.86-.34-1.26-.51l.27-.04c-1.68-.87-3.26-1.01-4.48-1.82-.5-.1.92.45.47.39-.8-.34-1.56-.87-1.81-.97-1.07-.52-1.1-.23-2.24-.75.13.11.22.28-.66-.02-.8-.34-.91-.59-.39-.42.19.07.28.13.27.14.27.09.62.21.32.03h-.12c-.38-.21-1.49-.65-1.2-.62-.63-.2-.29-.03.15.18-1-.49-1.61-.66-2.66-1.13.16.09.29.21.12.14-1.53-.69-.72-.19-1.78-.6-.57-.31.28-.08-.8-.45-.63-.31-.09-.18.18-.11-1-.3-1.79-.79-2.33-1.03l.52.17c-.31-.1-.56-.2-.82-.31l.25.21c-.29-.14-.55-.24-.53-.28-.33-.07.17.25-.47.08-.38-.21-1.24-.44-1.32-.62,1.24.55-.09-.18.98.23-.21-.07-.46-.17-.75-.31-.04-.03.05,0,.14.02-1.16-.6-.61-.09-1.85-.6.19,0-.24-.25-.45-.31.5.21.19.21-.29.08-.78-.38-.88-.31-1.3-.49l.47.22c-.19,0-.58-.17-1.15-.37-.03-.07.52.17.33.06-.67-.13-1.35-.69-2.24-.96-.38-.21.01-.14-.32-.32-1-.3-1.01-.52-2.05-.86.26.21.32.21-.44,0l1.69.61-1.12-.3c.5.21,1.09.37,1.38.51-.54-.13-.48-.13-.27.04-.63-.42-1.4-.47-2.16-.89l.12-.22c-1.16-.59-2.17-.75-3.71-1.44l.48.24c-.25,0-.97-.38-1.48-.54.08-.06-.23-.21-.42-.35,0,.07-1.14-.47-1.34-.37l-.65-.38c-1.24-.55-1.52-.37-2.72-.88.4.07-.13-.21.7.06-.4-.16-.76-.33-.79-.28-.22-.14-1.16-.35-1.5-.57-.18-.04-.27.02-.72-.17-.04-.04.02-.04.02-.04-.02.04-.73-.24-.37,0-1.14-.74-3.48-1.39-4.47-2.03-.89-.33-1.96-.74-2.76-1.06.06,0,.02-.04.17.03-1.07-.52-.77-.06-1.99-.64-.59-.38.69.2.31,0-.07-.32-1.53-.58-2.31-1.07l.21.07c-.61-.35-1.61-.54-2.66-.99,0,0,.06,0,.02-.04-.77-.16-2.15-.68-3.18-1.05.35.03.48.14.33-.04-.46-.17.07.21-.85-.13-.27-.17-.91-.49-.95-.63l.86.34c-.38-.32-1.11-.44-1.55-.65l.08-.04c-1.32-.51-1.4-.37-2.8-.95l.13.1c-.83-.16-.61-.35-1.42-.55l-.17-.25c-.52-.17-1.84-.58-2.76-.92.56.1,1.65.47,2.34.67-.5-.21-1.72-.68-2.01-.71.21.07.48.13.67.24-.67-.13-1.5-.4-2.5-.81.3-.22-2.58-1.14-3.22-1.66-1.82-.61-3.5-1.48-5.58-2.3.64.53-.61-.24-.57.05-.49-.18-.67-.26-.71-.29l-1.4-.73c-.32-.21.48.13.46.06-1.05-.45-.4-.28-1.07-.63.11.14-.42-.03-1-.3l.8.45c-1.52-.47-1.19-.71-2.73-1.19l.5.12c-.78-.27-2.81-1.14-3.63-1.26-.12-.08-.28-.22.07-.1-1.81-.77-4.14-1.44-5.5-2.14h.16c-.35-.12-.64-.13-1.04-.36.03-.01.16,0,0-.07-.19-.05-.94-.27-1.38-.48l.41.09c-1.75-.8-2.79-.95-4.3-1.51.07-.17-1.3-.79-1.99-1.1h.03c-2.06-.88-3.57-1.3-5.51-2.01-1.11-.67-4-1.71-5.87-2.59.28.15-.1.11-.45,0-.43-.22-1.29-.39-1.15-.51l.16.07c-.28-.29-1.21-.62-1.93-.92l-.2.16c-1.76-1.06-4.98-1.89-5.9-2.58-.47-.13-1.04-.36-1.51-.49l.07-.1c-1.25-.54-1.87-.81-3.44-1.41l.35.05c-.87-.36-1.24-.14-2.05-.46l-.18-.26c-1.53-.62-3.02-1.39-4.6-1.86.03-.01.1-.04.35.05-.72-.3-2.74-1.24-2.57-.91.04-.15-1.57-.66-2.43-.93l.17-.05c-.75-.15-.79-.12-1.78-.48-.23-.11-.17-.17.13-.02-.75-.37-.64-.14-1.55-.58l.38.07c-.79-.33-.74-.27-1.21-.36-.52-.16-1.49-.64-1.57-.78-.13.02-.6-.08-1.05-.3-.05-.06.13-.02.22,0-1.29-.61-2.02-.67-2.89-1.15,0-.04-.06-.09-.13-.13,1.05.43,1.9.78,1.81.76.04-.1-.8-.46-.07-.32-.71-.2-1.94-.51-2.75-.9-.04-.03-.07-.05-.1-.08l.09.02c-.19-.09-.36-.15-.53-.2-.26-.12-.42-.2-.67-.31-.06-.12-.96-.44-1.38-.62,0,.12-.56-.12-.07.18-.06-.04.09.02.37.13.07.02.14.05.19.06,0,0-.02,0-.03,0,.28.11.64.25,1.06.42-.36-.08-.73-.18-1.17-.43-.25-.02-.51-.04-.66-.07-.52-.39-1.6-.92-1.72-1.08-1.32-.46-3.06-1.2-3.96-1.32-.38-.12-.4-.23-.52-.32.22.07.47.17.6.19-.76-.25-2.19-.86-2.42-.79-.9-.44.57.08-.71-.41l.19.03c-2.41-1.24-4.22-1.29-6.88-2.71.19.1.28.14.31.18-3.11-1.41-6.58-2.53-9.62-4-.87-.4-1-.35-1.57-.5l-.15-.19-.98-.24c-1.35-.44-2.16-1.21-3.9-1.7l.18.17c-.59-.26-1.91-.72-1.78-.77-.07-.01-.23,0-.45-.13v-.07s-1.5-.49-1.5-.49c-1.12-.51.28-.17-1.38-.86-.63-.23-1.83-.54-1.61-.4.25.1.62.3.62.36l-.58-.2c-.18.14-.68.14.65.83l1.01.28.28.21-.82-.32c.43.27.75.32,1.1.4.06.08.18.17.37.26l1.02.21c.09.12-.48-.03.14.26.48.1-.36-.33.39-.08.43.27.27.28.84.43.06.08-.07.06-.29,0,.51.14,1.29.5,1.57.5.44.3,1.64.64,1.52.79.17.02.9.21,1.35.38-.89-.13,1.65.69,1.35.82.67.06,2.2.8,3.3,1.13-.07,0-.19-.03-.28-.07.59.26.74.38,1.11.57.14-.12,1.08.22,1.62.33.67.44-.52,0-.34.23.01-.14,1.32.39,1.11.19.52.32.47.24.7.48.17-.15.53.18,1.05.25.77.42.14.26,1.05.57.4.23-.42-.03-.42-.03ZM1770.38-47.62s0,0,0,0c-.18-.07-.34-.13-.44-.17.09.04.22.08.44.17ZM1772.16-46.9c-.21-.09-.48-.2-.77-.32-.05-.06.04-.07.21,0-.11-.01.3.18.56.32ZM1768.7-49.18c.29.1.37.16.4.2-.13-.05-.29-.11-.5-.19,0,0-.03,0-.04,0,.04,0,.07-.02.13,0Z"/>
          <path class="cls-26" d="M1929.43,16.43l-.04-.02s.06.03.07.05c-.02-.02-.02-.02-.04-.03Z"/>
          <path class="cls-26" d="M1939.08,20.78s.05.04.12.08c0,0-.05-.04-.12-.08Z"/>
          <path class="cls-26" d="M1943.31,22.53l.58.28c-.25-.13-.43-.21-.58-.28Z"/>
          <path class="cls-26" d="M1946.54,23.9s.07-.01.08-.02c0,0,0,0,0,0l-.08.02Z"/>
          <path class="cls-26" d="M1894.72,3.01s-.09-.03-.13-.05c-.3-.1-.1-.03.13.05Z"/>
          <path class="cls-26" d="M1910.23,9.01c-.17-.05-.34-.09-.52-.15.27.12.48.21.52.15Z"/>
          <path class="cls-26" d="M1909,8.57c.27.13.5.22.72.29-.22-.1-.48-.22-.72-.29Z"/>
          <path class="cls-26" d="M1960.64,29.68l.16.07s.01-.01.03,0l-.18-.06Z"/>
          <path class="cls-26" d="M1960.82,29.74l.18.06c-.08-.03-.15-.06-.18-.06Z"/>
          <path class="cls-26" d="M1961.37,29.92l-.38-.12c.13.05.28.12.38.12Z"/>
          <path class="cls-26" d="M1956.35,27.88l-.07.02s.05,0,.07-.02Z"/>
          <path class="cls-26" d="M1955.03,27.36c.31.14.75.4,1.2.55h.05c-.23-.04-.93-.5-1.25-.55Z"/>
          <path class="cls-26" d="M1949.76,24.66l1.08.48c-.17-.12-.4-.28.1-.09-1.33-.69.25.21-1.18-.39Z"/>
          <path class="cls-26" d="M1946.38,23.21c.6.22.02-.06.06-.07-.39-.11-.48-.14-.06.07Z"/>
          <path class="cls-26" d="M1921.79,13.23l.1-.07c-.46-.17-.02.04-.1.07Z"/>
          <polygon class="cls-26" points="1916.88 11.83 1917.3 12.07 1917.54 12.06 1916.88 11.83"/>
          <polygon class="cls-26" points="1914.39 10 1914.59 10.07 1913.82 9.79 1914.39 10"/>
        </g>
        <g>
          <path class="cls-26" d="M1951.45,63.75c.14.02.1-.09-.25-.21l-.29.03.54.18Z"/>
          <path class="cls-26" d="M1949.26,62.58c-.43-.1-.93-.18-.72.04.45.04.52.13,1.01.16.35.12.58.28.5.31.13.02.52.24.74.24-.4-.28-.97-.51-1.59-.67-.11-.08.02-.06.06-.07Z"/>
          <path class="cls-26" d="M1915.98,48.84l.21.1c-.06-.03-.13-.07-.21-.1Z"/>
          <path class="cls-26" d="M1895.34,40.38c.16.06.23.07.24.07-.15-.05-.27-.09-.24-.07Z"/>
          <path class="cls-26" d="M1891.87,38.81c.07.03.14.06.2.09-.07-.04-.15-.08-.2-.09Z"/>
          <path class="cls-26" d="M1915.98,48.84l-.54-.26c-.06.03.27.15.54.26Z"/>
          <path class="cls-26" d="M1944.53,61.02c.12.04.22.07.31.09-.1-.03-.19-.07-.29-.1,0,0-.01,0-.03.01Z"/>
          <path class="cls-26" d="M1925.13,52.44l.17.07c.06,0,.11,0,.16,0l-.33-.07Z"/>
          <path class="cls-26" d="M1932.13,55.26c-.16-.07-.26.02-.33.04.11,0,.23.02.37.07.01-.02,0-.05-.04-.11Z"/>
          <path class="cls-26" d="M1943.14,59.95l.2.07c-.05-.02-.14-.05-.2-.07Z"/>
          <path class="cls-26" d="M1920.14,50.38s-.02-.05-.05-.06c0,.01.01.04.05.06Z"/>
          <path class="cls-26" d="M1885.47,36.05s.02,0,.03.01c.17.06.08.02-.03-.01Z"/>
          <path class="cls-26" d="M1826.15,12.06c.63.37-1.14-.32-.18.2-.08-.08.99.2.18-.2Z"/>
          <path class="cls-26" d="M1944.36,60.94c-.09-.04-.19-.08-.29-.12.13.06.22.09.29.12Z"/>
          <path class="cls-26" d="M1825.97,12.26h0s.1.05.1.05c-.04-.02-.06-.03-.1-.05Z"/>
          <path class="cls-26" d="M1870.56,30.07s.08.07.13.11c0-.01-.03-.04-.13-.11Z"/>
          <path class="cls-26" d="M1881.58,34.73l-.27-.13c.1.05.19.09.27.13Z"/>
          <path class="cls-26" d="M1864.74,27.89c-.15-.07-.19-.1-.4-.17.02.01.03.02.06.04.08.02.18.05.34.13Z"/>
          <path class="cls-26" d="M1858.75,25.46s.07.04.1.07c.06.02.13.05.19.07l-.29-.14Z"/>
          <path class="cls-26" d="M1944.55,60.96s-.1,0-.2-.03c.07.03.14.05.2.08.02,0,.03-.02,0-.05Z"/>
          <path class="cls-26" d="M1864.15,28.64l-.95-.4c.26.12.61.26.95.4Z"/>
          <path class="cls-26" d="M1860.38,27.11c-.15-.11-.33-.2-.51-.29-.04,0-.09-.02-.12-.02l.63.31Z"/>
          <path class="cls-26" d="M1735.86-23.36c.91.37.48.03.71.03,1.1.4.46.31.8.53.69.24,1.26.32,1.76.53.03.04.12.09,0,.07.76.18,2.12.86,3.01,1.05.06.04.08.06.09.08-.11-.13-.1-.21-.05-.25.41.16.79.22.91.37-.25-.1-.28-.07-.41-.09l.44.13c.33.29-.6-.19-.64-.09.85.29,1.86.58,2.48.87.08.18-1.51-.56-.7-.1l-.96-.45c.67.51-.59-.26,0,.24,1.28.56,1.48.52,2.75,1.09.32.05-.05-.15.27-.1,1.89.62,1.31.92,2.73,1.29.39.05.59-.06,1.51.42h-.39c1.25.54.8.09,2.08.73-.26-.04-1.01-.35-.82-.26.8.46.64.16,1.29.43l.08.19c1.34.52,2.85,1.02,4.34,1.6-.1,0-.37-.06-.04.12,1.89.69,3.98,1.63,5.75,2.44l.73.17c.16.07.28.17.09.12.68.33.07-.06.42.04.4.15.5.28.23.21,1.28.41,3.61,1.23,4.87,1.88l-.27-.07c1,.46,1.24.23,2.14.72l-.19-.05c2.18.94,4.66,1.83,6.28,2.68.39-.03,2.15.96,2.39.79,1.21.62.84.52,2.58,1.31.47.2.76.14,1.36.36l-.03.12.85.2.37.31.56.19c-.22-.1-.44-.24-.4-.26.88.29,2.06.93,2.05,1l2.07.72c-.06.03-.41-.09-.69-.17,1.13.32.15.2,1.18.5-.12-.08.1-.04.13-.06.47.27,1.59.73,2.44,1.04l-.19.02c1.5.63,3.19,1.25,4.88,1.94-.59-.28-.39-.37.11-.18l.15.21c.35.05-.5-.26.2-.09.63.27.37.31-.01.21l.78.27c.03.06-.16,0-.22.03.35.05,1.27.66,1.78.71l.03.05c1.69.69,2.47.95,3.85,1.51.07-.1.6.15,1.04.22,1,.44,2.08.99,3.31,1.47.88.29.29,0,.7.1.02.12,1.24.61.58.42,1.47.58,1.87.74,3.76,1.41-.18-.12-.4-.23-.27-.22.34.12.75.35.68.38l-.09-.03c2.13.69,4.67,2.23,6.41,2.7l-.1-.03,1.76.59c.78.34-.5-.12.06.18,1.92.59,2.91,1.21,4.48,1.72,1.06.77,4.19,1.68,5.7,2.51l-.06-.11c.44.1.48.24.78.38-.02-.07-.42-.24-.15-.18,3.52,1.33,7.15,3.02,10.69,4.53,1.3.55.88-.05,2.46.78l-.52-.06c2.7.92,5.39,2.19,8.02,3.11-.17-.03-.19,0-.44-.1.51.31,2.01.82,2.05.75.4.17.07.11.3.24.52.28,1.42.44,1.67.65.04.03-.17-.03-.27-.07.37.1,1.65.68,1.36.44.95.44,1.87.7,2.62,1.08.55.09,1.63.73,1.86.63-.14.15,1.64.83,2.29,1-.23-.03.51.27.24.25.7.28,1.35.51,1.27.37,1.2.73,2.65.88,3.27,1.44,2.11.75,4.06,1.47,5.94,2.18-.14.15-2.07-.82-2.06-.61,1.8.65,2.88.91,4.62,1.67.45.21-.29-.03-.45-.06,1.8.65,3.41,1.4,5.03,1.95-.01.01-.19-.04-.35-.09.31.12.71.32.71.23l-.31-.1c-.45-.32,1.33.26,1.41.22-.62.01,1.53.69.58.63.21.07.48.13.46.06.3.14.38.21.05.14,1.13.41.77.16,1.77.57-.02.04-.23-.03-.35-.03.54.13,1.08.27,1.92.64-.06,0,.03.07-.23-.03,1.47.58,2.57.81,4.14,1.54-.54-.03.52.28.55.45l.88.31-.32-.21c.75.31,1.46.48,2.09.79l-.59-.17,1.43.55-.78-.38c.79.24,0-.22.98.23-.21-.07.75.31,1.11.55,0,0,0,0,0,0,.39.11.8.21,1.34.48.13.1-.18.11-.1.18.42.03,1.78.68,2.3.75-.17-.03-.21.04-.16.08l.35.03c.34.17.38.21.3.25,1.04.45-.26-.32.96.27-.1-.03-.06,0-.27-.07,1.24.55,2.45.92,3.58,1.44.28.28-1.02-.37-.68-.09,1.67.65,3.51,1.22,5.1,1.91l-.29-.14c.31-.11,1.16.59,2.01.82-.21-.07-.31,0-.24,0,1.09.48,2.27.86,3.97,1.48l-.23-.03c.63.31,1.7.72,2.39,1.03.23.03.63.2.41.03,2.04,1.18,4.19,1.51,6,2.54-.23-.09-.57-.18-.38-.1l1.65.61c-.09-.14-.19-.14-.51-.35.23.03.71.18,1.11.34-.76-.24-.05.15.25.32-.04-.05.08-.03.06-.07.79.5.22-.12,1.34.46l-.08.02c.45.15.87.25,1.34.46.15.18-.48-.14-.55-.07.66.26,1.38.33,1.94.68-.29-.09-.7-.25-.99-.33.6.39.69.39,1.17.6l-.05-.02,1.1.51-.27-.15c.94.07,1.7.63,2.89.91-1.15-.27-.22.02-.35.11.27.15.69.36.55.34.56.12.85.43,1.65.59.02.05.56.23.4.28.7.25-.14-.13-.06-.15,1.11.3,2.42,1.16,4,1.6,1.34.46,1.63.43,2.87.86.39.23-.39,0-.39,0,.64.32,1.14.52,1.78.73-.14-.02-.02.06.15.18.5.19.39,0,1.03.32-.13,0-.3,0-.56-.05.6.2,1.21.37,1.84.58.14.13-.41-.05-.64-.09.7.25,1.8.66,2.05.64l-.42-.22c.25.1.09.14-.1.09-.62-.16-.83-.38-.85-.43l.44.15c-.36-.4-1.76-.67-2.63-1.04h.43s-.95-.24-.95-.24c-.17-.12-.27-.26.17-.11-.59-.33-.58-.17-1.08-.48-.05-.04-.02-.03.03-.02l-.63-.2c.13.02-.06-.15.31.02-1.06-.54-1.82-.6-2.19-.89l.1.03c-1.55-.56-.2.06-1.39-.27l-.65-.6-.2.06c-.16-.07-.46-.2-.39-.23-.62-.16.08.09-.29.03-.71-.41-2.11-.8-2.2-1.05-.31-.02.7.36-.14.1-.15-.29-.95-.34-1.6-.72.25-.02.89.3.23-.07-.49,0-1.33-.59-1.93-.79-.08.13-1.29-.46-2.29-.81.08-.02-1.81-.82-2.7-1.25h.04c-.23.06-1.16-.35-1.86-.6.06-.07.2-.06.58.06l-.64-.26c-.17-.02-.38-.07-.8-.23l.2-.04c-.86-.34-1.77-.58-2.85-1.09-.1.07.76.63-.43.22-.02-.07-.03-.18.29-.08-.1-.03-.37-.1-.57-.2l.5.1c-.49-.24-.29-.03-.69-.2.04-.07-.27-.17-.19-.21.11.03.34.17.5.21-.45-.2-.97-.46-1.13-.6.02.06-.04.1-.38-.02-.86-.34-.26-.21-.74-.45-.23-.03-.75-.31-.81-.2-.25-.1-.28-.17-.36-.24-.46-.13-2.07-.83-1.62-.5l.11.05s-.05-.02-.07-.02h0s0,0,0,0c-1.5-.48-2.99-1.29-4.45-1.82l.02-.04c-.88-.31-1.92-.75-2.57-.92-.25-.1-.57-.31-.44-.31-.67-.24-.76-.23-1.68-.67.69.2-.2-.15.7.23-.84-.38-1.01-.52-1.97-.79.35.03-.59-.38-1.01-.52l.57.31c-.46-.17-.86-.34-1.26-.51l.27-.04c-1.68-.87-3.26-1.01-4.48-1.82-.5-.1.92.45.47.39-.8-.34-1.56-.87-1.81-.97-1.07-.52-1.1-.23-2.24-.75.13.11.22.28-.66-.02-.8-.34-.91-.59-.39-.42.19.07.28.13.27.14.27.09.62.21.32.03h-.12c-.38-.21-1.49-.65-1.2-.62-.63-.2-.29-.03.15.18-1.01-.49-1.61-.66-2.66-1.13.16.09.29.21.12.14-1.53-.69-.72-.19-1.78-.6-.57-.31.28-.08-.8-.45-.63-.31-.09-.18.18-.11-1-.3-1.79-.79-2.33-1.03l.52.17c-.31-.1-.56-.2-.82-.31l.25.21c-.29-.14-.55-.24-.53-.28-.33-.07.17.25-.47.08-.38-.21-1.24-.44-1.32-.62,1.24.55-.09-.18.98.23-.21-.07-.46-.17-.75-.31-.04-.03.05,0,.14.02-1.16-.6-.61-.09-1.85-.6.19,0-.24-.25-.45-.31.5.21.19.21-.29.08-.78-.38-.88-.31-1.3-.49l.47.22c-.19,0-.58-.17-1.15-.37-.03-.07.52.17.33.06-.67-.13-1.35-.69-2.24-.96-.38-.21.01-.14-.32-.32-1-.3-1.01-.52-2.05-.86.26.21.32.21-.44,0l1.69.61-1.12-.3c.5.21,1.09.37,1.38.51-.54-.13-.48-.13-.27.04-.63-.42-1.4-.47-2.16-.89l.12-.22c-1.16-.59-2.17-.75-3.71-1.44l.48.24c-.25,0-.97-.38-1.48-.54.08-.06-.23-.21-.42-.35,0,.07-1.14-.47-1.34-.37l-.65-.38c-1.24-.55-1.52-.37-2.72-.88.4.07-.13-.21.7.06-.4-.16-.76-.33-.79-.28-.22-.14-1.16-.35-1.5-.57-.18-.04-.27.02-.72-.17-.04-.04.02-.04.02-.04-.02.04-.73-.24-.37,0-1.14-.74-3.48-1.39-4.47-2.03-.89-.33-1.96-.74-2.76-1.06.06,0,.02-.04.17.03-1.07-.52-.77-.06-1.99-.64-.59-.38.69.2.31,0-.07-.32-1.53-.58-2.31-1.07l.21.07c-.61-.35-1.61-.54-2.66-.99,0,0,.06,0,.02-.04-.77-.16-2.15-.68-3.18-1.05.35.03.48.14.33-.04-.46-.17.07.21-.85-.13-.27-.17-.91-.49-.95-.63l.86.34c-.38-.32-1.11-.44-1.55-.65l.08-.04c-1.32-.51-1.4-.37-2.8-.95l.13.1c-.83-.16-.61-.35-1.42-.55l-.17-.25c-.52-.17-1.84-.58-2.76-.92.56.1,1.65.47,2.34.67-.5-.21-1.72-.68-2.01-.71.21.07.48.13.67.24-.67-.13-1.5-.4-2.5-.81.3-.22-2.58-1.14-3.22-1.66-1.82-.61-3.5-1.48-5.58-2.3.64.53-.61-.24-.57.05-.49-.18-.67-.26-.71-.29l-1.4-.73c-.32-.21.48.13.46.06-1.05-.45-.4-.28-1.07-.63.11.14-.42-.03-1-.3l.8.45c-1.52-.47-1.19-.71-2.73-1.19l.5.12c-.78-.27-2.81-1.14-3.63-1.26-.12-.08-.28-.22.07-.1-1.81-.77-4.14-1.44-5.5-2.14h.16c-.35-.12-.64-.13-1.04-.36.03-.01.16,0,0-.07-.19-.05-.94-.27-1.38-.48l.41.09c-1.75-.8-2.79-.95-4.3-1.51.07-.17-1.3-.79-1.99-1.1h.03c-2.06-.87-3.57-1.3-5.51-2.01-1.11-.67-4-1.71-5.87-2.59.28.15-.1.11-.45,0-.43-.22-1.29-.39-1.15-.51l.16.07c-.28-.29-1.21-.62-1.93-.92l-.2.16c-1.76-1.06-4.98-1.89-5.9-2.58-.47-.13-1.04-.36-1.51-.49l.07-.1c-1.25-.54-1.87-.81-3.44-1.41l.35.05c-.87-.36-1.24-.14-2.05-.46l-.18-.26c-1.53-.62-3.02-1.39-4.6-1.86.03-.01.1-.04.35.05-.72-.3-2.74-1.24-2.57-.91.04-.15-1.57-.66-2.43-.93l.17-.05c-.75-.15-.79-.12-1.78-.48-.23-.11-.17-.17.13-.02-.75-.37-.64-.14-1.55-.58l.38.07c-.79-.33-.74-.27-1.21-.36-.52-.16-1.49-.64-1.57-.78-.13.02-.6-.08-1.05-.3-.05-.06.13-.02.22,0-1.29-.61-2.02-.67-2.89-1.15,0-.04-.06-.09-.13-.13,1.05.43,1.9.78,1.81.76.04-.1-.8-.46-.07-.32-.71-.2-1.94-.51-2.75-.9-.04-.03-.07-.05-.1-.08l.09.02c-.19-.09-.36-.15-.53-.2-.26-.12-.42-.2-.67-.31-.06-.12-.96-.44-1.38-.62,0,.12-.56-.12-.07.18-.06-.04.09.02.37.13.07.02.14.05.19.06,0,0-.02,0-.03,0,.28.11.64.25,1.06.42-.36-.08-.73-.18-1.17-.43-.25-.02-.51-.04-.66-.07-.52-.39-1.6-.92-1.72-1.08-1.32-.46-3.06-1.2-3.96-1.32-.38-.12-.4-.23-.52-.32.22.07.47.17.6.19-.76-.25-2.19-.86-2.42-.79-.9-.44.57.08-.71-.41l.19.03c-2.41-1.24-4.22-1.29-6.88-2.71.19.1.28.14.31.18-3.11-1.41-6.58-2.53-9.62-4-.87-.4-1-.35-1.57-.5l-.15-.19-.98-.24c-1.35-.44-2.16-1.21-3.9-1.7l.18.17c-.59-.26-1.91-.72-1.78-.77-.07-.01-.23,0-.45-.13v-.07s-1.5-.49-1.5-.49c-1.12-.51.28-.17-1.38-.86-.63-.23-1.83-.54-1.61-.4.25.1.62.3.62.36l-.58-.2c-.18.14-.68.14.65.83l1.01.28.28.21-.82-.32c.43.27.75.32,1.1.4.06.08.18.17.37.26l1.02.21c.09.12-.48-.03.14.26.48.1-.36-.33.39-.08.43.27.27.28.84.43.06.08-.07.06-.29,0,.51.14,1.29.5,1.57.5.44.3,1.64.64,1.52.79.17.02.9.21,1.35.38-.89-.13,1.65.69,1.35.82.67.06,2.2.8,3.3,1.13-.07,0-.19-.03-.28-.07.59.26.74.38,1.11.57.14-.12,1.08.22,1.62.33.67.44-.52,0-.34.23.01-.14,1.32.39,1.11.19.52.32.47.24.7.48.17-.15.53.18,1.05.25.77.42.14.26,1.05.57.4.23-.42-.03-.42-.03ZM1757.17-15.09s0,0,0,0c-.18-.07-.34-.13-.44-.17.09.04.22.08.44.17ZM1758.95-14.37c-.21-.09-.48-.2-.77-.32-.05-.06.04-.07.21,0-.11-.01.3.18.56.32ZM1755.49-16.65c.29.1.37.16.4.2-.13-.05-.29-.11-.5-.19,0,0-.03,0-.04,0,.04,0,.07-.02.13,0Z"/>
          <path class="cls-26" d="M1916.22,48.96l-.04-.02s.06.03.07.05c-.02-.02-.02-.02-.04-.03Z"/>
          <path class="cls-26" d="M1925.88,53.31s.05.04.12.08c0,0-.05-.04-.12-.08Z"/>
          <path class="cls-26" d="M1930.1,55.06l.58.28c-.25-.13-.43-.21-.58-.28Z"/>
          <path class="cls-26" d="M1933.34,56.43s.07-.01.08-.02c0,0,0,0,0,0l-.08.02Z"/>
          <path class="cls-26" d="M1881.51,35.54s-.09-.03-.13-.05c-.3-.1-.1-.03.13.05Z"/>
          <path class="cls-26" d="M1897.02,41.54c-.17-.05-.34-.09-.52-.15.27.12.48.21.52.15Z"/>
          <path class="cls-26" d="M1864.26,28.69s0,0,0,0c-.04-.01-.07-.03-.11-.04l.1.04Z"/>
          <path class="cls-26" d="M1895.79,41.1c.27.13.5.22.72.29-.22-.1-.48-.22-.72-.29Z"/>
          <path class="cls-26" d="M1947.43,62.21l.16.07s.01-.01.03,0l-.18-.06Z"/>
          <path class="cls-26" d="M1947.61,62.27l.18.06c-.08-.03-.15-.06-.18-.06Z"/>
          <path class="cls-26" d="M1948.17,62.45l-.38-.12c.13.05.28.12.38.12Z"/>
          <path class="cls-26" d="M1943.14,60.41l-.07.02s.05,0,.07-.02Z"/>
          <path class="cls-26" d="M1941.83,59.89c.31.14.75.4,1.2.55h.05c-.23-.04-.93-.5-1.25-.55Z"/>
          <path class="cls-26" d="M1936.55,57.19l1.08.48c-.17-.12-.4-.28.1-.09-1.33-.69.25.21-1.18-.39Z"/>
          <path class="cls-26" d="M1933.18,55.74c.6.22.02-.06.06-.07-.39-.11-.48-.14-.06.07Z"/>
          <path class="cls-26" d="M1908.58,45.76l.1-.07c-.46-.17-.02.04-.1.07Z"/>
          <polygon class="cls-26" points="1903.67 44.36 1904.09 44.6 1904.34 44.59 1903.67 44.36"/>
          <polygon class="cls-26" points="1901.18 42.53 1901.38 42.59 1900.61 42.32 1901.18 42.53"/>
          <path class="cls-26" d="M1859.86,25.79l.09.18c.32.1.44,0-.09-.18Z"/>
          <path class="cls-26" d="M1841.97,18.68c-.17-.14-.66-.38-.99-.45.4.17.78.38.99.45Z"/>
        </g>
      </g>
    </g>
  </g>
  <g id="Layer_3" data-name="Layer 3">
    <rect class="cls-27" x="-1.18" y="-1.66" width="2229" height="215"/>
    <g>
      <rect class="cls-4" x="1814" y="8" width="136" height="283"/>
      <rect class="cls-19" x="1950" y="8" width="136" height="283"/>
      <rect class="cls-11" x="1923" y="105" width="18" height="118"/>
      <rect class="cls-2" x="1958" y="105" width="18" height="118"/>
      <rect class="cls-6" x="1838" y="105" width="65" height="24"/>
      <rect class="cls-1" x="1838" y="129" width="65" height="42"/>
    </g>
    <g>
      <rect class="cls-16" x="73" y="17.5" width="377" height="198"/>
      <rect class="cls-12" x="86" y="29.5" width="351" height="209"/>
      <polygon class="cls-5" points="118.5 29.5 118.81 166.5 86.5 189.5 86 29.5 118.5 29.5"/>
      <polygon class="cls-5" points="404.5 29.5 404.19 166.5 436.5 189.5 437 29.5 404.5 29.5"/>
      <polygon class="cls-7" points="86.5 189.5 118.81 166.5 404.19 166.5 436.5 189.5 86.5 189.5"/>
      <rect class="cls-24" x="86.5" y="189.5" width="350.39" height="12.5"/>
      <rect class="cls-9" x="110" y="110" width="58" height="73" rx="16.17" ry="16.17"/>
      <rect class="cls-10" x="121" y="97" width="36" height="12" rx="4.56" ry="4.56"/>
      <g>
        <rect class="cls-13" x="177" y="93.07" width="22" height="92"/>
        <polygon class="cls-20" points="177 93.07 209 76.07 231 76.07 199 93.07 177 93.07"/>
        <polygon class="cls-14" points="199 185.07 199 93.07 231 76.07 231 168.07 199 185.07"/>
      </g>
      <g>
        <rect class="cls-22" x="239.78" y="93.07" width="22" height="92"/>
        <polygon class="cls-8" points="239.78 93.07 271.78 76.07 293.78 76.07 261.78 93.07 239.78 93.07"/>
        <polygon class="cls-18" points="261.78 185.07 261.78 93.07 293.78 76.07 293.78 168.07 261.78 185.07"/>
      </g>
      <g>
        <rect class="cls-21" x="364" y="109" width="58" height="73" rx="16.17" ry="16.17"/>
        <rect class="cls-10" x="375" y="96" width="36" height="12" rx="4.56" ry="4.56"/>
      </g>
      <g>
        <rect class="cls-23" x="302.56" y="93.07" width="22" height="92"/>
        <polygon class="cls-3" points="302.56 93.07 334.56 76.07 356.56 76.07 324.56 93.07 302.56 93.07"/>
        <polygon class="cls-25" points="324.56 185.07 324.56 93.07 356.56 76.07 356.56 168.07 324.56 185.07"/>
      </g>
    </g>
    <g>
      <path class="cls-15" d="M608.47,91.34c-14.25,0-14.25-23.05,0-23.05h51.86c14.25,0,14.25,23.05,0,23.05h-14.46v27.34h14.46c14.25,0,14.25,22.94,0,22.94h-51.86c-14.25,0-14.25-22.94,0-22.94h14.46v-27.34h-14.46Z"/>
      <path class="cls-15" d="M702.24,118.05v-25.88c0-.21-.1-.52-.42-.84-.42-.42-1.15-.42-1.68,0-.21.31-.31.63-.31.84v38.87c0,14.25-23.05,14.25-23.05,0v-38.87c0-1.05,0-2.1.21-3.04.63-5.13,2.93-10.06,6.91-14.04,9.43-9.43,24.73-9.43,34.26,0,4.5,4.5,7.02,10.37,7.02,16.66l.1,25.88c0,.73.42,1.47,1.26,1.36.73,0,1.15-.63,1.15-1.26v-38.76c0-14.35,22.94-14.35,22.94,0v38.55c0,13.31-10.69,24.52-24.2,24.52s-24.1-10.79-24.2-23.99Z"/>
      <path class="cls-15" d="M793.91,87.35c-10.37-10.37,6.29-27.13,16.66-16.76l17.71,17.71,17.71-17.71c10.48-10.37,27.13,6.39,16.76,16.76l-22.63,22.52v21.79c0,14.67-23.57,14.67-23.57,0v-21.79l-22.63-22.52Z"/>
      <path class="cls-15" d="M921.1,68.29c1.15,0,2.1.1,3.04.21,5.13.73,9.74,2.51,14.04,6.91,4.3,4.3,7.12,10.9,7.12,17.08v24.93c0,6.18-2.83,12.78-7.12,17.08-4.3,4.4-8.9,6.29-14.04,6.91-.94.21-1.89.21-3.04.21h-26.09c-1.15,0-2.1,0-3.04-.21-5.13-.63-9.74-2.51-14.04-6.91-4.4-4.3-7.12-10.9-7.12-17.08v-24.93c0-6.18,2.72-12.78,7.12-17.08,4.3-4.4,8.91-6.18,14.04-6.91.94-.1,1.89-.21,3.04-.21h26.09ZM921,118.57c.73,0,1.26-.52,1.26-1.15v-24.83c0-.73-.52-1.36-1.26-1.36h-25.98c-.63,0-1.15.63-1.15,1.36v24.83c0,.63.52,1.15,1.15,1.15h25.98Z"/>
      <path class="cls-15" d="M975.69,118.57h24.83c.63,0,1.15-.52,1.15-1.15v-38.45c0-14.25,23.05-14.25,23.05,0v38.45c0,1.15,0,2.1-.21,3.04-.63,5.13-2.51,9.74-6.91,14.04-4.3,4.4-10.9,7.12-17.08,7.12h-24.93c-6.18,0-12.78-2.72-17.08-7.12-4.4-4.3-6.18-8.91-6.91-14.04-.1-.94-.21-1.89-.21-3.04v-38.45c0-14.25,22.94-14.25,22.94,0v38.34c0,.73.63,1.26,1.36,1.26Z"/>
      <path class="cls-15" d="M1080.88,116.27h-1.15v.1c-.31,0-.63.1-.84.31-.52.42-.52,1.15,0,1.68.21.21.52.31.84.31h14.56c14.25,0,14.25,23.05,0,23.05h-14.56c-6.39,0-12.57-2.62-17.08-7.12-4.71-4.71-6.39-11.21-6.39-17.39,0-1.89-2.41-1.89-2.41.1v13.62c0,14.35-23.05,14.35-23.05,0v-51.96c0-7.12,5.66-10.69,11.42-10.69h38.14c13.2,0,24.52,10.58,24.52,24.2s-10.79,23.57-23.99,23.78ZM1053.85,91.23v2.41h26.61c.73,0,1.47-.42,1.36-1.26,0-.73-.63-1.15-1.26-1.15h-26.71Z"/>
      <path class="cls-15" d="M1195.71,116.69h-27.03v14.67c0,14.35-22.94,14.35-22.94,0v-52.38c0-7.12,5.66-10.69,11.31-10.69h38.24c13.2,0,24.41,10.58,24.41,24.2s-10.79,23.99-23.99,24.2ZM1168.68,91.23v2.41h26.72c.73,0,1.36-.42,1.36-1.26-.11-.73-.63-1.15-1.36-1.15h-26.72Z"/>
      <path class="cls-15" d="M1275.75,68.39c12.36,0,23.78,10.58,23.78,23.15v39.81c0,14.35-23.05,14.35-23.05,0v-14.56c-9.01,0-18.02,0-27.03-.1h-.94v14.67c0,14.35-23.05,14.35-23.05,0v-38.76c0-13.41,11.21-24.31,24.52-24.31,8.59,0,17.18.1,25.77.1ZM1249.88,93.74h25.35c1.68,0,1.57-2.41,0-2.41h-25.46c-1.68,0-1.68,2.41.1,2.41Z"/>
      <path class="cls-15" d="M1331.07,118.05v-25.88c0-.21-.1-.52-.42-.84-.42-.42-1.15-.42-1.68,0-.21.31-.31.63-.31.84v38.87c0,14.25-23.05,14.25-23.05,0v-38.87c0-1.05,0-2.1.21-3.04.63-5.13,2.93-10.06,6.92-14.04,9.43-9.43,24.72-9.43,34.26,0,4.5,4.5,7.02,10.37,7.02,16.66l.1,25.88c0,.73.42,1.47,1.26,1.36.73,0,1.15-.63,1.15-1.26v-38.76c0-14.35,22.94-14.35,22.94,0v38.55c0,13.31-10.69,24.52-24.2,24.52s-24.1-10.79-24.2-23.99Z"/>
      <path class="cls-15" d="M1448.21,91.34h-13.31c-.73,0-1.15.52-1.15,1.26v38.66c0,7.12-5.76,10.69-11.52,10.69s-11.52-3.56-11.52-10.69v-38.66c0-.73-.42-1.26-1.15-1.26h-13.3c-14.25,0-14.25-22.94,0-22.94h51.96c14.35,0,14.35,22.94,0,22.94Z"/>
      <path class="cls-15" d="M1514.84,116.27h-1.15v.1c-.31,0-.63.1-.84.31-.52.42-.52,1.15,0,1.68.21.21.52.31.84.31h14.56c14.25,0,14.25,23.05,0,23.05h-14.56c-6.39,0-12.57-2.62-17.08-7.12-4.71-4.71-6.39-11.21-6.39-17.39,0-1.89-2.41-1.89-2.41.1v13.62c0,14.35-23.05,14.35-23.05,0v-51.96c0-7.12,5.66-10.69,11.42-10.69h38.14c13.2,0,24.52,10.58,24.52,24.2s-10.79,23.57-23.99,23.78ZM1487.81,91.23v2.41h26.61c.73,0,1.47-.42,1.36-1.26,0-.73-.63-1.15-1.26-1.15h-26.71Z"/>
      <path class="cls-15" d="M1547.11,87.35c-10.37-10.37,6.29-27.13,16.66-16.76l17.71,17.71,17.71-17.71c10.48-10.37,27.13,6.39,16.76,16.76l-22.63,22.52v21.79c0,14.67-23.57,14.67-23.57,0v-21.79l-22.63-22.52Z"/>
    </g>
  </g>
</svg>